SplineFontDB: 3.0
FontName: Comme-Medium
FullName: Comme Medium
FamilyName: Comme
Weight: Medium
Copyright: Digitized data Copyright (c) 2011-2014, vernon adams.
Version: 2
ItalicAngle: 0
UnderlinePosition: 0
UnderlineWidth: 0
Ascent: 1638
Descent: 410
UFOAscent: 1560
UFODescent: -556
LayerCount: 2
Layer: 0 0 "Back"  1
Layer: 1 0 "Fore"  0
OS2Version: 0
OS2_WeightWidthSlopeOnly: 0
OS2_UseTypoMetrics: 0
CreationTime: 1390956821
ModificationTime: 1390957156
PfmFamily: 0
TTFWeight: 100
TTFWidth: 5
LineGap: 0
VLineGap: 0
OS2TypoAscent: 2416
OS2TypoAOffset: 0
OS2TypoDescent: -512
OS2TypoDOffset: 0
OS2TypoLinegap: 0
OS2WinAscent: 2416
OS2WinAOffset: 0
OS2WinDescent: 512
OS2WinDOffset: 0
HheadAscent: 0
HheadAOffset: 1
HheadDescent: 0
HheadDOffset: 1
OS2Vendor: 'NeWT'
Lookup: 4 0 1 "ligaStandardLigatureslookup0"  {"ligaStandardLigatureslookup0 subtable"  } ['liga' ('latn' <'dflt' > 'grek' <'dflt' > 'DFLT' <'dflt' > ) ]
DEI: 91125
LangName: 1033 "" "" "" "" "" "Version 2" "" "Comme is a trademark of Vernon Adams and may be registered in certain jurisdictions." "newtypography" "Vernon Adams" "" "newtypography.co.uk" "newtypography.co.uk" "Copyright (c) 2014, vernon adams.+AAoACgAA-This Font Software is licensed under the SIL Open Font License, Version 1.1.+AAoA-This license is available with a FAQ at:+AAoA-http://scripts.sil.org/OFL+AAoA" "http://scripts.sil.org/OFL" "" "Comme" "Medium" 
PickledData: "(dp1
S'public.glyphOrder'
p2
(S'A'
S'Agrave'
S'Aacute'
S'Acircumflex'
S'Atilde'
S'Adieresis'
S'Aring'
S'Amacron'
S'Abreve'
S'Aogonek'
S'uni01CD'
S'uni0200'
S'uni0202'
S'uni0226'
S'B'
S'uni1E02'
S'C'
S'Ccedilla'
S'Cacute'
S'Ccircumflex'
S'Cdotaccent'
S'Ccaron'
S'D'
S'Dcaron'
S'uni1E0A'
S'E'
S'Egrave'
S'Eacute'
S'Ecircumflex'
S'Edieresis'
S'Emacron'
S'Ebreve'
S'Edotaccent'
S'Eogonek'
S'Ecaron'
S'uni0204'
S'uni0206'
S'uni0228'
S'uni1EBC'
S'F'
S'uni1E1E'
S'G'
S'Gcircumflex'
S'Gbreve'
S'Gdotaccent'
S'Gcommaaccent'
S'Gcaron'
S'uni01F4'
S'H'
S'Hcircumflex'
S'uni021E'
S'I'
S'Igrave'

StartChar: A
Encoding: 65 65 0
Width: 1443
VWidth: 0
GlyphClass: 2
Flags: HW
PickledData: "(dp1
S'org.pippin.gimp.org.kernagic'
p2
(dp3
S'lstem'
p4
I0
sS'rstem'
p5
I0
ssS'com.typemytype.robofont.layerData'
p6
(dp7
sS'org.robofab.postScriptHintData'
p8
(dp9
s."
AnchorPoint: "bot" 721 0 basechar 0
AnchorPoint: "ogonek" 1256 0 basechar 0
AnchorPoint: "top" 720 1456 basechar 0
LayerCount: 2
Fore
SplineSet
498 589 m 1
 944 589 l 1
 721 1245 l 1
 498 589 l 1
593 1456 m 1
 847 1456 l 1
 1382 0 l 1
 1151 0 l 1
 992 435 l 1
 448 435 l 1
 291 0 l 1
 61 0 l 1
 593 1456 l 1
EndSplineSet
EndChar

StartChar: AE
Encoding: 198 198 1
Width: 1694
VWidth: 0
GlyphClass: 2
Flags: HW
PickledData: "(dp1
S'org.pippin.gimp.org.kernagic'
p2
(dp3
S'lstem'
p4
I0
sS'rstem'
p5
I0
ssS'com.typemytype.robofont.layerData'
p6
(dp7
sS'org.robofab.postScriptHintData'
p8
(dp9
s."
LayerCount: 2
Fore
SplineSet
728 1456 m 1
 1620 1456 l 1
 1610 1292 l 1
 1020 1292 l 1
 1020 839 l 1
 1560 839 l 1
 1560 674 l 1
 1020 674 l 1
 1020 168 l 1
 1637 168 l 1
 1626 0 l 1
 817 0 l 1
 817 441 l 1
 402 441 l 1
 166 0 l 1
 -73 0 l 1
 728 1456 l 1
817 592 m 1
 817 1242 l 1
 476 592 l 1
 817 592 l 1
EndSplineSet
EndChar

StartChar: B
Encoding: 66 66 13
Width: 1387
VWidth: 0
GlyphClass: 2
Flags: HW
PickledData: "(dp1
S'org.pippin.gimp.org.kernagic'
p2
(dp3
S'lstem'
p4
I0
sS'rstem'
p5
I0
ssS'com.typemytype.robofont.layerData'
p6
(dp7
sS'org.robofab.postScriptHintData'
p8
(dp9
s."
AnchorPoint: "top" 667 1456 basechar 0
LayerCount: 2
Fore
SplineSet
428 704 m 1
 428 164 l 1
 488 160 548 158 601 158 c 0
 990 158 1036 269 1036 434 c 0
 1036 634 921 704 666 704 c 2
 428 704 l 1
428 1298 m 1
 428 856 l 1
 676 856 l 2
 850 856 993 896 993 1077 c 0
 993 1238 905 1308 635 1308 c 0
 574 1308 503 1305 428 1298 c 1
568 -7 m 0
 460 -7 336 -1 197 11 c 1
 197 1438 l 1
 363 1456 504 1465 622 1465 c 0
 1121 1465 1216 1298 1216 1095 c 0
 1216 959 1142 846 960 788 c 1
 1177 738 1265 619 1265 433 c 0
 1265 127 1081 -7 568 -7 c 0
EndSplineSet
EndChar

StartChar: C
Encoding: 67 67 14
Width: 1465
VWidth: 0
GlyphClass: 2
Flags: HW
PickledData: "(dp1
S'org.pippin.gimp.org.kernagic'
p2
(dp3
S'lstem'
p4
I0
sS'rstem'
p5
I0
ssS'com.typemytype.robofont.layerData'
p6
(dp7
sS'org.robofab.postScriptHintData'
p8
(dp9
s."
AnchorPoint: "bot" 805 1 basechar 0
AnchorPoint: "top" 796 1456 basechar 0
LayerCount: 2
Fore
SplineSet
1370 1083 m 1
 1202 1019 l 1
 1184 1019 l 1
 1149 1173 1012 1302 830 1302 c 0
 558 1302 385 1122 385 730 c 0
 385 339 561 155 822 155 c 0
 1008 155 1151 281 1187 438 c 1
 1205 438 l 1
 1373 374 l 1
 1323 136 1096 -19 811 -19 c 0
 408 -19 145 251 145 730 c 0
 145 1206 408 1477 811 1477 c 0
 1093 1477 1320 1320 1370 1083 c 1
EndSplineSet
EndChar

StartChar: D
Encoding: 68 68 21
Width: 1511
VWidth: 0
GlyphClass: 2
Flags: HW
PickledData: "(dp1
S'org.pippin.gimp.org.kernagic'
p2
(dp3
S'lstem'
p4
I0
sS'rstem'
p5
I0
ssS'com.typemytype.robofont.layerData'
p6
(dp7
sS'com.fontlab.hintData'
p8
(dp9
S'vhints'
p10
((dp11
S'position'
p12
I1280
sS'width'
p13
I122
stp14
sS'hhints'
p15
((dp16
g12
I0
sg13
I94
s(dp17
g12
I1355
sg13
I94
stp18
ssS'org.robofab.postScriptHintData'
p19
(dp20
s."
HStem: 0 94 1355 94
VStem: 1280 122
AnchorPoint: "mid" 319 763 basechar 0
AnchorPoint: "bot" 777 -1 basechar 0
AnchorPoint: "top" 756 1456 basechar 0
LayerCount: 2
Fore
SplineSet
428 159 m 1
 477 155 523 153 566 153 c 0
 1021 153 1137 396 1137 743 c 0
 1137 1079 1047 1302 599 1302 c 0
 547 1302 490 1299 428 1293 c 1
 428 159 l 1
197 10 m 1
 197 1438 l 1
 337 1455 462 1463 572 1463 c 0
 1202 1463 1366 1194 1366 748 c 0
 1366 298 1155 -10 508 -10 c 0
 414 -10 310 -4 197 10 c 1
EndSplineSet
EndChar

StartChar: Delta
Encoding: 916 916 24
Width: 1334
VWidth: 0
GlyphClass: 2
Flags: HW
PickledData: "(dp1
S'org.pippin.gimp.org.kernagic'
p2
(dp3
S'lstem'
p4
I0
sS'rstem'
p5
I0
ssS'com.typemytype.robofont.layerData'
p6
(dp7
S'b'
(dp8
S'name'
p9
S'Delta'
p10
sS'lib'
p11
(dp12
sS'unicodes'
p13
(tsS'width'
p14
I1334
sS'contours'
p15
(tsS'components'
p16
(tsS'anchors'
p17
(tsssS'org.robofab.postScriptHintData'
p18
(dp19
s."
LayerCount: 2
Fore
SplineSet
38 0 m 1
 565 1495 l 1
 752 1495 l 1
 1285 0 l 1
 38 0 l 1
277 164 m 1
 1046 164 l 1
 658 1291 l 1
 277 164 l 1
EndSplineSet
EndChar

StartChar: E
Encoding: 69 69 25
Width: 1320
VWidth: 0
GlyphClass: 2
Flags: HW
PickledData: "(dp1
S'org.pippin.gimp.org.kernagic'
p2
(dp3
S'lstem'
p4
I0
sS'rstem'
p5
I0
ssS'com.typemytype.robofont.layerData'
p6
(dp7
sS'org.robofab.postScriptHintData'
p8
(dp9
s."
AnchorPoint: "bot" 700 0 basechar 0
AnchorPoint: "ogonek" 909 0 basechar 0
AnchorPoint: "top" 742 1456 basechar 0
LayerCount: 2
Fore
SplineSet
197 1456 m 1
 1173 1456 l 1
 1163 1289 l 1
 428 1289 l 1
 428 836 l 1
 1113 836 l 1
 1113 668 l 1
 428 668 l 1
 428 171 l 1
 1189 171 l 1
 1179 0 l 1
 197 0 l 1
 197 1456 l 1
EndSplineSet
EndChar

StartChar: Eng
Encoding: 330 330 34
Width: 1541
VWidth: 0
GlyphClass: 2
Flags: HW
PickledData: "(dp1
S'org.robofab.postScriptHintData'
p2
(dp3
s."
LayerCount: 2
Fore
SplineSet
1139 1456 m 1
 1350 1456 l 1
 1350 -16 l 2
 1350 -339 1186 -444 762 -448 c 1
 755 -290 l 1
 1076.00481337 -290 1133.39407762 -228.131044594 1138.58234913 -38.1668872037 c 1
 395 1133 l 1
 412 698 l 1
 412 0 l 1
 197 0 l 1
 197 1456 l 1
 424 1456 l 1
 1145.65332031 311.546875 l 1
 1138 946 l 1
 1139 946 l 1
 1139 1456 l 1
EndSplineSet
EndChar

StartChar: Euro
Encoding: 8364 8364 37
Width: 1391
VWidth: 0
GlyphClass: 2
Flags: HW
PickledData: "(dp1
S'org.pippin.gimp.org.kernagic'
p2
(dp3
S'lstem'
p4
I0
sS'rstem'
p5
I0
ssS'com.typemytype.robofont.layerData'
p6
(dp7
S'b'
(dp8
S'name'
p9
S'Euro'
p10
sS'lib'
p11
(dp12
sS'unicodes'
p13
(tsS'width'
p14
I1391
sS'contours'
p15
(tsS'components'
p16
(tsS'anchors'
p17
(tsssS'org.robofab.postScriptHintData'
p18
(dp19
s."
LayerCount: 2
Fore
SplineSet
-60 528 m 1
 -55 650 l 1
 80.5497557331 650 l 1
 78.8575523855 675.977617932 78 702.64807047 78 730 c 0
 78 758.752849136 78.9596295534 786.75769805 80.851778823 814 c 1
 -55 814 l 1
 -51 935 l 1
 96.2464459282 935 l 1
 162.28475486 1283.00914953 403.03403967 1477 744 1477 c 0
 1026 1477 1253 1320 1303 1083 c 1
 1135 1019 l 1
 1117 1019 l 1
 1082 1173 945 1302 763 1302 c 0
 543.931015261 1302 389.080385672 1185.23935427 337.108631506 935 c 1
 818 935 l 1
 812 814 l 1
 320.843283337 814 l 1
 318.957924494 787.165082839 318 759.169477814 318 730 c 0
 318 702.296923088 318.883517525 675.632983266 320.61818612 650 c 1
 812 650 l 1
 807 528 l 1
 336.720280584 528 l 1
 388.517941609 275.281264409 543.976613536 155 755 155 c 0
 941 155 1084 281 1120 438 c 1
 1138 438 l 1
 1306 374 l 1
 1256 136 1029 -19 744 -19 c 0
 401.697223419 -19 160.398496611 175.793524564 95.4777632519 528 c 1
 -60 528 l 1
EndSplineSet
EndChar

StartChar: F
Encoding: 70 70 38
Width: 1220
VWidth: 0
GlyphClass: 2
Flags: HW
PickledData: "(dp1
S'org.pippin.gimp.org.kernagic'
p2
(dp3
S'lstem'
p4
I0
sS'rstem'
p5
I705
ssS'com.typemytype.robofont.layerData'
p6
(dp7
sS'org.robofab.postScriptHintData'
p8
(dp9
s."
AnchorPoint: "top" 736 1456 basechar 0
LayerCount: 2
Fore
SplineSet
197 1456 m 1
 1173 1456 l 1
 1161 1284 l 1
 428 1284 l 1
 428 809 l 1
 1084 809 l 1
 1084 645 l 1
 428 645 l 1
 428 0 l 1
 197 0 l 1
 197 1456 l 1
EndSplineSet
EndChar

StartChar: G
Encoding: 71 71 39
Width: 1501
VWidth: 0
GlyphClass: 2
Flags: HW
PickledData: "(dp1
S'org.pippin.gimp.org.kernagic'
p2
(dp3
S'lstem'
p4
I0
sS'rstem'
p5
I0
ssS'com.typemytype.robofont.layerData'
p6
(dp7
sS'org.robofab.postScriptHintData'
p8
(dp9
s."
AnchorPoint: "bot" 796 1 basechar 0
AnchorPoint: "top" 806 1456 basechar 0
LayerCount: 2
Fore
SplineSet
826 -20 m 0
 378 -20 145 279 145 734 c 0
 145 1191 406 1476 847 1476 c 0
 1095 1476 1274 1380 1359 1251 c 1
 1232 1139 l 1
 1213 1139 l 1
 1153 1217 1039 1302 859 1302 c 0
 546 1302 385 1086 385 735 c 0
 385 360 530 154 865 154 c 0
 989 154 1084 174 1151 195 c 1
 1151 607 l 1
 829 629 l 1
 838 780 l 1
 1355 780 l 1
 1355 75 l 1
 1205 13 1035 -20 826 -20 c 0
EndSplineSet
EndChar

StartChar: H
Encoding: 72 72 45
Width: 1552
VWidth: 0
GlyphClass: 2
Flags: HW
PickledData: "(dp1
S'org.pippin.gimp.org.kernagic'
p2
(dp3
S'lstem'
p4
I0
sS'rstem'
p5
I0
ssS'com.typemytype.robofont.layerData'
p6
(dp7
sS'org.robofab.postScriptHintData'
p8
(dp9
s."
AnchorPoint: "top" 789 1456 basechar 0
LayerCount: 2
Fore
SplineSet
1121 662 m 1
 431 662 l 1
 431 -2 l 1
 200 -2 l 1
 200 1456 l 1
 431 1456 l 1
 431 834 l 1
 1121 834 l 1
 1121 1456 l 1
 1352 1456 l 1
 1352 -2 l 1
 1121 -2 l 1
 1121 662 l 1
EndSplineSet
EndChar

StartChar: Hbar
Encoding: 294 294 46
Width: 1507
VWidth: 0
GlyphClass: 2
Flags: HWO
PickledData: "(dp1
S'org.pippin.gimp.org.kernagic'
p2
(dp3
S'lstem'
p4
I0
sS'rstem'
p5
I0
ssS'com.typemytype.robofont.layerData'
p6
(dp7
sS'org.robofab.postScriptHintData'
p8
(dp9
s."
LayerCount: 2
Fore
SplineSet
63 1282 m 1
 63 1142 l 1
 1436 1142 l 1
 1436 1282 l 1
 63 1282 l 1
EndSplineSet
Refer: 45 72 N 1 0 0 1 -20 0 2
EndChar

StartChar: I
Encoding: 73 73 48
Width: 989
VWidth: 0
GlyphClass: 2
Flags: HW
PickledData: "(dp1
S'org.pippin.gimp.org.kernagic'
p2
(dp3
S'lstem'
p4
I0
sS'rstem'
p5
I0
ssS'com.typemytype.robofont.layerData'
p6
(dp7
sS'com.fontlab.hintData'
p8
(dp9
S'vhints'
p10
((dp11
S'position'
p12
I111
sS'width'
p13
I529
stp14
sS'hhints'
p15
((dp16
g12
I0
sg13
I86
s(dp17
g12
I1363
sg13
I86
stp18
ssS'org.robofab.postScriptHintData'
p19
(dp20
s."
HStem: 0 86 1363 86
VStem: 111 529
AnchorPoint: "ogonek" 498 0 basechar 0
AnchorPoint: "top" 492 1456 basechar 0
LayerCount: 2
Fore
SplineSet
177 1456 m 1
 804 1456 l 1
 804 1321 l 1
 608 1321 l 1
 608 134 l 1
 804 134 l 1
 804 -2 l 1
 177 -2 l 1
 177 134 l 1
 376 134 l 1
 376 1321 l 1
 177 1321 l 1
 177 1456 l 1
EndSplineSet
EndChar

StartChar: J
Encoding: 74 74 59
Width: 801
VWidth: 0
GlyphClass: 2
Flags: HW
PickledData: "(dp1
S'org.pippin.gimp.org.kernagic'
p2
(dp3
S'lstem'
p4
I132
sS'rstem'
p5
I0
ssS'com.typemytype.robofont.layerData'
p6
(dp7
sS'org.robofab.postScriptHintData'
p8
(dp9
s."
AnchorPoint: "top" 470 1456 basechar 0
LayerCount: 2
Fore
SplineSet
349 1456 m 1
 580 1456 l 1
 580 78 l 2
 580 -228 550 -300 278 -405 c 1
 173 -446 l 1
 99 -271 l 1
 236 -210 l 1
 342 -164 349 -133 349 80 c 2
 349 1456 l 1
EndSplineSet
EndChar

StartChar: K
Encoding: 75 75 61
Width: 1346
VWidth: 0
GlyphClass: 2
Flags: HW
PickledData: "(dp1
S'org.pippin.gimp.org.kernagic'
p2
(dp3
S'lstem'
p4
I0
sS'rstem'
p5
I851
ssS'com.typemytype.robofont.layerData'
p6
(dp7
sS'org.robofab.postScriptHintData'
p8
(dp9
s."
AnchorPoint: "bot" 709 0 basechar 0
AnchorPoint: "top" 707 1456 basechar 0
LayerCount: 2
Fore
SplineSet
1315 1456 m 1
 1315 1439 l 1
 735 828 l 1
 1356 16 l 1
 1356 0 l 1
 1097 0 l 1
 564 704 l 1
 428 568 l 1
 428 0 l 1
 197 0 l 1
 197 1456 l 1
 428 1456 l 1
 428 788 l 1
 1062 1456 l 1
 1315 1456 l 1
EndSplineSet
EndChar

StartChar: L
Encoding: 76 76 63
Width: 1124
VWidth: 0
GlyphClass: 2
Flags: HW
PickledData: "(dp1
S'org.pippin.gimp.org.kernagic'
p2
(dp3
S'lstem'
p4
I0
sS'rstem'
p5
I597
ssS'com.typemytype.robofont.layerData'
p6
(dp7
sS'org.robofab.postScriptHintData'
p8
(dp9
s."
AnchorPoint: "mid" 341 761 basechar 0
AnchorPoint: "bot" 619 0 basechar 0
AnchorPoint: "top" 429 1456 basechar 0
LayerCount: 2
Fore
SplineSet
197 1456 m 1
 428 1456 l 1
 428 165 l 1
 1118 165 l 1
 1109 0 l 1
 197 0 l 1
 197 1456 l 1
EndSplineSet
EndChar

StartChar: M
Encoding: 77 77 69
Width: 1833
VWidth: 0
GlyphClass: 2
Flags: HW
PickledData: "(dp1
S'org.pippin.gimp.org.kernagic'
p2
(dp3
S'lstem'
p4
I0
sS'rstem'
p5
I0
ssS'com.typemytype.robofont.guides'
p6
((dp7
S'y'
I378
sS'x'
I548
sS'magnetic'
p8
I5
sS'angle'
p9
I0
sS'isGlobal'
p10
I00
stp11
sS'com.typemytype.robofont.layerData'
p12
(dp13
sS'com.fontlab.hintData'
p14
(dp15
S'vhints'
p16
((dp17
S'position'
p18
I185
sS'width'
p19
I166
s(dp20
g18
I214
sg19
I151
s(dp21
g18
I332
sg19
I33
s(dp22
g18
I1463
sg19
I149
s(dp23
g18
I1463
sg19
I39
s(dp24
g18
I1477
sg19
I164
stp25
ssS'org.robofab.postScriptHintData'
p26
(dp27
s."
VStem: 185 166 214 151 332 33 1463 149 1463 39 1477 164
AnchorPoint: "top" 928 1456 basechar 0
LayerCount: 2
Fore
SplineSet
177 -2 m 1
 177 510 l 1
 201 1456 l 1
 463 1456 l 1
 919 450 l 1
 1377 1456 l 1
 1633 1456 l 1
 1656 513 l 1
 1656 -2 l 1
 1439 -2 l 1
 1439 497 l 1
 1431 1131 l 1
 1001 186 l 1
 829 186 l 1
 403 1139 l 1
 395 494 l 1
 395 -2 l 1
 177 -2 l 1
EndSplineSet
EndChar

StartChar: N
Encoding: 78 78 70
Width: 1547
VWidth: 0
GlyphClass: 2
Flags: HW
PickledData: "(dp1
S'org.pippin.gimp.org.kernagic'
p2
(dp3
S'lstem'
p4
I0
sS'rstem'
p5
I0
ssS'com.typemytype.robofont.layerData'
p6
(dp7
sS'org.robofab.postScriptHintData'
p8
(dp9
s."
AnchorPoint: "bot" 775 0 basechar 0
AnchorPoint: "top" 783 1456 basechar 0
LayerCount: 2
Fore
SplineSet
1139 1456 m 1
 1350 1456 l 1
 1350 0 l 1
 1114 0 l 1
 395 1133 l 1
 412 698 l 1
 412 0 l 1
 197 0 l 1
 197 1456 l 1
 424 1456 l 1
 1151 305 l 1
 1139 715 l 1
 1139 1456 l 1
EndSplineSet
EndChar

StartChar: O
Encoding: 79 79 75
Width: 1628
VWidth: 0
GlyphClass: 2
Flags: HW
PickledData: "(dp1
S'org.pippin.gimp.org.kernagic'
p2
(dp3
S'lstem'
p4
I0
sS'rstem'
p5
I0
ssS'com.typemytype.robofont.guides'
p6
(tsS'com.typemytype.robofont.layerData'
p7
(dp8
sS'com.fontlab.hintData'
p9
(dp10
S'vhints'
p11
((dp12
S'position'
p13
I150
sS'width'
p14
I122
s(dp15
g13
I1390
sg14
I122
stp16
sS'hhints'
p17
((dp18
g13
I-19
sg14
I96
s(dp19
g13
I1372
sg14
I96
stp20
ssS'org.robofab.postScriptHintData'
p21
(dp22
s."
HStem: -19 96 1372 96
VStem: 150 122 1390 122
AnchorPoint: "ogonek" 874 1 basechar 0
AnchorPoint: "top" 815 1456 basechar 0
LayerCount: 2
Fore
SplineSet
148 722 m 0
 148 1188 375 1476 817 1476 c 0
 1254 1476 1480 1186 1480 720 c 0
 1480 267 1263 -21 817 -21 c 0
 367 -21 148 263 148 722 c 0
1241 721 m 0
 1241 1071 1120 1299 817 1299 c 0
 515 1299 388 1073 388 721 c 0
 388 380 506 157 816 157 c 0
 1125 157 1241 380 1241 721 c 0
EndSplineSet
EndChar

StartChar: OE
Encoding: 338 338 76
Width: 2330
VWidth: 0
GlyphClass: 2
Flags: HW
PickledData: "(dp1
S'org.pippin.gimp.org.kernagic'
p2
(dp3
S'lstem'
p4
I0
sS'rstem'
p5
I0
ssS'com.typemytype.robofont.layerData'
p6
(dp7
S'b'
(dp8
S'name'
p9
S'OE'
p10
sS'lib'
p11
(dp12
sS'unicodes'
p13
(tsS'width'
p14
I2367
sS'contours'
p15
(tsS'components'
p16
(tsS'anchors'
p17
(tsssS'org.robofab.postScriptHintData'
p18
(dp19
s."
LayerCount: 2
Fore
SplineSet
127 723 m 0
 127 1193 351 1478 785 1478 c 0
 978 1478 1127 1414 1221 1297 c 1
 1221 1456 l 1
 2179 1456 l 1
 2169 1292 l 1
 1430 1292 l 1
 1430 834 l 1
 2119 834 l 1
 2119 669 l 1
 1430 669 l 1
 1430 168 l 1
 2195 168 l 1
 2185 0 l 1
 1221 0 l 1
 1221 156 l 1
 1127 43 980 -19 784 -19 c 0
 343 -19 127 263 127 723 c 0
1220 722 m 0
 1220 1074 1098 1304 784 1304 c 0
 472 1304 344 1075 344 722 c 0
 344 382 463 156 783 156 c 0
 1103 156 1220 382 1220 722 c 0
EndSplineSet
EndChar

StartChar: Oslash
Encoding: 216 216 84
Width: 1629
VWidth: 0
GlyphClass: 2
Flags: HW
PickledData: "(dp1
S'org.pippin.gimp.org.kernagic'
p2
(dp3
S'lstem'
p4
I0
sS'rstem'
p5
I0
ssS'com.typemytype.robofont.layerData'
p6
(dp7
sS'org.robofab.postScriptHintData'
p8
(dp9
s."
AnchorPoint: "top" 817 1456 basechar 0
LayerCount: 2
Fore
SplineSet
526 -252 m 1
 418 -213 l 1
 511 35 l 1
 267 139 148 383 148 722 c 0
 148 1188 375 1476 817 1476 c 0
 901 1476 977 1466 1044 1444 c 1
 1140 1699 l 1
 1254 1655 l 1
 1157 1399 l 1
 1370 1283 1480 1044 1480 720 c 0
 1480 267 1263 -21 817 -21 c 0
 746 -21 681 -14 622 0 c 1
 526 -252 l 1
583 225 m 1
 979 1272 l 1
 932 1289 878 1299 817 1299 c 0
 515 1299 388 1073 388 721 c 0
 388 489 443 311 583 225 c 1
816 157 m 0
 1125 157 1241 380 1241 721 c 0
 1241 938 1194 1109 1082 1205 c 1
 688 173 l 1
 726 162 769 157 816 157 c 0
EndSplineSet
EndChar

StartChar: P
Encoding: 80 80 87
Width: 1337
VWidth: 0
GlyphClass: 2
Flags: HW
PickledData: "(dp1
S'org.pippin.gimp.org.kernagic'
p2
(dp3
S'lstem'
p4
I0
sS'rstem'
p5
I807
ssS'com.typemytype.robofont.layerData'
p6
(dp7
sS'org.robofab.postScriptHintData'
p8
(dp9
s."
AnchorPoint: "top" 700 1456 basechar 0
LayerCount: 2
Fore
SplineSet
428 768 m 1
 498 762 561 759 616 759 c 0
 966 759 1032 871 1032 1045 c 0
 1032 1208 966 1306 638 1306 c 0
 577 1306 508 1303 428 1296 c 1
 428 768 l 1
197 1438 m 1
 360 1455 500 1464 620 1464 c 0
 1094 1464 1248 1328 1248 1052 c 0
 1248 786 1126 600 627 600 c 0
 566 600 500 603 428 609 c 1
 428 0 l 1
 197 0 l 1
 197 1438 l 1
EndSplineSet
EndChar

StartChar: Q
Encoding: 81 81 88
Width: 1610
VWidth: 0
GlyphClass: 2
Flags: HW
PickledData: "(dp1
S'org.pippin.gimp.org.kernagic'
p2
(dp3
S'lstem'
p4
I0
sS'rstem'
p5
I0
ssS'com.typemytype.robofont.layerData'
p6
(dp7
sS'org.robofab.postScriptHintData'
p8
(dp9
s."
LayerCount: 2
Fore
SplineSet
148 722 m 0
 148 263 367 -21 817 -21 c 0
 828.903676674 -21 840.644225536 -20.794843626 852.221874737 -20.3868694132 c 1
 942.803898203 -153.035341911 1146.54127322 -431.023343389 1181 -460 c 1
 1329 -348 l 1
 1294.93639719 -319.355606729 1136.80868771 -102.51735116 1055.52689636 12.0536222919 c 1
 1340.56916196 99.7828797662 1480 356.882019892 1480 720 c 0
 1480 1186 1254 1476 817 1476 c 0
 375 1476 148 1188 148 722 c 0
1241 721 m 0
 1241 380 1125 157 816 157 c 0
 506 157 388 380 388 721 c 0
 388 1073 515 1299 817 1299 c 0
 1120 1299 1241 1071 1241 721 c 0
EndSplineSet
EndChar

StartChar: R
Encoding: 82 82 89
Width: 1372
VWidth: 0
GlyphClass: 2
Flags: HW
PickledData: "(dp1
S'org.pippin.gimp.org.kernagic'
p2
(dp3
S'lstem'
p4
I0
sS'rstem'
p5
I839
ssS'com.typemytype.robofont.layerData'
p6
(dp7
sS'com.fontlab.hintData'
p8
(dp9
S'vhints'
p10
((dp11
S'position'
p12
I1122
sS'width'
p13
I117
stp14
sS'hhints'
p15
((dp16
g12
I722
sg13
I96
s(dp17
g12
I1355
sg13
I94
stp18
ssS'org.robofab.postScriptHintData'
p19
(dp20
s."
HStem: 722 96 1355 94
VStem: 1122 117
AnchorPoint: "bot" 723 0 basechar 0
AnchorPoint: "top" 719 1456 basechar 0
LayerCount: 2
Fore
SplineSet
428 1293 m 1
 428 803 l 1
 671 803 l 2
 973 803 1050 876 1050 1064 c 0
 1050 1230 969 1305 677 1305 c 0
 607 1305 524 1301 428 1293 c 1
1262 1063 m 0
 1262 838 1140 726 961 679 c 1
 1308 19 l 1
 1308 0 l 1
 1060 0 l 1
 729 652 l 1
 428 651 l 1
 428 0 l 1
 197 0 l 1
 197 1438 l 1
 384 1457 541 1467 673 1467 c 0
 1105 1467 1262 1356 1262 1063 c 0
EndSplineSet
EndChar

StartChar: S
Encoding: 83 83 93
Width: 1223
VWidth: 0
GlyphClass: 2
Flags: HW
PickledData: "(dp1
S'org.pippin.gimp.org.kernagic'
p2
(dp3
S'lstem'
p4
I185
sS'rstem'
p5
I826
ssS'com.typemytype.robofont.guides'
p6
((dp7
S'y'
I973
sS'x'
I1035
sS'magnetic'
p8
I5
sS'angle'
p9
F90
sS'isGlobal'
p10
I00
s(dp11
S'y'
I382
sS'x'
I75
sg8
I5
sg9
F90
sg10
I00
stp12
sS'com.typemytype.robofont.layerData'
p13
(dp14
sS'org.robofab.postScriptHintData'
p15
(dp16
s."
AnchorPoint: "bot" 620 0 basechar 0
AnchorPoint: "top" 620 1471 basechar 0
LayerCount: 2
Fore
SplineSet
886 387 m 0
 886 512 828 552 627 635 c 2
 420 721 l 1
 227 800 112 868 112 1075 c 0
 112 1385 353 1476 617 1476 c 0
 829 1476 997 1389 1086 1272 c 1
 953 1164 l 1
 936 1164 l 1
 868 1255 747 1305 616 1305 c 0
 469 1305 342 1257 342 1103 c 0
 342 995 390 960 544 896 c 1
 742 817 l 2
 974 724 1111 649 1111 390 c 0
 1111 90 859 -20 602 -20 c 0
 358 -20 186 80 105 184 c 1
 236 300 l 1
 253 300 l 1
 339 212 471 157 598 157 c 0
 764 157 886 219 886 387 c 0
EndSplineSet
EndChar

StartChar: T
Encoding: 84 84 99
Width: 1175
VWidth: 0
GlyphClass: 2
Flags: HW
PickledData: "(dp1
S'org.pippin.gimp.org.kernagic'
p2
(dp3
S'lstem'
p4
I285
sS'rstem'
p5
I844
ssS'com.typemytype.robofont.layerData'
p6
(dp7
sS'org.robofab.postScriptHintData'
p8
(dp9
s."
AnchorPoint: "mid" 590 741 basechar 0
AnchorPoint: "bot" 592 0 basechar 0
AnchorPoint: "top" 592 1456 basechar 0
LayerCount: 2
Fore
SplineSet
13 1456 m 1
 1162 1456 l 1
 1162 1291 l 1
 703 1291 l 1
 703 -2 l 1
 471 -2 l 1
 471 1291 l 1
 13 1291 l 1
 13 1456 l 1
EndSplineSet
EndChar

StartChar: Thorn
Encoding: 222 222 104
Width: 1262
VWidth: 0
GlyphClass: 2
Flags: HW
PickledData: "(dp1
S'org.pippin.gimp.org.kernagic'
p2
(dp3
S'lstem'
p4
I0
sS'rstem'
p5
I0
ssS'com.typemytype.robofont.layerData'
p6
(dp7
S'b'
(dp8
S'name'
p9
S'Thorn'
p10
sS'lib'
p11
(dp12
sS'unicodes'
p13
(tsS'width'
p14
I1192
sS'contours'
p15
(tsS'components'
p16
(tsS'anchors'
p17
(tsssS'org.robofab.postScriptHintData'
p18
(dp19
s."
LayerCount: 2
Fore
SplineSet
418 1040 m 1
 418 585 l 1
 574 585 l 2
 815 585 887 653 887 828 c 0
 887 986 798 1040 586 1040 c 2
 418 1040 l 1
186 0 m 1
 186 1486 l 1
 418 1486 l 1
 418 1199 l 1
 581 1199 l 2
 926 1199 1114 1105 1114 834 c 0
 1114 565 977 424 591 424 c 2
 418 424 l 1
 418 0 l 1
 186 0 l 1
EndSplineSet
EndChar

StartChar: U
Encoding: 85 85 105
Width: 1470
VWidth: 0
GlyphClass: 2
Flags: HW
PickledData: "(dp1
S'org.pippin.gimp.org.kernagic'
p2
(dp3
S'lstem'
p4
I0
sS'rstem'
p5
I0
ssS'com.typemytype.robofont.layerData'
p6
(dp7
sS'org.robofab.postScriptHintData'
p8
(dp9
s."
AnchorPoint: "bot" 734 1 basechar 0
AnchorPoint: "ogonek" 858 16 basechar 0
AnchorPoint: "top" 742 1456 basechar 0
LayerCount: 2
Fore
SplineSet
1069 1457 m 1
 1301 1457 l 1
 1301 538 l 2
 1301 209 1122 -20 732 -20 c 0
 339 -20 165 204 165 540 c 2
 165 1457 l 1
 396 1457 l 1
 396 549 l 2
 396 290 492 158 732 158 c 0
 967 158 1069 290 1069 549 c 2
 1069 1457 l 1
EndSplineSet
EndChar

StartChar: V
Encoding: 86 86 116
Width: 1429
VWidth: 0
GlyphClass: 2
Flags: HW
PickledData: "(dp1
S'org.pippin.gimp.org.kernagic'
p2
(dp3
S'lstem'
p4
I0
sS'rstem'
p5
I0
ssS'com.typemytype.robofont.layerData'
p6
(dp7
sS'org.robofab.postScriptHintData'
p8
(dp9
s."
LayerCount: 2
Fore
SplineSet
591 -2 m 1
 63 1456 l 1
 294 1456 l 1
 433 1049 577 647 709 234 c 1
 842 647 988 1049 1128 1456 c 1
 1366 1456 l 1
 820 -2 l 1
 591 -2 l 1
EndSplineSet
EndChar

StartChar: W
Encoding: 87 87 117
Width: 1993
VWidth: 0
GlyphClass: 2
Flags: HW
PickledData: "(dp1
S'org.pippin.gimp.org.kernagic'
p2
(dp3
S'lstem'
p4
I0
sS'rstem'
p5
I0
ssS'com.typemytype.robofont.layerData'
p6
(dp7
sS'org.robofab.postScriptHintData'
p8
(dp9
s."
AnchorPoint: "bot" 998 0 basechar 0
AnchorPoint: "top" 1006 1456 basechar 0
LayerCount: 2
Fore
SplineSet
1003 1148 m 1
 667 0 l 1
 451 0 l 1
 72 1456 l 1
 284 1456 l 1
 573 304 l 1
 899 1432 l 1
 1105 1432 l 1
 1430 295 l 1
 1697 1456 l 1
 1921 1456 l 1
 1543 0 l 1
 1325 0 l 1
 1003 1148 l 1
EndSplineSet
EndChar

StartChar: X
Encoding: 88 88 122
Width: 1317
VWidth: 0
GlyphClass: 2
Flags: HW
PickledData: "(dp1
S'org.pippin.gimp.org.kernagic'
p2
(dp3
S'lstem'
p4
I0
sS'rstem'
p5
I0
ssS'com.typemytype.robofont.layerData'
p6
(dp7
sS'org.robofab.postScriptHintData'
p8
(dp9
s."
LayerCount: 2
Fore
SplineSet
787 731 m 1
 1275 -2 l 1
 1018 -2 l 1
 646 559 l 1
 273 -2 l 1
 35 -2 l 1
 523 744 l 1
 51 1456 l 1
 305 1456 l 1
 667 913 l 1
 1016 1456 l 1
 1264 1456 l 1
 787 731 l 1
EndSplineSet
EndChar

StartChar: Y
Encoding: 89 89 123
Width: 1361
VWidth: 0
GlyphClass: 2
Flags: HW
PickledData: "(dp1
S'org.pippin.gimp.org.kernagic'
p2
(dp3
S'lstem'
p4
I0
sS'rstem'
p5
I0
ssS'com.typemytype.robofont.layerData'
p6
(dp7
sS'org.robofab.postScriptHintData'
p8
(dp9
s."
AnchorPoint: "top" 682 1456 basechar 0
LayerCount: 2
Fore
SplineSet
798 526 m 1
 798 0 l 1
 566 0 l 1
 566 528 l 1
 61 1456 l 1
 288 1456 l 1
 681 733 l 1
 1065 1456 l 1
 1300 1456 l 1
 798 526 l 1
EndSplineSet
EndChar

StartChar: Z
Encoding: 90 90 128
Width: 1205
VWidth: 0
GlyphClass: 2
Flags: HW
PickledData: "(dp1
S'org.pippin.gimp.org.kernagic'
p2
(dp3
S'lstem'
p4
I0
sS'rstem'
p5
I0
ssS'com.typemytype.robofont.layerData'
p6
(dp7
sS'org.robofab.postScriptHintData'
p8
(dp9
s."
AnchorPoint: "bot" 639 0 basechar 0
AnchorPoint: "top" 661 1456 basechar 0
LayerCount: 2
Fore
SplineSet
95 0 m 1
 95 146 l 1
 873 1292 l 1
 126 1292 l 1
 121 1456 l 1
 1124 1456 l 1
 1129 1308 l 1
 362 165 l 1
 1139 165 l 1
 1137 0 l 1
 95 0 l 1
EndSplineSet
EndChar

StartChar: a
Encoding: 97 97 132
Width: 1129
VWidth: 0
GlyphClass: 2
Flags: HW
PickledData: "(dp1
S'org.pippin.gimp.org.kernagic'
p2
(dp3
S'lstem'
p4
I0
sS'rstem'
p5
I0
ssS'com.typemytype.robofont.guides'
p6
(tsS'com.typemytype.robofont.layerData'
p7
(dp8
sS'com.fontlab.hintData'
p9
(dp10
S'vhints'
p11
((dp12
S'position'
p13
I126
sS'width'
p14
I120
s(dp15
g13
I842
sg14
I32
s(dp16
g13
I875
sg14
I86
stp17
sS'hhints'
p18
((dp19
g13
I-15
sg14
I92
s(dp20
g13
I535
sg14
I82
s(dp21
g13
I983
sg14
I92
stp22
ssS'org.robofab.postScriptHintData'
p23
(dp24
s."
HStem: -15 92 535 82 983 92
VStem: 126 120 842 32 875 86
AnchorPoint: "bot" 525 1 basechar 0
AnchorPoint: "ogonek" 899 1 basechar 0
AnchorPoint: "top" 562 1083 basechar 0
LayerCount: 2
Fore
SplineSet
107 296 m 0
 107 502 264 604 549 604 c 2
 557 604 l 1
 771 601 l 1
 771 716 l 2
 771 877 695 945 547 945 c 0
 446 945 308 913 201 847 c 1
 146 999 l 1
 264 1070 419 1105 564 1105 c 0
 810 1105 986 992 986 691 c 2
 986 0 l 1
 812 0 l 1
 794 128 l 1
 711 32 605 -19 454 -19 c 0
 248 -19 107 83 107 296 c 0
494 123 m 0
 618 123 710 178 771 252 c 1
 771 477 l 1
 589 478 l 1
 388 478 309 420 309 296 c 0
 309 171 393 123 494 123 c 0
EndSplineSet
EndChar

StartChar: acute
Encoding: 180 180 136
Width: 744
VWidth: 0
GlyphClass: 4
Flags: HW
PickledData: "(dp1
S'org.robofab.postScriptHintData'
p2
(dp3
sS'com.typemytype.robofont.layerData'
p4
(dp5
s."
AnchorPoint: "top" 384 1082 mark 0
LayerCount: 2
Fore
SplineSet
312 1208 m 1
 504 1591 l 1
 755 1591 l 1
 448 1208 l 1
 312 1208 l 1
EndSplineSet
EndChar

StartChar: ae
Encoding: 230 230 138
Width: 1676
VWidth: 0
GlyphClass: 2
Flags: HW
PickledData: "(dp1
S'org.pippin.gimp.org.kernagic'
p2
(dp3
S'lstem'
p4
I0
sS'rstem'
p5
I0
ssS'com.typemytype.robofont.layerData'
p6
(dp7
sS'com.fontlab.hintData'
p8
(dp9
S'vhints'
p10
((dp11
S'position'
p12
I126
sS'width'
p13
I119
s(dp14
g12
I817
sg13
I117
s(dp15
g12
I817
sg13
I82
s(dp16
g12
I1556
sg13
I98
stp17
sS'hhints'
p18
((dp19
g12
I-14
sg13
I98
s(dp20
g12
I518
sg13
I82
s(dp21
g12
I983
sg13
I92
stp22
ssS'org.robofab.postScriptHintData'
p23
(dp24
s."
HStem: -14 98 518 82 983 92
VStem: 126 119 817 117 817 82 1556 98
AnchorPoint: "top" 968 1082 basechar 0
LayerCount: 2
Fore
SplineSet
1604 764 m 0
 1604 516 1405 463 1129 463 c 0
 1066 463 999 466 929 470 c 1
 948 212 1081 134 1254 134 c 0
 1382 134 1469 175 1557 227 c 1
 1610 92 l 1
 1521 27 1386 -20 1228 -20 c 0
 1035 -20 903 57 828 192 c 1
 740 36 566 -19 391 -19 c 1
 196 -12 63 90 63 296 c 0
 63 504 203 627 494 627 c 0
 533 627 665 624 732 616 c 1
 732 713 l 2
 732 882 657 942 510 942 c 0
 410 942 280 914 156 839 c 1
 87 973 l 1
 221 1057 352 1102 519 1102 c 0
 693 1102 815 1046 858 906 c 1
 936 1043 1062 1102 1219 1102 c 0
 1477 1102 1604 942 1604 764 c 0
740 342 m 1
 736 352 732 482 732 490 c 1
 669 497 561 501 526 501 c 0
 325 501 265 420 265 296 c 0
 265 164 371 122 456 122 c 0
 620 122 731 208 740 342 c 1
1223 951 m 0
 1057 951 945 843 931 608 c 1
 998 603 1056 601 1106 601 c 0
 1397 601 1428 677 1428 760 c 0
 1428 864 1377 951 1223 951 c 0
EndSplineSet
EndChar

StartChar: ampersand
Encoding: 38 38 143
Width: 1420
VWidth: 0
GlyphClass: 2
Flags: HW
PickledData: "(dp1
S'org.pippin.gimp.org.kernagic'
p2
(dp3
S'lstem'
p4
I0
sS'rstem'
p5
I0
ssS'com.typemytype.robofont.layerData'
p6
(dp7
sS'com.fontlab.hintData'
p8
(dp9
S'vhints'
p10
((dp11
S'position'
p12
I135
sS'width'
p13
I121
s(dp14
g12
I312
sg13
I105
s(dp15
g12
I917
sg13
I110
stp16
sS'hhints'
p17
((dp18
g12
I-19
sg13
I96
s(dp19
g12
I1372
sg13
I96
stp20
ssS'org.robofab.postScriptHintData'
p21
(dp22
s."
HStem: -19 96 1372 96
VStem: 135 121 312 105 917 110
LayerCount: 2
Fore
SplineSet
583 137 m 0
 701 137 802 177 904 276 c 1
 493 694 l 1
 377 632 285 548 285 407 c 0
 285 238 395 137 583 137 c 0
94 403 m 0
 94 610 222 713 398 807 c 1
 288 921 226 1038 226 1164 c 0
 226 1367 393 1493 607 1493 c 0
 806 1493 974 1393 974 1181 c 0
 974 983 802 870 632 778 c 1
 1009 397 l 1
 1078 490 1150 611 1231 766 c 1
 1356 682 l 1
 1296 568 1224 416 1121 283 c 1
 1314 87 l 1
 1199 -25 l 1
 1013 164 l 1
 899 57 754 -19 563 -19 c 0
 279 -19 94 145 94 403 c 0
610 1351 m 0
 493 1351 403 1283 403 1173 c 0
 403 1080 436 1006 541 882 c 1
 672 951 796 1039 796 1176 c 0
 796 1289 729 1351 610 1351 c 0
EndSplineSet
EndChar

StartChar: apostrophemod
Encoding: 700 700 145
Width: 646
VWidth: 0
GlyphClass: 2
Flags: HW
PickledData: "(dp1
S'org.robofab.postScriptHintData'
p2
(dp3
sS'com.typemytype.robofont.layerData'
p4
(dp5
s."
LayerCount: 2
Fore
SplineSet
102 1142 m 1
 102 1142 158 1531 164 1586 c 1
 372 1586 l 1
 352 1477 264 1142 264 1142 c 1
 102 1142 l 1
EndSplineSet
EndChar

StartChar: approxequal
Encoding: 8776 8776 146
Width: 1181
VWidth: 0
GlyphClass: 2
Flags: HW
PickledData: "(dp1
S'org.pippin.gimp.org.kernagic'
p2
(dp3
S'lstem'
p4
I0
sS'rstem'
p5
I0
ssS'com.typemytype.robofont.layerData'
p6
(dp7
S'b'
(dp8
S'name'
p9
S'approxequal'
p10
sS'lib'
p11
(dp12
sS'unicodes'
p13
(tsS'width'
p14
I1136
sS'contours'
p15
(tsS'components'
p16
(tsS'anchors'
p17
(tsssS'org.robofab.postScriptHintData'
p18
(dp19
s."
LayerCount: 2
Fore
SplineSet
157 762 m 1
 84 851 l 1
 126 980 215 1075 357 1075 c 0
 441 1075 501 1049 604 999 c 0
 693 958 767 921 826 921 c 0
 902 921 977 983 1017 1079 c 1
 1090 996 l 1
 1043 859 970 771 827 771 c 0
 748 771 672 802 573 851 c 0
 488 890 420 924 355 924 c 0
 268 924 196 854 157 762 c 1
157 406 m 1
 84 495 l 1
 126 624 215 719 357 719 c 0
 441 719 501 693 604 643 c 0
 693 602 767 565 826 565 c 0
 902 565 977 627 1017 723 c 1
 1090 640 l 1
 1043 503 970 415 827 415 c 0
 748 415 672 446 573 495 c 0
 488 534 420 568 355 568 c 0
 268 568 196 498 157 406 c 1
EndSplineSet
EndChar

StartChar: asciicircum
Encoding: 94 94 149
Width: 1337
VWidth: 0
GlyphClass: 2
Flags: HW
PickledData: "(dp1
S'org.pippin.gimp.org.kernagic'
p2
(dp3
S'lstem'
p4
I0
sS'rstem'
p5
I0
ssS'com.typemytype.robofont.layerData'
p6
(dp7
sS'org.robofab.postScriptHintData'
p8
(dp9
s."
LayerCount: 2
Fore
SplineSet
616 1456 m 1
 713 1456 l 1
 1242 292 l 1
 1027 292 l 1
 667 1120 l 1
 309 292 l 1
 95 292 l 1
 616 1456 l 1
EndSplineSet
EndChar

StartChar: asciitilde
Encoding: 126 126 150
Width: 1192
VWidth: 0
GlyphClass: 2
Flags: HW
PickledData: "(dp1
S'org.pippin.gimp.org.kernagic'
p2
(dp3
S'lstem'
p4
I0
sS'rstem'
p5
I0
ssS'com.typemytype.robofont.layerData'
p6
(dp7
S'b'
(dp8
S'name'
p9
S'asciitilde'
p10
sS'lib'
p11
(dp12
sS'unicodes'
p13
(tsS'width'
p14
I1192
sS'contours'
p15
(tsS'components'
p16
(tsS'anchors'
p17
(tsssS'org.robofab.postScriptHintData'
p18
(dp19
s."
LayerCount: 2
Fore
SplineSet
152 485 m 1
 96 599 l 1
 143 708 229 796 363 796 c 0
 443 796 509 772 604 729 c 0
 696 689 772 653 830 653 c 0
 909 653 984 716 1035 804 c 1
 1093 698 l 1
 1044 581 953 498 824 498 c 0
 747 498 675 527 591 566 c 0
 497 609 428 641 358 641 c 0
 271 641 196 569 152 485 c 1
EndSplineSet
EndChar

StartChar: asterisk
Encoding: 42 42 151
Width: 967
VWidth: 0
GlyphClass: 2
Flags: HW
PickledData: "(dp1
S'org.pippin.gimp.org.kernagic'
p2
(dp3
S'lstem'
p4
I0
sS'rstem'
p5
I0
ssS'com.typemytype.robofont.layerData'
p6
(dp7
sS'org.robofab.postScriptHintData'
p8
(dp9
s."
LayerCount: 2
Fore
SplineSet
307 566 m 1
 150 661 l 1
 383 973 l 1
 41 1051 l 1
 92 1227 l 1
 428 1085 l 1
 394 1474 l 1
 579 1474 l 1
 544 1085 l 1
 883 1227 l 1
 933 1051 l 1
 587 973 l 1
 627 921 759 746 825 661 c 1
 785 635 711 591 670 565 c 1
 483 902 l 1
 307 566 l 1
EndSplineSet
EndChar

StartChar: at
Encoding: 64 64 152
Width: 1957
VWidth: 0
GlyphClass: 2
Flags: HW
PickledData: "(dp1
S'org.pippin.gimp.org.kernagic'
p2
(dp3
S'lstem'
p4
I0
sS'rstem'
p5
I0
ssS'com.typemytype.robofont.layerData'
p6
(dp7
sS'org.robofab.postScriptHintData'
p8
(dp9
s."
LayerCount: 2
Fore
SplineSet
958 -181 m 0
 479 -181 148 124 148 632 c 0
 148 1131 519 1507 1026 1507 c 0
 1464 1507 1803 1219 1803 770 c 0
 1803 414 1595 232 1417 232 c 1
 1352 291 1207 315 1177 450 c 1
 1128 331 1032 226 894 226 c 0
 689 226 580 387 580 590 c 0
 580 844 739 1107 1033 1107 c 0
 1144 1107 1281 1072 1364 1029 c 1
 1335 821 1298 631 1298 505 c 0
 1298 424 1349 368 1417 368 c 0
 1526 368 1645 506 1645 778 c 0
 1645 1099 1442 1363 1019 1363 c 0
 588 1363 324 1034 324 628 c 0
 324 240 552 -36 961 -36 c 0
 1129 -36 1302 -5 1438 79 c 1
 1486 -40 l 1
 1357 -132 1155 -181 958 -181 c 0
911 360 m 0
 1054 360 1104 502 1137 712 c 1
 1178 964 l 1
 1136 973 1077 981 1049 981 c 0
 870 981 750 809 750 592 c 0
 750 448 798 360 911 360 c 0
EndSplineSet
EndChar

StartChar: b
Encoding: 98 98 154
Width: 1222
VWidth: 0
GlyphClass: 2
Flags: HW
PickledData: "(dp1
S'org.pippin.gimp.org.kernagic'
p2
(dp3
S'lstem'
p4
I0
sS'rstem'
p5
I0
ssS'com.typemytype.robofont.guides'
p6
(tsS'com.typemytype.robofont.layerData'
p7
(dp8
sS'com.fontlab.hintData'
p9
(dp10
S'vhints'
p11
((dp12
S'position'
p13
I193
sS'width'
p14
I125
s(dp15
g13
I193
sg14
I94
s(dp16
g13
I1018
sg14
I122
stp17
sS'hhints'
p18
((dp19
g13
I-19
sg14
I92
s(dp20
g13
I982
sg14
I92
stp21
ssS'org.robofab.postScriptHintData'
p22
(dp23
s."
HStem: -19 92 982 92
VStem: 193 125 193 94 1018 122
AnchorPoint: "top" 683 1082 basechar 0
LayerCount: 2
Fore
SplineSet
689 1105 m 0
 982 1105 1116 869 1116 544 c 0
 1116 207 954 -20 659 -20 c 0
 514 -20 411 43 350 120 c 1
 339 0 l 1
 157 0 l 1
 157 1540 l 1
 373 1560 l 1
 373 1117 l 1
 365 888 l 1
 432 1047 554 1105 689 1105 c 0
633 134 m 0
 810 134 895 283 895 543 c 0
 895 795 831 951 651 951 c 0
 460 951 368 809 368 560 c 2
 368 258 l 1
 428 176 518 134 633 134 c 0
EndSplineSet
EndChar

StartChar: backslash
Encoding: 92 92 155
Width: 937
VWidth: 0
GlyphClass: 2
Flags: HW
PickledData: "(dp1
S'org.pippin.gimp.org.kernagic'
p2
(dp3
S'lstem'
p4
I0
sS'rstem'
p5
I0
ssS'com.typemytype.robofont.layerData'
p6
(dp7
S'b'
(dp8
S'name'
p9
S'backslash'
p10
sS'lib'
p11
(dp12
sS'unicodes'
p13
(tsS'width'
p14
I937
sS'contours'
p15
(tsS'components'
p16
(tsS'anchors'
p17
(tsssS'org.robofab.postScriptHintData'
p18
(dp19
s."
LayerCount: 2
Fore
SplineSet
621 -10 m 1
 96 1485 l 1
 262 1485 l 1
 785 -10 l 1
 621 -10 l 1
EndSplineSet
EndChar

StartChar: bar
Encoding: 124 124 156
Width: 697
VWidth: 0
GlyphClass: 2
Flags: HW
PickledData: "(dp1
S'org.pippin.gimp.org.kernagic'
p2
(dp3
S'lstem'
p4
I0
sS'rstem'
p5
I0
ssS'com.typemytype.robofont.layerData'
p6
(dp7
S'b'
(dp8
S'name'
p9
S'bar'
p10
sS'lib'
p11
(dp12
sS'unicodes'
p13
(tsS'width'
p14
I681
sS'contours'
p15
(tsS'components'
p16
(tsS'anchors'
p17
(tsssS'org.robofab.postScriptHintData'
p18
(dp19
s."
LayerCount: 2
Fore
SplineSet
265 1476 m 1
 427 1476 l 1
 427 -325 l 1
 265 -325 l 1
 265 1476 l 1
EndSplineSet
EndChar

StartChar: braceleft
Encoding: 123 123 157
Width: 882
VWidth: 0
GlyphClass: 2
Flags: HW
PickledData: "(dp1
S'org.pippin.gimp.org.kernagic'
p2
(dp3
S'lstem'
p4
I0
sS'rstem'
p5
I0
ssS'com.typemytype.robofont.layerData'
p6
(dp7
sS'org.robofab.postScriptHintData'
p8
(dp9
s."
LayerCount: 2
Fore
SplineSet
753 -273 m 1
 479 -273 395 -228 395 52 c 2
 395 272 l 2
 395 464 393 537 191 537 c 1
 191 698 l 1
 391 698 395 770 395 963 c 2
 395 1184 l 2
 395 1463 479 1509 753 1509 c 1
 753 1369 l 1
 608 1368 589 1343 589 1154 c 2
 589 891 l 2
 589 732 551 646 390 617 c 1
 551 588 589 502 589 343 c 2
 589 82 l 2
 589 -107 608 -132 753 -133 c 1
 753 -273 l 1
EndSplineSet
EndChar

StartChar: braceright
Encoding: 125 125 158
Width: 882
VWidth: 0
GlyphClass: 2
Flags: HW
PickledData: "(dp1
S'org.pippin.gimp.org.kernagic'
p2
(dp3
S'lstem'
p4
I0
sS'rstem'
p5
I0
ssS'com.typemytype.robofont.layerData'
p6
(dp7
sS'org.robofab.postScriptHintData'
p8
(dp9
s."
LayerCount: 2
Fore
SplineSet
134 -273 m 1
 134 -133 l 1
 279 -132 298 -107 298 82 c 2
 298 343 l 2
 298 502 336 588 497 617 c 1
 336 646 298 732 298 891 c 2
 298 1154 l 2
 298 1343 279 1368 134 1369 c 1
 134 1509 l 1
 408 1509 492 1463 492 1184 c 2
 492 963 l 2
 492 770 496 698 696 698 c 1
 696 537 l 1
 494 537 492 464 492 272 c 2
 492 52 l 2
 492 -228 408 -273 134 -273 c 1
EndSplineSet
EndChar

StartChar: bracketleft
Encoding: 91 91 159
Width: 823
VWidth: 0
GlyphClass: 2
Flags: HW
PickledData: "(dp1
S'org.pippin.gimp.org.kernagic'
p2
(dp3
S'lstem'
p4
I0
sS'rstem'
p5
I0
ssS'com.typemytype.robofont.layerData'
p6
(dp7
sS'org.robofab.postScriptHintData'
p8
(dp9
s."
LayerCount: 2
Fore
SplineSet
220 -254 m 1
 220 1478 l 1
 679 1478 l 1
 679 1334 l 1
 416 1334 l 1
 416 -109 l 1
 679 -109 l 1
 679 -254 l 1
 220 -254 l 1
EndSplineSet
EndChar

StartChar: bracketright
Encoding: 93 93 160
Width: 965
VWidth: 0
GlyphClass: 2
Flags: HW
PickledData: "(dp1
S'org.pippin.gimp.org.kernagic'
p2
(dp3
S'lstem'
p4
I0
sS'rstem'
p5
I0
ssS'com.typemytype.robofont.layerData'
p6
(dp7
sS'org.robofab.postScriptHintData'
p8
(dp9
s."
LayerCount: 2
Fore
SplineSet
290 -254 m 1
 290 -109 l 1
 553 -109 l 1
 553 1334 l 1
 290 1334 l 1
 290 1478 l 1
 749 1478 l 1
 749 -254 l 1
 290 -254 l 1
EndSplineSet
EndChar

StartChar: breve
Encoding: 728 728 161
Width: 886
VWidth: 0
GlyphClass: 4
Flags: HW
PickledData: "(dp1
S'org.robofab.postScriptHintData'
p2
(dp3
sS'com.typemytype.robofont.layerData'
p4
(dp5
s."
AnchorPoint: "top" 431 1069 mark 0
LayerCount: 2
Fore
SplineSet
428 1294 m 0
 281 1294 173 1378 173 1544 c 1
 305 1544 l 1
 305 1461 365 1421 428 1421 c 0
 492 1421 555 1461 555 1544 c 1
 684 1544 l 1
 684 1379 575 1294 428 1294 c 0
EndSplineSet
EndChar

StartChar: breveinvertedcomb
Encoding: 785 785 162
Width: 812
VWidth: 0
GlyphClass: 4
Flags: HW
PickledData: "(dp1
S'org.robofab.postScriptHintData'
p2
(dp3
sS'com.typemytype.robofont.layerData'
p4
(dp5
s."
AnchorPoint: "top" 419 1069 mark 0
LayerCount: 2
Fore
SplineSet
159 1294 m 1
 159 1460 267 1544 414 1544 c 0
 562 1544 671 1460 671 1294 c 1
 542 1294 l 1
 542 1378 478 1417 414 1417 c 0
 351 1417 291 1378 291 1294 c 1
 159 1294 l 1
EndSplineSet
EndChar

StartChar: brokenbar
Encoding: 166 166 163
Width: 683
VWidth: 0
GlyphClass: 2
Flags: HW
PickledData: "(dp1
S'org.pippin.gimp.org.kernagic'
p2
(dp3
S'lstem'
p4
I0
sS'rstem'
p5
I0
ssS'com.typemytype.robofont.layerData'
p6
(dp7
S'b'
(dp8
S'name'
p9
S'brokenbar'
p10
sS'lib'
p11
(dp12
sS'unicodes'
p13
(tsS'width'
p14
I653
sS'contours'
p15
(tsS'components'
p16
(tsS'anchors'
p17
(tsssS'org.robofab.postScriptHintData'
p18
(dp19
s."
LayerCount: 2
Fore
SplineSet
264 484 m 1
 416 484 l 1
 416 -258 l 1
 264 -258 l 1
 264 484 l 1
264 1545 m 1
 416 1545 l 1
 416 806 l 1
 264 806 l 1
 264 1545 l 1
EndSplineSet
EndChar

StartChar: bullet
Encoding: 8226 8226 164
Width: 923
VWidth: 0
GlyphClass: 2
Flags: HW
PickledData: "(dp1
S'org.pippin.gimp.org.kernagic'
p2
(dp3
S'lstem'
p4
I0
sS'rstem'
p5
I0
ssS'com.typemytype.robofont.layerData'
p6
(dp7
S'b'
(dp8
S'name'
p9
S'bullet'
p10
sS'lib'
p11
(dp12
sS'unicodes'
p13
(tsS'width'
p14
I908
sS'contours'
p15
(tsS'components'
p16
(tsS'anchors'
p17
(tsssS'org.robofab.postScriptHintData'
p18
(dp19
s."
LayerCount: 2
Fore
SplineSet
450 395 m 0
 275 395 127 522 127 728 c 0
 127 935 281 1066 456 1066 c 0
 630 1066 779 939 779 733 c 0
 779 526 626 395 450 395 c 0
EndSplineSet
EndChar

StartChar: c
Encoding: 99 99 165
Width: 1088
VWidth: 0
GlyphClass: 2
Flags: HW
PickledData: "(dp1
S'org.pippin.gimp.org.kernagic'
p2
(dp3
S'lstem'
p4
I0
sS'rstem'
p5
I696
ssS'com.typemytype.robofont.guides'
p6
((dp7
S'y'
I417
sS'x'
I962
sS'magnetic'
p8
I5
sS'angle'
p9
F90
sS'isGlobal'
p10
I00
s(dp11
S'y'
I1020
sS'x'
I565
sg8
I5
sg9
F90
sg10
I00
s(dp12
S'y'
I994
sS'x'
I572
sg8
I5
sg9
F90
sg10
I00
stp13
sS'com.typemytype.robofont.layerData'
p14
(dp15
sS'com.fontlab.hintData'
p16
(dp17
S'vhints'
p18
((dp19
S'position'
p20
I128
sS'width'
p21
I120
stp22
sS'hhints'
p23
((dp24
g20
I-19
sg21
I92
s(dp25
g20
I982
sg21
I92
stp26
ssS'org.robofab.postScriptHintData'
p27
(dp28
s."
HStem: -19 92 982 92
VStem: 128 120
AnchorPoint: "bot" 607 1 basechar 0
AnchorPoint: "top" 619 1083 basechar 0
LayerCount: 2
Fore
SplineSet
863 289 m 1
 876 289 l 1
 1011 217 l 1
 958 92 845 -20 613 -20 c 0
 303 -20 106 197 106 543 c 0
 106 888 303 1105 613 1105 c 0
 845 1105 957 993 1011 869 c 1
 877 794 l 1
 864 794 l 1
 819 883 748 947 622 948 c 0
 434 948 327 802 327 543 c 0
 327 284 433 138 620 138 c 2
 622 138 l 2
 748 138 818 200 863 289 c 1
EndSplineSet
EndChar

StartChar: caron
Encoding: 711 711 167
Width: 911
VWidth: 0
GlyphClass: 4
Flags: HW
PickledData: "(dp1
S'org.robofab.postScriptHintData'
p2
(dp3
sS'com.typemytype.robofont.layerData'
p4
(dp5
s."
AnchorPoint: "top" 448 1082 mark 0
LayerCount: 2
Fore
SplineSet
327 1245 m 1
 126 1602 l 1
 307 1602 l 1
 435 1378 l 1
 562 1602 l 1
 742 1602 l 1
 542 1245 l 1
 327 1245 l 1
EndSplineSet
EndChar

StartChar: caron.alt
Encoding: 65537 -1 168
Width: 710
VWidth: 0
GlyphClass: 4
Flags: HW
PickledData: "(dp1
S'org.robofab.postScriptHintData'
p2
(dp3
sS'com.typemytype.robofont.layerData'
p4
(dp5
s."
AnchorPoint: "caron.alt" 177 1082 mark 0
LayerCount: 2
Fore
SplineSet
438 1151 m 1
 467 1546 l 1
 661 1546 l 1
 584 1151 l 1
 438 1151 l 1
EndSplineSet
EndChar

StartChar: cedilla
Encoding: 184 184 173
Width: 700
VWidth: 0
GlyphClass: 4
Flags: HW
PickledData: "(dp1
S'org.robofab.postScriptHintData'
p2
(dp3
sS'com.typemytype.robofont.layerData'
p4
(dp5
s."
AnchorPoint: "bot" 424 13 mark 0
LayerCount: 2
Fore
SplineSet
373 -406 m 0
 318 -406 263 -394 212 -371 c 1
 245 -280 l 1
 286 -297 327 -305 363 -305 c 0
 442 -305 504 -267 504 -200 c 0
 504 -156 482 -111 401 -111 c 0
 386 -111 368 -113 349 -116 c 1
 349 -60 l 1
 386 -46 422 -39 456 -39 c 0
 551 -39 625 -94 625 -203 c 0
 625 -329 516 -406 373 -406 c 0
EndSplineSet
EndChar

StartChar: cent
Encoding: 162 162 174
Width: 1088
VWidth: 0
GlyphClass: 2
Flags: HW
PickledData: "(dp1
S'org.pippin.gimp.org.kernagic'
p2
(dp3
S'lstem'
p4
I0
sS'rstem'
p5
I0
ssS'com.typemytype.robofont.layerData'
p6
(dp7
sS'org.robofab.postScriptHintData'
p8
(dp9
s."
LayerCount: 2
Fore
SplineSet
553 1383 m 1
 674 1383 l 1
 669.725955266 1102.62266544 l 1
 863.664336053 1085.82749993 961.600941325 982.434875475 1011 869 c 1
 877 794 l 1
 864 794 l 1
 819 883 748 947 622 948 c 0
 434 948 327 802 327 543 c 0
 327 284 433 138 620 138 c 2
 622 138 l 2
 748 138 818 200 863 289 c 1
 876 289 l 1
 1011 217 l 1
 962.918626443 103.600534065 865.457007609 0.900121272865 674.564221751 -17.1852849377 c 1
 662 -307 l 1
 542 -307 l 1
 543.680880543 -16.2076661404 l 1
 273.930695339 14.0572137845 106 223.54622187 106 543 c 0
 106 861.817892446 274.233859804 1071.32647497 544.411267807 1101.28958408 c 1
 553 1383 l 1
EndSplineSet
EndChar

StartChar: circumflex
Encoding: 710 710 175
Width: 895
VWidth: 0
GlyphClass: 4
Flags: HW
PickledData: "(dp1
S'org.robofab.postScriptHintData'
p2
(dp3
sS'com.typemytype.robofont.layerData'
p4
(dp5
s."
AnchorPoint: "top" 437 1082 mark 0
LayerCount: 2
Fore
SplineSet
125 1262 m 1
 325 1619 l 1
 541 1619 l 1
 741 1262 l 1
 561 1262 l 1
 433 1486 l 1
 306 1262 l 1
 125 1262 l 1
EndSplineSet
EndChar

StartChar: colon
Encoding: 58 58 176
Width: 668
VWidth: 0
GlyphClass: 2
Flags: HW
PickledData: "(dp1
S'org.pippin.gimp.org.kernagic'
p2
(dp3
S'lstem'
p4
I0
sS'rstem'
p5
I0
ssS'com.typemytype.robofont.layerData'
p6
(dp7
S'b'
(dp8
S'name'
p9
S'colon'
p10
sS'lib'
p11
(dp12
sS'unicodes'
p13
(tsS'width'
p14
I653
sS'contours'
p15
(tsS'components'
p16
(tsS'anchors'
p17
(tsssS'org.robofab.postScriptHintData'
p18
(dp19
s."
LayerCount: 2
Fore
SplineSet
333 824 m 0
 248 824 198 882 198 957 c 0
 198 1031 247 1092 333 1092 c 0
 418 1092 465 1031 465 957 c 0
 465 882 418 824 333 824 c 0
333 -9 m 0
 248 -9 198 49 198 124 c 0
 198 198 247 259 333 259 c 0
 418 259 465 198 465 124 c 0
 465 49 418 -9 333 -9 c 0
EndSplineSet
EndChar

StartChar: comma
Encoding: 44 44 177
Width: 639
VWidth: 0
GlyphClass: 2
Flags: HW
PickledData: "(dp1
S'org.pippin.gimp.org.kernagic'
p2
(dp3
S'lstem'
p4
I0
sS'rstem'
p5
I0
ssS'com.typemytype.robofont.layerData'
p6
(dp7
sS'org.robofab.postScriptHintData'
p8
(dp9
s."
LayerCount: 2
Fore
SplineSet
192 -314 m 1
 192 -314 231 230 231 248 c 1
 438 248 l 1
 438 139 l 1
 319 -314 l 1
 192 -314 l 1
EndSplineSet
EndChar

StartChar: commaaccent
Encoding: 806 806 178
Width: 613
VWidth: 0
GlyphClass: 4
Flags: HW
PickledData: "(dp1
S'org.robofab.postScriptHintData'
p2
(dp3
s."
AnchorPoint: "bot" 332 0 mark 0
LayerCount: 2
Fore
SplineSet
180 -529 m 1
 180 -529 234 -184 234 -128 c 1
 429 -128 l 1
 431 -162 322 -529 322 -529 c 1
 180 -529 l 1
EndSplineSet
EndChar

StartChar: commaturnedabovecomb
Encoding: 786 786 179
Width: 600
VWidth: 0
GlyphClass: 4
Flags: HW
PickledData: "(dp1
S'org.robofab.postScriptHintData'
p2
(dp3
s."
AnchorPoint: "top" 295 1069 mark 0
LayerCount: 2
Fore
SplineSet
187 1302 m 1
 187 1339 300 1785 300 1785 c 1
 438 1785 l 1
 438 1785 399 1337 399 1281 c 1
 182 1281 l 1
 187 1302 l 1
EndSplineSet
EndChar

StartChar: copyright
Encoding: 169 169 180
Width: 1728
VWidth: 0
GlyphClass: 2
Flags: HW
PickledData: "(dp1
S'org.pippin.gimp.org.kernagic'
p2
(dp3
S'lstem'
p4
I0
sS'rstem'
p5
I0
ssS'com.typemytype.robofont.layerData'
p6
(dp7
sS'org.robofab.postScriptHintData'
p8
(dp9
s."
LayerCount: 2
Fore
SplineSet
810 239 m 0
 556 239 333 430 333 729 c 0
 333 1021 552 1218 804 1218 c 0
 906 1218 1004 1189 1091 1132 c 1
 1047 1035 l 1
 973 1084 883 1108 811 1108 c 0
 625 1108 474 960 474 732 c 0
 474 490 626 348 817 348 c 0
 895 348 973 366 1056 416 c 1
 1094 320 l 1
 1008 266 910 239 810 239 c 0
790 75 m 0
 1126 75 1437 318 1437 728 c 0
 1437 1138 1126 1379 790 1379 c 0
 455 1379 147 1138 147 728 c 0
 147 317 455 75 790 75 c 0
790 -30 m 0
 397 -30 29 250 29 728 c 0
 29 1207 397 1486 790 1486 c 0
 1185 1486 1561 1207 1561 728 c 0
 1561 250 1186 -30 790 -30 c 0
EndSplineSet
EndChar

StartChar: currency
Encoding: 164 164 181
Width: 1149
VWidth: 0
GlyphClass: 2
Flags: HW
PickledData: "(dp1
S'org.pippin.gimp.org.kernagic'
p2
(dp3
S'lstem'
p4
I0
sS'rstem'
p5
I0
ssS'com.typemytype.robofont.layerData'
p6
(dp7
S'b'
(dp8
S'name'
p9
S'currency'
p10
sS'lib'
p11
(dp12
sS'unicodes'
p13
(tsS'width'
p14
I1164
sS'contours'
p15
(tsS'components'
p16
(tsS'anchors'
p17
(tsssS'org.robofab.postScriptHintData'
p18
(dp19
s."
LayerCount: 2
Fore
SplineSet
826 1053 m 1
 1007 1227 l 1
 1080 1148 l 1
 901 972 l 1
 951 898 978 815 978 726 c 0
 978 635 952 552 902 481 c 1
 1079 305 l 1
 1007 226 l 1
 826 400 l 1
 756 343 669 311 573 311 c 0
 476 311 390 342 319 400 c 1
 141 227 l 1
 65 305 l 1
 245 481 l 1
 195 552 168 636 168 726 c 0
 168 816 194 899 245 972 c 1
 64 1150 l 1
 141 1227 l 1
 319 1054 l 1
 389 1111 478 1144 573 1144 c 0
 669 1144 756 1111 826 1053 c 1
865 726 m 0
 865 892 747 1033 573 1033 c 0
 400 1033 282 892 282 726 c 0
 282 560 400 422 573 422 c 0
 749 422 865 560 865 726 c 0
EndSplineSet
EndChar

StartChar: d
Encoding: 100 100 182
Width: 1216
VWidth: 0
GlyphClass: 2
Flags: HW
PickledData: "(dp1
S'org.pippin.gimp.org.kernagic'
p2
(dp3
S'lstem'
p4
I0
sS'rstem'
p5
I0
ssS'com.typemytype.robofont.layerData'
p6
(dp7
sS'com.fontlab.hintData'
p8
(dp9
S'vhints'
p10
((dp11
S'position'
p12
I114
sS'width'
p13
I166
s(dp14
g12
I907
sg13
I161
s(dp15
g12
I930
sg13
I138
stp16
sS'hhints'
p17
((dp18
g12
I-19
sg13
I127
s(dp19
g12
I953
sg13
I127
stp20
ssS'org.robofab.postScriptHintData'
p21
(dp22
s."
HStem: -19 127 953 127
VStem: 114 166 907 161 930 138
AnchorPoint: "mid" 958 1307 basechar 0
AnchorPoint: "caron.alt" 1109 1180 basechar 0
AnchorPoint: "top" 518 1082 basechar 0
LayerCount: 2
Fore
SplineSet
568 1103 m 0
 571 1103 574 1103 577 1103 c 0
 704 1103 796 1054 855 989 c 1
 850 1150 l 1
 850 1540 l 1
 1071 1560 l 1
 1071 0 l 1
 882 0 l 1
 872 134 l 1
 801 37 688 -20 567 -20 c 0
 266 -20 107 212 107 542 c 0
 107 879 275 1103 568 1103 c 0
600 134 m 0
 706 134 797 171 855 245 c 1
 855 835 l 1
 803 908 712 951 602 951 c 0
 425 951 329 814 329 544 c 0
 329 275 420 134 600 134 c 0
EndSplineSet
EndChar

StartChar: dagger
Encoding: 8224 8224 183
Width: 1080
VWidth: 0
GlyphClass: 2
Flags: HW
PickledData: "(dp1
S'org.pippin.gimp.org.kernagic'
p2
(dp3
S'lstem'
p4
I0
sS'rstem'
p5
I0
ssS'com.typemytype.robofont.layerData'
p6
(dp7
S'b'
(dp8
S'name'
p9
S'dagger'
p10
sS'lib'
p11
(dp12
sS'unicodes'
p13
(tsS'width'
p14
I1050
sS'contours'
p15
(tsS'components'
p16
(tsS'anchors'
p17
(tsssS'org.robofab.postScriptHintData'
p18
(dp19
s."
LayerCount: 2
Fore
SplineSet
452 1485 m 1
 620 1485 l 1
 620 1104 l 1
 920 1104 l 1
 920 974 l 1
 619 974 l 1
 619 56 l 1
 452 56 l 1
 452 974 l 1
 160 974 l 1
 160 1104 l 1
 452 1104 l 1
 452 1485 l 1
EndSplineSet
EndChar

StartChar: daggerdbl
Encoding: 8225 8225 184
Width: 1052
VWidth: 0
GlyphClass: 2
Flags: HW
PickledData: "(dp1
S'org.pippin.gimp.org.kernagic'
p2
(dp3
S'lstem'
p4
I0
sS'rstem'
p5
I0
ssS'com.typemytype.robofont.layerData'
p6
(dp7
S'b'
(dp8
S'name'
p9
S'daggerdbl'
p10
sS'lib'
p11
(dp12
sS'unicodes'
p13
(tsS'width'
p14
I1022
sS'contours'
p15
(tsS'components'
p16
(tsS'anchors'
p17
(tsssS'org.robofab.postScriptHintData'
p18
(dp19
s."
LayerCount: 2
Fore
SplineSet
449 1470 m 1
 617 1470 l 1
 617 1088 l 1
 905 1088 l 1
 905 959 l 1
 620 959 l 1
 620 553 l 1
 904 553 l 1
 904 428 l 1
 618 428 l 1
 618 15 l 1
 449 15 l 1
 449 428 l 1
 165 428 l 1
 165 553 l 1
 449 553 l 1
 449 959 l 1
 165 959 l 1
 165 1088 l 1
 449 1088 l 1
 449 1470 l 1
EndSplineSet
EndChar

StartChar: dblgravecomb
Encoding: 783 783 185
Width: 934
VWidth: 0
GlyphClass: 4
Flags: HW
PickledData: "(dp1
S'org.robofab.postScriptHintData'
p2
(dp3
sS'com.typemytype.robofont.layerData'
p4
(dp5
s."
AnchorPoint: "top" 503 1069 mark 0
LayerCount: 2
Fore
SplineSet
292 1250 m 1
 56 1611 l 1
 263 1611 l 1
 411 1250 l 1
 292 1250 l 1
586 1250 m 1
 385 1611 l 1
 572 1611 l 1
 709 1250 l 1
 586 1250 l 1
EndSplineSet
EndChar

StartChar: degree
Encoding: 176 176 188
Width: 866
VWidth: 0
GlyphClass: 2
Flags: HW
PickledData: "(dp1
S'org.pippin.gimp.org.kernagic'
p2
(dp3
S'lstem'
p4
I0
sS'rstem'
p5
I0
ssS'com.typemytype.robofont.layerData'
p6
(dp7
sS'org.robofab.postScriptHintData'
p8
(dp9
s."
LayerCount: 2
Fore
SplineSet
428 1005 m 0
 526 1005 607 1078 607 1191 c 0
 607 1302 526 1375 429 1375 c 0
 332 1375 250 1302 250 1191 c 0
 250 1078 330 1005 428 1005 c 0
428 892 m 0
 257 892 124 1021 124 1192 c 0
 124 1362 258 1486 428 1486 c 0
 599 1486 733 1362 733 1192 c 0
 733 1027 603 892 428 892 c 0
EndSplineSet
EndChar

StartChar: dieresis
Encoding: 168 168 189
Width: 969
VWidth: 0
GlyphClass: 4
Flags: HW
PickledData: "(dp1
S'org.robofab.postScriptHintData'
p2
(dp3
sS'com.typemytype.robofont.layerData'
p4
(dp5
s."
AnchorPoint: "top" 481 1082 mark 0
LayerCount: 2
Fore
SplineSet
248 1277 m 0
 169 1277 130 1328 130 1395 c 0
 130 1464 168 1515 248 1515 c 0
 326 1515 364 1464 364 1395 c 0
 364 1328 326 1277 248 1277 c 0
699 1277 m 0
 620 1277 581 1328 581 1395 c 0
 581 1464 620 1515 699 1515 c 0
 777 1515 815 1464 815 1395 c 0
 815 1327 777 1277 699 1277 c 0
EndSplineSet
EndChar

StartChar: divide
Encoding: 247 247 190
Width: 1194
VWidth: 0
GlyphClass: 2
Flags: HW
PickledData: "(dp1
S'org.pippin.gimp.org.kernagic'
p2
(dp3
S'lstem'
p4
I0
sS'rstem'
p5
I0
ssS'com.typemytype.robofont.layerData'
p6
(dp7
sS'org.robofab.postScriptHintData'
p8
(dp9
s."
LayerCount: 2
Fore
SplineSet
99 661 m 1
 1086 661 l 1
 1086 502 l 1
 99 502 l 1
 99 661 l 1
484 259 m 1
 702 259 l 1
 702 28 l 1
 484 28 l 1
 484 259 l 1
484 1114 m 1
 706 1114 l 1
 706 890 l 1
 484 890 l 1
 484 1114 l 1
EndSplineSet
EndChar

StartChar: dollar
Encoding: 36 36 191
Width: 1223
VWidth: 0
GlyphClass: 2
Flags: HW
PickledData: "(dp1
S'org.pippin.gimp.org.kernagic'
p2
(dp3
S'lstem'
p4
I0
sS'rstem'
p5
I0
ssS'com.typemytype.robofont.layerData'
p6
(dp7
S'b'
(dp8
S'name'
p9
S'dollar'
p10
sS'lib'
p11
(dp12
sS'unicodes'
p13
(tsS'width'
p14
I1221
sS'contours'
p15
(tsS'components'
p16
(tsS'anchors'
p17
(tsssS'org.robofab.postScriptHintData'
p18
(dp19
s."
LayerCount: 2
Fore
SplineSet
556 1767 m 1
 690 1767 l 1
 690 1472.47444109 l 1
 867.467781518 1455.09604931 1007.47950365 1375.22357385 1086 1272 c 1
 953 1164 l 1
 936 1164 l 1
 868 1255 747 1305 616 1305 c 0
 469 1305 342 1257 342 1103 c 0
 342 995 390 960 544 896 c 2
 742 817 l 2
 974 724 1111 649 1111 390 c 0
 1111 122.229939117 910.237744585 5.82824541178 684.3515403 -16.0919820208 c 1
 677 -293 l 1
 545 -293 l 1
 545 -18.1402507279 l 1
 331.141736084 -4.02271488817 179.539505207 88.2949562774 105 184 c 1
 236 300 l 1
 253 300 l 1
 339 212 471 157 598 157 c 0
 764 157 886 219 886 387 c 0
 886 512 828 552 627 635 c 2
 420 721 l 2
 227 800 112 868 112 1075 c 0
 112 1356.40978589 310.596708532 1457.35202336 544.714520252 1473.57752656 c 1
 556 1767 l 1
EndSplineSet
EndChar

StartChar: dotaccent
Encoding: 729 729 192
Width: 490
VWidth: 0
GlyphClass: 4
Flags: HW
PickledData: "(dp1
S'org.robofab.postScriptHintData'
p2
(dp3
sS'com.typemytype.robofont.layerData'
p4
(dp5
s."
AnchorPoint: "top" 244 1082 mark 0
LayerCount: 2
Fore
SplineSet
392 1436 m 0
 392 1349 338 1295 246 1295 c 0
 153 1295 99 1349 99 1436 c 0
 99 1520 153 1573 246 1573 c 0
 338 1573 392 1520 392 1436 c 0
EndSplineSet
EndChar

StartChar: dotlessi
Encoding: 305 305 193
Width: 545
VWidth: 0
GlyphClass: 2
Flags: HW
PickledData: "(dp1
S'org.pippin.gimp.org.kernagic'
p2
(dp3
S'lstem'
p4
I0
sS'rstem'
p5
I0
ssS'com.typemytype.robofont.layerData'
p6
(dp7
sS'org.robofab.postScriptHintData'
p8
(dp9
s."
AnchorPoint: "ogonek" 294 0 basechar 0
AnchorPoint: "top" 287 1082 basechar 0
LayerCount: 2
Fore
SplineSet
173 1082 m 1
 391 1082 l 1
 391 0 l 1
 173 0 l 1
 173 1082 l 1
EndSplineSet
EndChar

StartChar: dotlessj
Encoding: 567 567 194
Width: 617
VWidth: 0
GlyphClass: 2
Flags: HW
PickledData: "(dp1
S'org.pippin.gimp.org.kernagic'
p2
(dp3
S'lstem'
p4
I0
sS'rstem'
p5
I0
ssS'com.typemytype.robofont.layerData'
p6
(dp7
sS'com.fontlab.hintData'
p8
(dp9
S'vhints'
p10
((dp11
S'position'
p12
I111
sS'width'
p13
I142
stp14
sS'hhints'
p15
((dp16
g12
I-479
sg13
I112
stp17
ssS'org.robofab.postScriptHintData'
p18
(dp19
s."
HStem: -479 112
VStem: 111 142
LayerCount: 2
Fore
SplineSet
232 1082 m 1
 449 1082 l 1
 449 -16 l 2
 449 -288 347 -362 115 -414 c 1
 47 -430 l 1
 -1 -264 l 1
 70 -244 l 2
 224 -201 232 -163 232 16 c 2
 232 1082 l 1
EndSplineSet
EndChar

StartChar: e
Encoding: 101 101 195
Width: 1148
VWidth: 0
GlyphClass: 2
Flags: HW
PickledData: "(dp1
S'org.pippin.gimp.org.kernagic'
p2
(dp3
S'lstem'
p4
I0
sS'rstem'
p5
I747
ssS'com.typemytype.robofont.layerData'
p6
(dp7
sS'com.fontlab.hintData'
p8
(dp9
S'hhints'
p10
((dp11
S'position'
p12
I-19
sS'width'
p13
I94
s(dp14
g12
I982
sg13
I92
stp15
ssS'org.robofab.postScriptHintData'
p16
(dp17
s."
HStem: -19 94 982 92
AnchorPoint: "bot" 631 1 basechar 0
AnchorPoint: "ogonek" 885 41 basechar 0
AnchorPoint: "top" 620 1082 basechar 0
LayerCount: 2
Fore
SplineSet
1036 494 m 1
 327 494 l 1
 343 244 480 134 664 134 c 0
 785 134 868 173 957 224 c 1
 970 224 l 1
 1019 92 l 1
 931 27 796 -20 637 -20 c 0
 332 -20 106 192 106 539 c 0
 106 896 327 1105 612 1105 c 0
 894 1105 1046 911 1046 607 c 0
 1046 567 1036 494 1036 494 c 1
330 626 m 1
 861 626 l 1
 859 837 783 952 622 952 c 0
 460 952 347 832 330 626 c 1
EndSplineSet
EndChar

StartChar: eight
Encoding: 56 56 203
Width: 1284
VWidth: 0
GlyphClass: 2
Flags: HW
PickledData: "(dp1
S'org.pippin.gimp.org.kernagic'
p2
(dp3
S'lstem'
p4
I0
sS'rstem'
p5
I0
ssS'com.typemytype.robofont.layerData'
p6
(dp7
sS'org.robofab.postScriptHintData'
p8
(dp9
s."
LayerCount: 2
Fore
SplineSet
643 -20 m 0
 362 -20 148 111 148 371 c 0
 148 573 257 703 438 767 c 1
 288 818 178 933 178 1114 c 0
 178 1349 375 1476 643 1476 c 0
 912 1476 1105 1349 1105 1114 c 0
 1105 935 1004 826 852 769 c 1
 1025 709 1135 563 1135 371 c 0
 1135 111 925 -20 643 -20 c 0
643 137 m 0
 831 137 917 218 917 387 c 0
 917 550 803 656 643 695 c 1
 484 656 365 554 365 386 c 0
 365 222 460 137 643 137 c 0
643 823 m 1
 808 866 892 966 892 1112 c 0
 892 1246 794 1324 643 1324 c 0
 492 1324 391 1245 391 1112 c 0
 391 965 479 866 643 823 c 1
EndSplineSet
EndChar

StartChar: emdash
Encoding: 8212 8212 206
Width: 2151
VWidth: 0
GlyphClass: 2
Flags: HW
PickledData: "(dp1
S'org.robofab.postScriptHintData'
p2
(dp3
sS'com.typemytype.robofont.layerData'
p4
(dp5
s."
LayerCount: 2
Fore
SplineSet
60 502 m 1
 60 659 l 1
 2091 659 l 1
 2091 502 l 1
 60 502 l 1
EndSplineSet
EndChar

StartChar: endash
Encoding: 8211 8211 207
Width: 1290
VWidth: 0
GlyphClass: 2
Flags: HW
PickledData: "(dp1
S'org.pippin.gimp.org.kernagic'
p2
(dp3
S'lstem'
p4
I0
sS'rstem'
p5
I0
ssS'com.typemytype.robofont.layerData'
p6
(dp7
sS'org.robofab.postScriptHintData'
p8
(dp9
s."
LayerCount: 2
Fore
SplineSet
85 506 m 1
 85 656 l 1
 1205 656 l 1
 1205 506 l 1
 85 506 l 1
EndSplineSet
EndChar

StartChar: eng
Encoding: 331 331 208
Width: 1206
VWidth: 0
GlyphClass: 2
Flags: HW
PickledData: "(dp1
S'org.robofab.postScriptHintData'
p2
(dp3
sS'com.typemytype.robofont.layerData'
p4
(dp5
s."
LayerCount: 2
Fore
SplineSet
158 0 m 1
 158 1082 l 1
 341 1082 l 1
 361 878 l 1
 422 1017 535 1105 717 1105 c 0
 960 1105 1074 943 1074 656 c 2
 1074 -23 l 2
 1074 -347 934 -444 487 -448 c 1
 480 -290 l 1
 821 -290 856 -231 857 -12 c 2
 857 658 l 2
 857 842 809 951 661 951 c 0
 464 951 376 806 376 614 c 2
 376 0 l 1
 158 0 l 1
EndSplineSet
EndChar

StartChar: equal
Encoding: 61 61 210
Width: 1110
VWidth: 0
GlyphClass: 2
Flags: HW
PickledData: "(dp1
S'org.pippin.gimp.org.kernagic'
p2
(dp3
S'lstem'
p4
I0
sS'rstem'
p5
I0
ssS'com.typemytype.robofont.layerData'
p6
(dp7
S'b'
(dp8
S'name'
p9
S'equal'
p10
sS'lib'
p11
(dp12
sS'unicodes'
p13
(tsS'width'
p14
I1050
sS'contours'
p15
(tsS'components'
p16
(tsS'anchors'
p17
(tsssS'org.robofab.postScriptHintData'
p18
(dp19
s."
LayerCount: 2
Fore
SplineSet
121 994 m 1
 988 994 l 1
 988 827 l 1
 121 827 l 1
 121 994 l 1
121 598 m 1
 988 598 l 1
 988 431 l 1
 121 431 l 1
 121 598 l 1
EndSplineSet
EndChar

StartChar: estimated
Encoding: 8494 8494 211
Width: 1207
VWidth: 0
GlyphClass: 2
Flags: HW
PickledData: "(dp1
S'org.robofab.postScriptHintData'
p2
(dp3
sS'com.typemytype.robofont.layerData'
p4
(dp5
S'b'
(dp6
S'name'
p7
S'estimated'
p8
sS'lib'
p9
(dp10
sS'unicodes'
p11
(tsS'width'
p12
I1223
sS'contours'
p13
(tsS'components'
p14
(tsS'anchors'
p15
(tsss."
LayerCount: 2
Fore
SplineSet
95 537 m 0
 95 855 324 1094 644 1094 c 0
 962 1094 1109 863 1109 517 c 1
 324 517 l 1
 325 243 434 53 662 53 c 0
 841 53 952 133 1050 238 c 1
 1101 187 l 1
 1002 69 868 -20 662 -20 c 0
 282 -20 95 220 95 537 c 0
985 597 m 1
 985 831 858 1034 650 1034 c 0
 479 1034 341 857 326 597 c 1
 985 597 l 1
EndSplineSet
EndChar

StartChar: eth
Encoding: 240 240 212
Width: 1206
VWidth: 0
GlyphClass: 2
Flags: HW
PickledData: "(dp1
S'org.pippin.gimp.org.kernagic'
p2
(dp3
S'lstem'
p4
I0
sS'rstem'
p5
I0
ssS'com.typemytype.robofont.layerData'
p6
(dp7
sS'org.robofab.postScriptHintData'
p8
(dp9
s."
LayerCount: 2
Fore
SplineSet
210 1560 m 1
 434 1560 l 1
 575 1419 l 1
 857 1530 l 1
 911 1399 l 1
 673 1306 l 1
 840 1122 942 995 1012 865 c 0
 1066 763 1101 625 1102 485 c 0
 1102 189 926 -21 598 -21 c 0
 277 -21 92 210 92 486 c 0
 92 776 290 969 574 969 c 0
 690 969 755 923 808 887 c 1
 758 973 657 1101 518 1239 c 1
 267 1140 l 1
 214 1272 l 1
 422 1355 l 1
 210 1560 l 1
926 491 m 0
 926 670 809 826 598 826 c 0
 395 826 279 683 279 486 c 0
 279 300 388 134 604 134 c 0
 815 134 926 275 926 491 c 0
EndSplineSet
EndChar

StartChar: exclam
Encoding: 33 33 213
Width: 725
VWidth: 0
GlyphClass: 2
Flags: HW
PickledData: "(dp1
S'org.pippin.gimp.org.kernagic'
p2
(dp3
S'lstem'
p4
I0
sS'rstem'
p5
I0
ssS'com.typemytype.robofont.layerData'
p6
(dp7
sS'org.robofab.postScriptHintData'
p8
(dp9
s."
LayerCount: 2
Fore
SplineSet
314 440 m 1
 253 1331 l 1
 253 1487 l 1
 452 1487 l 1
 452 1331 l 1
 397 440 l 1
 314 440 l 1
354 -12 m 0
 271 -12 226 53 226 120 c 0
 226 186 271 250 354 250 c 0
 437 250 482 186 482 120 c 0
 482 52 437 -12 354 -12 c 0
EndSplineSet
EndChar

StartChar: f
Encoding: 102 102 215
Width: 777
VWidth: 0
GlyphClass: 2
Flags: HW
PickledData: "(dp1
S'org.pippin.gimp.org.kernagic'
p2
(dp3
S'lstem'
p4
I182
sS'rstem'
p5
I417
ssS'com.typemytype.robofont.layerData'
p6
(dp7
sS'com.fontlab.hintData'
p8
(dp9
S'vhints'
p10
((dp11
S'position'
p12
I269
sS'width'
p13
I166
stp14
sS'hhints'
p15
((dp16
g12
I952
sg13
I89
s(dp17
g12
I1358
sg13
I122
stp18
ssS'org.robofab.postScriptHintData'
p19
(dp20
s."
HStem: 952 89 1358 122
VStem: 269 166
AnchorPoint: "top" 405 1456 basechar 0
LayerCount: 2
Fore
SplineSet
459 1082 m 1
 731 1082 l 1
 731 952 l 1
 459 952 l 1
 459 0 l 1
 241 0 l 1
 241 952 l 1
 61 952 l 1
 66 1063 l 1
 241 1079 l 1
 241 1161 l 2
 241 1456 367 1518 567 1518 c 2
 577 1518 l 2
 675 1518 746 1500 754 1498 c 1
 743 1357 l 1
 725 1359 666 1365 631 1365 c 0
 498 1365 459 1325 459 1161 c 2
 459 1082 l 1
EndSplineSet
EndChar

StartChar: five
Encoding: 53 53 216
Width: 1284
VWidth: 0
GlyphClass: 2
Flags: HW
PickledData: "(dp1
S'org.pippin.gimp.org.kernagic'
p2
(dp3
S'lstem'
p4
I0
sS'rstem'
p5
I0
ssS'com.typemytype.robofont.layerData'
p6
(dp7
sS'org.robofab.postScriptHintData'
p8
(dp9
s."
LayerCount: 2
Fore
SplineSet
669 783 m 0
 563 783 474 740 420 658 c 1
 249 686 l 1
 299 1456 l 1
 1066 1456 l 1
 1044 1292 l 1
 492 1292 l 1
 446 846 l 1
 513 906 595 941 705 941 c 0
 1004 941 1151 707 1151 475 c 0
 1151 223 983 -20 640 -20 c 0
 407 -20 247 88 178 200 c 1
 297 319 l 1
 313 319 l 1
 389 210 493 158 631 158 c 0
 834 158 930 308 930 476 c 0
 930 633 839 783 669 783 c 0
EndSplineSet
EndChar

StartChar: florin
Encoding: 402 402 218
Width: 1068
VWidth: 0
GlyphClass: 2
Flags: HW
PickledData: "(dp1
S'org.robofab.postScriptHintData'
p2
(dp3
s."
LayerCount: 2
Fore
SplineSet
531 1250 m 2
 568 1452 676 1588 879 1588 c 0
 1033 1588 1134 1508 1137 1303 c 1
 998 1303 l 1
 993 1413 967 1477 892 1477 c 0
 792 1477 756 1390 734 1274 c 2
 696 1066 l 1
 939 1066 l 1
 923 985 l 1
 679 985 l 1
 488 120 l 1
 429 -159 288 -298 104 -298 c 0
 61 -298 16 -290 -31 -275 c 1
 -9 -181 l 1
 32 -189 67 -193 96 -193 c 0
 261 -193 256 -71 294 117 c 1
 485 985 l 1
 302 985 l 1
 319 1066 l 1
 498 1066 l 1
 531 1250 l 2
EndSplineSet
EndChar

StartChar: foundryicon
Encoding: 65540 -1 219
Width: 1347
VWidth: 0
GlyphClass: 2
Flags: HW
PickledData: "(dp1
S'org.robofab.postScriptHintData'
p2
(dp3
s."
LayerCount: 2
Fore
SplineSet
485 405 m 1
 591 405 l 1
 591 552 l 1
 761 405 l 1
 867 405 l 1
 867 672 l 1
 761 672 l 1
 761 523 l 1
 591 672 l 1
 485 672 l 1
 485 405 l 1
280 2 m 1
 423 461 l 1
 34 755 l 1
 519 755 l 1
 669 1215 l 1
 828 755 l 1
 1313 755 l 1
 922 461 l 1
 1066 2 l 1
 669 278 l 1
 280 2 l 1
EndSplineSet
EndChar

StartChar: four
Encoding: 52 52 220
Width: 1284
VWidth: 0
GlyphClass: 2
Flags: HW
PickledData: "(dp1
S'org.pippin.gimp.org.kernagic'
p2
(dp3
S'lstem'
p4
I0
sS'rstem'
p5
I0
ssS'com.typemytype.robofont.layerData'
p6
(dp7
sS'org.robofab.postScriptHintData'
p8
(dp9
s."
LayerCount: 2
Fore
SplineSet
762 0 m 1
 762 363 l 1
 167 363 l 1
 126 523 l 1
 736 1456 l 1
 984 1456 l 1
 984 527 l 1
 1166 527 l 1
 1153 363 l 1
 984 363 l 1
 984 0 l 1
 762 0 l 1
327 525 m 1
 761 525 l 1
 761 1210 l 1
 327 525 l 1
EndSplineSet
EndChar

StartChar: fraction
Encoding: 8260 8260 221
Width: 1070
VWidth: 0
GlyphClass: 2
Flags: HW
PickledData: "(dp1
S'org.robofab.postScriptHintData'
p2
(dp3
s."
LayerCount: 2
Fore
SplineSet
111 0 m 1
 839 1488 l 1
 1002 1488 l 1
 275 0 l 1
 111 0 l 1
EndSplineSet
EndChar

StartChar: g
Encoding: 103 103 222
Width: 1216
VWidth: 0
GlyphClass: 2
Flags: HW
PickledData: "(dp1
S'org.pippin.gimp.org.kernagic'
p2
(dp3
S'lstem'
p4
I0
sS'rstem'
p5
I0
ssS'com.typemytype.robofont.layerData'
p6
(dp7
sS'com.fontlab.hintData'
p8
(dp9
S'vhints'
p10
((dp11
S'position'
p12
I128
sS'width'
p13
I122
s(dp14
g12
I977
sg13
I125
s(dp15
g12
I977
sg13
I36
stp16
sS'hhints'
p17
((dp18
g12
I-426
sg13
I101
s(dp19
g12
I0
sg13
I93
s(dp20
g12
I982
sg13
I92
stp21
ssS'org.robofab.postScriptHintData'
p22
(dp23
s."
HStem: -426 101 0 93 982 92
VStem: 128 122 977 125 977 36
AnchorPoint: "top" 598 1082 basechar 0
LayerCount: 2
Fore
SplineSet
564 -492 m 0
 437 -492 314 -469 223 -438 c 1
 240 -279 l 1
 264 -279 l 1
 350 -313 459 -333 550 -333 c 0
 746 -332 862 -254 862 -5 c 2
 862 14 l 1
 859 95 l 1
 787 19 681 -15 572 -15 c 2
 570 -15 l 2
 294 -15 106 177 106 549 c 0
 106 902 302 1105 575 1105 c 0
 710 1105 805 1048 864 976 c 1
 870 1082 l 1
 1064 1082 l 1
 1064 39 l 2
 1064 -321 906 -492 564 -492 c 0
601 134 m 0
 705 134 800 170 854 239 c 1
 854 829 l 1
 792 911 712 951 601 951 c 0
 428 951 327 815 327 550 c 0
 327 283 417 134 601 134 c 0
EndSplineSet
EndChar

StartChar: germandbls
Encoding: 223 223 228
Width: 1294
VWidth: 0
GlyphClass: 2
Flags: HW
PickledData: "(dp1
S'org.pippin.gimp.org.kernagic'
p2
(dp3
S'lstem'
p4
I0
sS'rstem'
p5
I0
ssS'com.typemytype.robofont.layerData'
p6
(dp7
S'b'
(dp8
S'name'
p9
S'germandbls'
p10
sS'lib'
p11
(dp12
sS'unicodes'
p13
(tsS'width'
p14
I1278
sS'contours'
p15
(tsS'components'
p16
(tsS'anchors'
p17
(tsssS'org.robofab.postScriptHintData'
p18
(dp19
s."
LayerCount: 2
Fore
SplineSet
864 -20 m 0
 746 -20 611 13 520 56 c 1
 570 206 l 1
 620 179 723 144 821 144 c 0
 933 144 984 214 984 303 c 0
 984 510 630 591 630 787 c 0
 630 957 824 1011 824 1207 c 0
 824 1310 758 1373 635 1373 c 0
 463 1373 373 1277 373 1054 c 2
 373 1 l 1
 156 1 l 1
 156 1063 l 2
 156 1357 327 1536 626 1536 c 0
 864 1536 1028 1412 1028 1207 c 0
 1028 988 817 887 817 806 c 0
 817 706 1205 607 1205 303 c 0
 1205 103 1083 -20 864 -20 c 0
EndSplineSet
EndChar

StartChar: grave
Encoding: 96 96 229
Width: 959
VWidth: 0
GlyphClass: 4
Flags: HW
PickledData: "(dp1
S'org.robofab.postScriptHintData'
p2
(dp3
sS'com.typemytype.robofont.layerData'
p4
(dp5
s."
AnchorPoint: "top" 491 1069 mark 0
LayerCount: 2
Fore
SplineSet
408 1208 m 1
 94 1591 l 1
 352 1591 l 1
 544 1208 l 1
 408 1208 l 1
EndSplineSet
EndChar

StartChar: greater
Encoding: 62 62 230
Width: 1107
VWidth: 0
GlyphClass: 2
Flags: HW
PickledData: "(dp1
S'org.pippin.gimp.org.kernagic'
p2
(dp3
S'lstem'
p4
I0
sS'rstem'
p5
I0
ssS'com.typemytype.robofont.layerData'
p6
(dp7
S'b'
(dp8
S'name'
p9
S'greater'
p10
sS'lib'
p11
(dp12
sS'unicodes'
p13
(tsS'width'
p14
I1107
sS'contours'
p15
(tsS'components'
p16
(tsS'anchors'
p17
(tsssS'org.robofab.postScriptHintData'
p18
(dp19
s."
LayerCount: 2
Fore
SplineSet
92 1036 m 1
 92 1206 l 1
 1025 710 l 1
 1025 606 l 1
 91 154 l 1
 91 329 l 1
 792 664 l 1
 92 1036 l 1
EndSplineSet
EndChar

StartChar: greaterequal
Encoding: 8805 8805 231
Width: 1192
VWidth: 0
GlyphClass: 2
Flags: HW
PickledData: "(dp1
S'org.pippin.gimp.org.kernagic'
p2
(dp3
S'lstem'
p4
I0
sS'rstem'
p5
I0
ssS'com.typemytype.robofont.layerData'
p6
(dp7
S'b'
(dp8
S'name'
p9
S'greaterequal'
p10
sS'lib'
p11
(dp12
sS'unicodes'
p13
(tsS'width'
p14
I1192
sS'contours'
p15
(tsS'components'
p16
(tsS'anchors'
p17
(tsssS'org.robofab.postScriptHintData'
p18
(dp19
s."
LayerCount: 2
Fore
SplineSet
154 230 m 1
 154 393 l 1
 858 757 l 1
 157 1145 l 1
 157 1308 l 1
 1049 804 l 1
 1049 710 l 1
 154 230 l 1
131 7 m 1
 131 146 l 1
 1064 147 l 1
 1064 7 l 1
 131 7 l 1
EndSplineSet
EndChar

StartChar: guillemotleft
Encoding: 171 171 232
Width: 1009
VWidth: 0
GlyphClass: 2
Flags: HW
PickledData: "(dp1
S'org.pippin.gimp.org.kernagic'
p2
(dp3
S'lstem'
p4
I0
sS'rstem'
p5
I0
ssS'com.typemytype.robofont.layerData'
p6
(dp7
S'b'
(dp8
S'name'
p9
S'guillemotleft'
p10
sS'lib'
p11
(dp12
sS'unicodes'
p13
(tsS'width'
p14
I994
sS'contours'
p15
(tsS'components'
p16
(tsS'anchors'
p17
(tsssS'org.robofab.postScriptHintData'
p18
(dp19
s."
LayerCount: 2
Fore
SplineSet
366 143 m 1
 73 555 l 1
 370 971 l 1
 539 971 l 1
 263 558 l 1
 532 143 l 1
 366 143 l 1
741 143 m 1
 448 555 l 1
 743 971 l 1
 912 971 l 1
 637 558 l 1
 906 143 l 1
 741 143 l 1
EndSplineSet
EndChar

StartChar: guillemotright
Encoding: 187 187 233
Width: 1009
VWidth: 0
GlyphClass: 2
Flags: HW
PickledData: "(dp1
S'org.pippin.gimp.org.kernagic'
p2
(dp3
S'lstem'
p4
I0
sS'rstem'
p5
I0
ssS'com.typemytype.robofont.layerData'
p6
(dp7
sS'org.robofab.postScriptHintData'
p8
(dp9
s."
LayerCount: 2
Fore
SplineSet
250 143 m 1
 83 143 l 1
 355 557 l 1
 82 971 l 1
 249 971 l 1
 544 558 l 1
 250 143 l 1
619 143 m 1
 454 143 l 1
 724 557 l 1
 453 971 l 1
 619 971 l 1
 915 558 l 1
 619 143 l 1
EndSplineSet
EndChar

StartChar: guilsinglleft
Encoding: 8249 8249 234
Width: 687
VWidth: 0
GlyphClass: 2
Flags: HW
PickledData: "(dp1
S'org.robofab.postScriptHintData'
p2
(dp3
s."
LayerCount: 2
Fore
SplineSet
400 154 m 1
 120 562 l 1
 405 976 l 1
 577 976 l 1
 298 564 l 1
 570 154 l 1
 400 154 l 1
EndSplineSet
EndChar

StartChar: guilsinglright
Encoding: 8250 8250 235
Width: 766
VWidth: 0
GlyphClass: 2
Flags: HW
PickledData: "(dp1
S'org.pippin.gimp.org.kernagic'
p2
(dp3
S'lstem'
p4
I0
sS'rstem'
p5
I0
ssS'com.typemytype.robofont.layerData'
p6
(dp7
S'b'
(dp8
S'name'
p9
S'guilsinglright'
p10
sS'lib'
p11
(dp12
sS'unicodes'
p13
(tsS'width'
p14
I766
sS'contours'
p15
(tsS'components'
p16
(tsS'anchors'
p17
(tsssS'org.robofab.postScriptHintData'
p18
(dp19
s."
LayerCount: 2
Fore
SplineSet
150 154 m 1
 425 574 l 1
 150 999 l 1
 321 999 l 1
 610 574 l 1
 320 154 l 1
 150 154 l 1
EndSplineSet
EndChar

StartChar: h
Encoding: 104 104 236
Width: 1222
VWidth: 0
GlyphClass: 2
Flags: HW
PickledData: "(dp1
S'org.pippin.gimp.org.kernagic'
p2
(dp3
S'lstem'
p4
I0
sS'rstem'
p5
I0
ssS'com.typemytype.robofont.layerData'
p6
(dp7
sS'com.fontlab.hintData'
p8
(dp9
S'vhints'
p10
((dp11
S'position'
p12
I193
sS'width'
p13
I122
s(dp14
g12
I910
sg13
I122
stp15
sS'hhints'
p16
((dp17
g12
I982
sg13
I92
stp18
ssS'org.robofab.postScriptHintData'
p19
(dp20
s."
HStem: 982 92
VStem: 193 122 910 122
AnchorPoint: "mid" 293 1275 basechar 0
AnchorPoint: "top" 640 1422 basechar 0
LayerCount: 2
Fore
SplineSet
161 0 m 1
 161 1540 l 1
 379 1560 l 1
 379 1150 l 1
 372 876 l 1
 440 1035 560 1105 721 1105 c 0
 956 1105 1080 946 1080 671 c 2
 1080 0 l 1
 861 0 l 1
 861 654 l 2
 861 858 805 951 662 951 c 0
 452 951 378 787 378 601 c 2
 378 0 l 1
 161 0 l 1
EndSplineSet
EndChar

StartChar: hungarumlaut
Encoding: 733 733 239
Width: 847
VWidth: 0
GlyphClass: 4
Flags: HW
PickledData: "(dp1
S'org.robofab.postScriptHintData'
p2
(dp3
sS'com.typemytype.robofont.layerData'
p4
(dp5
s."
AnchorPoint: "top" 358 1069 mark 0
LayerCount: 2
Fore
SplineSet
150 1250 m 1
 287 1611 l 1
 474 1611 l 1
 273 1250 l 1
 150 1250 l 1
448 1250 m 1
 596 1611 l 1
 803 1611 l 1
 567 1250 l 1
 448 1250 l 1
EndSplineSet
EndChar

StartChar: hyphen
Encoding: 45 45 240
Width: 882
VWidth: 0
GlyphClass: 4
Flags: HW
PickledData: "(dp1
S'org.pippin.gimp.org.kernagic'
p2
(dp3
S'lstem'
p4
I0
sS'rstem'
p5
I0
ssS'com.typemytype.robofont.layerData'
p6
(dp7
sS'org.robofab.postScriptHintData'
p8
(dp9
s."
AnchorPoint: "mid" 423 592 mark 0
LayerCount: 2
Fore
SplineSet
166 504 m 1
 166 662 l 1
 710 662 l 1
 710 504 l 1
 166 504 l 1
EndSplineSet
EndChar

StartChar: infinity
Encoding: 8734 8734 252
Width: 1684
VWidth: 0
GlyphClass: 2
Flags: HW
PickledData: "(dp1
S'org.pippin.gimp.org.kernagic'
p2
(dp3
S'lstem'
p4
I0
sS'rstem'
p5
I0
ssS'com.typemytype.robofont.layerData'
p6
(dp7
S'b'
(dp8
S'name'
p9
S'infinity'
p10
sS'lib'
p11
(dp12
sS'unicodes'
p13
(tsS'width'
p14
I1647
sS'contours'
p15
(tsS'components'
p16
(tsS'anchors'
p17
(tsssS'org.robofab.postScriptHintData'
p18
(dp19
s."
LayerCount: 2
Fore
SplineSet
843 744 m 1
 956 904 1081 1019 1252 1019 c 0
 1475 1019 1600 860 1600 640 c 0
 1600 410 1446 250 1250 250 c 0
 1101 250 978 339 843 523 c 1
 725 363 597 250 433 250 c 0
 210 250 80 438 80 658 c 0
 80 859 235 1019 429 1019 c 0
 597 1019 722 909 843 744 c 1
750 635 m 1
 662 774 558 873 428 873 c 0
 293 873 210 765 210 637 c 0
 210 518 300 399 435 399 c 0
 554 399 661 505 750 635 c 1
1461 663 m 0
 1461 776 1373 873 1248 873 c 0
 1124 873 1022 762 937 637 c 1
 1051 480 1137 399 1252 399 c 0
 1394 399 1461 513 1461 663 c 0
EndSplineSet
EndChar

StartChar: integral
Encoding: 8747 8747 253
Width: 925
VWidth: 0
GlyphClass: 2
Flags: HW
PickledData: "(dp1
S'org.pippin.gimp.org.kernagic'
p2
(dp3
S'lstem'
p4
I0
sS'rstem'
p5
I0
ssS'com.typemytype.robofont.layerData'
p6
(dp7
S'b'
(dp8
S'name'
p9
S'integral'
p10
sS'lib'
p11
(dp12
sS'unicodes'
p13
(tsS'width'
p14
I994
sS'contours'
p15
(tsS'components'
p16
(tsS'anchors'
p17
(tsssS'org.robofab.postScriptHintData'
p18
(dp19
s."
LayerCount: 2
Fore
SplineSet
449 1163 m 2
 449 1414 523 1551 708 1551 c 0
 747 1551 792 1544 843 1532 c 1
 843 1408 l 1
 810 1417 781 1422 755 1422 c 0
 640 1422 614 1332 614 1172 c 2
 614 -33 l 2
 614 -290 524 -436 329 -436 c 0
 292 -436 248 -431 199 -420 c 1
 199 -280 l 1
 235 -289 268 -294 296 -294 c 0
 413 -294 449 -210 449 -41 c 2
 449 1163 l 2
EndSplineSet
EndChar

StartChar: k
Encoding: 107 107 258
Width: 1122
VWidth: 0
GlyphClass: 2
Flags: HW
PickledData: "(dp1
S'org.pippin.gimp.org.kernagic'
p2
(dp3
S'lstem'
p4
I0
sS'rstem'
p5
I671
ssS'com.typemytype.robofont.layerData'
p6
(dp7
sS'org.robofab.postScriptHintData'
p8
(dp9
s."
AnchorPoint: "bot" 609 0 basechar 0
LayerCount: 2
Fore
SplineSet
161 0 m 1
 161 1540 l 1
 379 1560 l 1
 379 780 l 1
 373 581 l 1
 833 1082 l 1
 1073 1082 l 1
 1073 1060 l 1
 643 596 l 1
 1101 26 l 1
 1101 0 l 1
 873 0 l 1
 485 498 l 1
 379 404 l 1
 379 0 l 1
 161 0 l 1
EndSplineSet
EndChar

StartChar: kgreenlandic
Encoding: 312 312 260
Width: 1109
VWidth: 0
GlyphClass: 2
Flags: HW
PickledData: "(dp1
S'org.robofab.postScriptHintData'
p2
(dp3
s."
LayerCount: 2
Fore
SplineSet
143 0 m 1
 143 1082 l 1
 337 1082 l 1
 337 780 l 1
 331 559 l 1
 806 1082 l 1
 1031 1082 l 1
 1031 1060 l 1
 594 588 l 1
 1062 19 l 1
 1062 0 l 1
 845 0 l 1
 451 489 l 1
 337 385 l 1
 337 0 l 1
 143 0 l 1
EndSplineSet
EndChar

StartChar: l
Encoding: 108 108 261
Width: 662
VWidth: 0
GlyphClass: 2
Flags: HW
PickledData: "(dp1
S'org.pippin.gimp.org.kernagic'
p2
(dp3
S'lstem'
p4
I0
sS'rstem'
p5
I238
ssS'com.typemytype.robofont.layerData'
p6
(dp7
sS'com.fontlab.hintData'
p8
(dp9
S'vhints'
p10
((dp11
S'position'
p12
I193
sS'width'
p13
I122
stp14
sS'hhints'
p15
((dp16
g12
I-11
sg13
I87
stp17
ssS'org.robofab.postScriptHintData'
p18
(dp19
s."
HStem: -11 87
VStem: 193 122
AnchorPoint: "mid" 297 822 basechar 0
AnchorPoint: "top" 338 1513 basechar 0
LayerCount: 2
Fore
SplineSet
500 -9 m 1
 485 -9 l 2
 266 -9 162 56 162 320 c 2
 162 1540 l 1
 379 1560 l 1
 379 315 l 2
 379 176 399 156 511 148 c 2
 590 143 l 1
 576 -8 l 1
 500 -9 l 1
EndSplineSet
EndChar

StartChar: less
Encoding: 60 60 266
Width: 1107
VWidth: 0
GlyphClass: 2
Flags: HW
PickledData: "(dp1
S'org.pippin.gimp.org.kernagic'
p2
(dp3
S'lstem'
p4
I0
sS'rstem'
p5
I0
ssS'com.typemytype.robofont.layerData'
p6
(dp7
S'b'
(dp8
S'name'
p9
S'less'
p10
sS'lib'
p11
(dp12
sS'unicodes'
p13
(tsS'width'
p14
I1107
sS'contours'
p15
(tsS'components'
p16
(tsS'anchors'
p17
(tsssS'org.robofab.postScriptHintData'
p18
(dp19
s."
LayerCount: 2
Fore
SplineSet
1008 149 m 1
 73 608 l 1
 73 711 l 1
 1008 1202 l 1
 1008 1031 l 1
 300 664 l 1
 1008 324 l 1
 1008 149 l 1
EndSplineSet
EndChar

StartChar: lessequal
Encoding: 8804 8804 267
Width: 1192
VWidth: 0
GlyphClass: 2
Flags: HW
PickledData: "(dp1
S'org.robofab.postScriptHintData'
p2
(dp3
sS'com.typemytype.robofont.layerData'
p4
(dp5
s."
LayerCount: 2
Fore
SplineSet
1037 260 m 1
 143 725 l 1
 143 820 l 1
 1035 1307 l 1
 1035 1144 l 1
 346 773 l 1
 1037 422 l 1
 1037 260 l 1
124 4 m 1
 124 144 l 1
 1060 143 l 1
 1060 4 l 1
 124 4 l 1
EndSplineSet
EndChar

StartChar: logicalnot
Encoding: 172 172 268
Width: 1234
VWidth: 0
GlyphClass: 2
Flags: HW
PickledData: "(dp1
S'org.pippin.gimp.org.kernagic'
p2
(dp3
S'lstem'
p4
I0
sS'rstem'
p5
I0
ssS'com.typemytype.robofont.layerData'
p6
(dp7
sS'org.robofab.postScriptHintData'
p8
(dp9
s."
LayerCount: 2
Fore
SplineSet
102 818 m 1
 1071 818 l 1
 1071 252 l 1
 924 252 l 1
 924 665 l 1
 102 665 l 1
 102 818 l 1
EndSplineSet
EndChar

StartChar: lozenge
Encoding: 9674 9674 269
Width: 1179
VWidth: 0
GlyphClass: 2
Flags: HW
PickledData: "(dp1
S'org.pippin.gimp.org.kernagic'
p2
(dp3
S'lstem'
p4
I0
sS'rstem'
p5
I0
ssS'com.typemytype.robofont.layerData'
p6
(dp7
S'b'
(dp8
S'name'
p9
S'lozenge'
p10
sS'lib'
p11
(dp12
sS'unicodes'
p13
(tsS'width'
p14
I1164
sS'contours'
p15
(tsS'components'
p16
(tsS'anchors'
p17
(tsssS'org.robofab.postScriptHintData'
p18
(dp19
s."
LayerCount: 2
Fore
SplineSet
538 1568 m 1
 650 1568 l 1
 1067 760 l 1
 641 -47 l 1
 531 -47 l 1
 115 759 l 1
 538 1568 l 1
908 759 m 1
 854 864 650 1270 596 1376 c 1
 539 1271 329 866 273 761 c 1
 328 655 532 245 587 140 c 1
 644 246 852 654 908 759 c 1
EndSplineSet
EndChar

StartChar: m
Encoding: 109 109 271
Width: 1849
VWidth: 0
GlyphClass: 2
Flags: HW
PickledData: "(dp1
S'org.pippin.gimp.org.kernagic'
p2
(dp3
S'lstem'
p4
I0
sS'rstem'
p5
I0
ssS'com.typemytype.robofont.layerData'
p6
(dp7
sS'com.fontlab.hintData'
p8
(dp9
S'vhints'
p10
((dp11
S'position'
p12
I193
sS'width'
p13
I122
s(dp14
g12
I193
sg13
I98
s(dp15
g12
I845
sg13
I122
s(dp16
g12
I1483
sg13
I122
stp17
sS'hhints'
p18
((dp19
g12
I982
sg13
I92
stp20
ssS'org.robofab.postScriptHintData'
p21
(dp22
s."
HStem: 982 92
VStem: 193 122 193 98 845 122 1483 122
AnchorPoint: "top" 981 1082 basechar 0
LayerCount: 2
Fore
SplineSet
1040 602 m 2
 1040 0 l 1
 823 0 l 1
 823 613 l 2
 823 852 768 951 633 951 c 0
 485 951 394 823 375 635 c 1
 375 0 l 1
 157 0 l 1
 157 1082 l 1
 340 1082 l 1
 359 878 l 1
 423 1028 539 1105 687 1105 c 0
 845 1105 959 1020 1006 862 c 1
 1073 1021 1195 1105 1357 1105 c 0
 1582 1105 1706 958 1706 693 c 2
 1706 0 l 1
 1489 0 l 1
 1489 640 l 2
 1489 804 1458 951 1303 951 c 0
 1175 951 1040 820 1040 602 c 2
EndSplineSet
EndChar

StartChar: macron
Encoding: 175 175 272
Width: 1123
VWidth: 0
GlyphClass: 4
Flags: HW
PickledData: "(dp1
S'org.robofab.postScriptHintData'
p2
(dp3
sS'com.typemytype.robofont.layerData'
p4
(dp5
s."
AnchorPoint: "mid" 545 1367 mark 0
AnchorPoint: "top" 561 1069 mark 0
LayerCount: 2
Fore
SplineSet
244 1314 m 1
 244 1426 l 1
 854 1426 l 1
 854 1314 l 1
 244 1314 l 1
EndSplineSet
EndChar

StartChar: minus
Encoding: 8722 8722 274
Width: 1179
VWidth: 0
GlyphClass: 2
Flags: HW
PickledData: "(dp1
S'org.pippin.gimp.org.kernagic'
p2
(dp3
S'lstem'
p4
I0
sS'rstem'
p5
I0
ssS'com.typemytype.robofont.layerData'
p6
(dp7
sS'org.robofab.postScriptHintData'
p8
(dp9
s."
LayerCount: 2
Fore
SplineSet
102 666 m 1
 1083 666 l 1
 1083 509 l 1
 102 509 l 1
 102 666 l 1
EndSplineSet
EndChar

StartChar: multiply
Encoding: 215 215 275
Width: 994
VWidth: 0
GlyphClass: 2
Flags: HW
PickledData: "(dp1
S'org.pippin.gimp.org.kernagic'
p2
(dp3
S'lstem'
p4
I0
sS'rstem'
p5
I0
ssS'com.typemytype.robofont.layerData'
p6
(dp7
sS'org.robofab.postScriptHintData'
p8
(dp9
s."
LayerCount: 2
Fore
SplineSet
109 929 m 1
 214 1040 l 1
 495 738 l 1
 774 1037 l 1
 882 926 l 1
 602 626 l 1
 638 589 885 321 885 321 c 1
 781 209 l 1
 495 513 l 1
 207 208 l 1
 102 319 l 1
 388 626 l 1
 109 929 l 1
EndSplineSet
EndChar

StartChar: n
Encoding: 110 110 276
Width: 1217
VWidth: 0
GlyphClass: 2
Flags: HW
PickledData: "(dp1
S'org.pippin.gimp.org.kernagic'
p2
(dp3
S'lstem'
p4
I0
sS'rstem'
p5
I0
ssS'com.typemytype.robofont.layerData'
p6
(dp7
sS'com.fontlab.hintData'
p8
(dp9
S'vhints'
p10
((dp11
S'position'
p12
I193
sS'width'
p13
I122
s(dp14
g12
I903
sg13
I122
stp15
sS'hhints'
p16
((dp17
g12
I0
sg13
I22
s(dp18
g12
I982
sg13
I92
s(dp19
g12
I1034
sg13
I21
stp20
ssS'org.robofab.postScriptHintData'
p21
(dp22
s."
HStem: 0 22 982 92 1034 21
VStem: 193 122 903 122
AnchorPoint: "bot" 616 0 basechar 0
AnchorPoint: "top" 698 1082 basechar 0
LayerCount: 2
Fore
SplineSet
158 0 m 1
 158 1082 l 1
 341 1082 l 1
 361 878 l 1
 422 1017 535 1105 717 1105 c 0
 960 1105 1074 943 1074 656 c 2
 1074 0 l 1
 857 0 l 1
 857 658 l 2
 857 842 809 951 661 951 c 0
 464 951 376 806 376 614 c 2
 376 0 l 1
 158 0 l 1
EndSplineSet
EndChar

StartChar: nine
Encoding: 57 57 281
Width: 1284
VWidth: 0
GlyphClass: 2
Flags: HW
PickledData: "(dp1
S'org.pippin.gimp.org.kernagic'
p2
(dp3
S'lstem'
p4
I0
sS'rstem'
p5
I0
ssS'com.typemytype.robofont.layerData'
p6
(dp7
sS'org.robofab.postScriptHintData'
p8
(dp9
s."
LayerCount: 2
Fore
SplineSet
347 0 m 1
 347 24 l 1
 504 224 663 423 819 625 c 1
 755 586 675 563 598 563 c 0
 368 563 169 733 169 1014 c 0
 169 1278 368 1476 671 1476 c 0
 987 1476 1168 1258 1168 1003 c 0
 1168 797 1082 655 954 488 c 2
 583 0 l 1
 347 0 l 1
953 1013 m 0
 953 1176 851 1312 671 1312 c 0
 491 1312 385 1177 385 1013 c 0
 385 842 480 713 659 713 c 0
 790 713 953 793 953 1013 c 0
EndSplineSet
EndChar

StartChar: notequal
Encoding: 8800 8800 282
Width: 1109
VWidth: 0
GlyphClass: 2
Flags: HW
PickledData: "(dp1
S'org.pippin.gimp.org.kernagic'
p2
(dp3
S'lstem'
p4
I0
sS'rstem'
p5
I0
ssS'com.typemytype.robofont.layerData'
p6
(dp7
S'b'
(dp8
S'name'
p9
S'notequal'
p10
sS'lib'
p11
(dp12
sS'unicodes'
p13
(tsS'width'
p14
I1079
sS'contours'
p15
(tsS'components'
p16
(tsS'anchors'
p17
(tsssS'org.robofab.postScriptHintData'
p18
(dp19
s."
LayerCount: 2
Fore
SplineSet
330 46 m 1
 211 67 l 1
 327 343 l 1
 73 343 l 1
 66 482 l 1
 392 482 l 1
 534 769 l 1
 73 769 l 1
 64 911 l 1
 596 911 l 1
 732 1196 l 1
 853 1179 l 1
 739 911 l 1
 1008 911 l 1
 1018 768 l 1
 677 768 l 1
 532 481 l 1
 1010 481 l 1
 1018 343 l 1
 470 343 l 1
 330 46 l 1
EndSplineSet
EndChar

StartChar: numbersign
Encoding: 35 35 284
Width: 1149
VWidth: 0
GlyphClass: 2
Flags: HW
PickledData: "(dp1
S'org.pippin.gimp.org.kernagic'
p2
(dp3
S'lstem'
p4
I0
sS'rstem'
p5
I0
ssS'com.typemytype.robofont.layerData'
p6
(dp7
sS'org.robofab.postScriptHintData'
p8
(dp9
s."
LayerCount: 2
Fore
SplineSet
165 -14 m 1
 254 441 l 1
 65 441 l 1
 79 546 l 1
 274 546 l 1
 359 979 l 1
 164 979 l 1
 178 1083 l 1
 379 1083 l 1
 472 1533 l 1
 596 1533 l 1
 503 1083 l 1
 783 1083 l 1
 877 1533 l 1
 998 1533 l 1
 905 1083 l 1
 1100 1083 l 1
 1083 979 l 1
 885 979 l 1
 801 546 l 1
 1008 546 l 1
 992 441 l 1
 780 441 l 1
 690 -14 l 1
 569 -14 l 1
 657 441 l 1
 377 441 l 1
 288 -14 l 1
 165 -14 l 1
397 546 m 1
 678 546 l 1
 763 979 l 1
 483 979 l 1
 397 546 l 1
EndSplineSet
EndChar

StartChar: o
Encoding: 111 111 285
Width: 1215
VWidth: 0
GlyphClass: 2
Flags: HW
PickledData: "(dp1
S'org.pippin.gimp.org.kernagic'
p2
(dp3
S'lstem'
p4
I0
sS'rstem'
p5
I0
ssS'com.typemytype.robofont.guides'
p6
((dp7
S'y'
I1093
sS'x'
I582
sS'magnetic'
p8
I5
sS'angle'
p9
F90
sS'isGlobal'
p10
I00
stp11
sS'com.typemytype.robofont.layerData'
p12
(dp13
sS'com.fontlab.hintData'
p14
(dp15
S'vhints'
p16
((dp17
S'position'
p18
I128
sS'width'
p19
I120
s(dp20
g18
I982
sg19
I120
stp21
sS'hhints'
p22
((dp23
g18
I-19
sg19
I92
s(dp24
g18
I982
sg19
I92
stp25
ssS'org.robofab.postScriptHintData'
p26
(dp27
s."
HStem: -19 92 982 92
VStem: 128 120 982 120
AnchorPoint: "ogonek" 703 1 basechar 0
AnchorPoint: "top" 608 1082 basechar 0
LayerCount: 2
Fore
SplineSet
608 134 m 0
 800 134 887 298 887 542 c 0
 887 790 800 951 608 951 c 0
 415 951 328 790 328 542 c 0
 328 297 414 134 608 134 c 0
608 -21 m 0
 288 -21 106 207 106 543 c 0
 106 883 286 1105 608 1105 c 0
 929 1105 1109 883 1109 543 c 0
 1109 207 927 -21 608 -21 c 0
EndSplineSet
EndChar

StartChar: oe
Encoding: 339 339 290
Width: 1896
VWidth: 0
GlyphClass: 2
Flags: HW
PickledData: "(dp1
S'org.pippin.gimp.org.kernagic'
p2
(dp3
S'lstem'
p4
I0
sS'rstem'
p5
I0
ssS'com.typemytype.robofont.layerData'
p6
(dp7
S'b'
(dp8
S'name'
p9
S'oe'
p10
sS'lib'
p11
(dp12
sS'unicodes'
p13
(tsS'width'
p14
F1915.3599999999999
sS'contours'
p15
(tsS'components'
p16
(tsS'anchors'
p17
(tsssS'org.robofab.postScriptHintData'
p18
(dp19
s."
LayerCount: 2
Fore
SplineSet
1798 606 m 2
 1798 594 l 2
 1798 550 1790 494 1790 494 c 1
 1080 494 l 1
 1090 226 1253 132 1427 132 c 0
 1548 133 1637 174 1711 223 c 1
 1724 223 l 1
 1773 91 l 1
 1693 31 1563 -19 1407 -19 c 0
 1231 -19 1054 81 984 227 c 1
 927 86 768 -19 589 -19 c 0
 278 -19 98 206 98 543 c 0
 98 884 275 1104 589 1104 c 0
 769 1104 924 1006 986 863 c 1
 1056 1007 1218 1104 1376 1104 c 0
 1644 1104 1798 910 1798 606 c 2
589 132 m 0
 791 132 880 298 880 542 c 0
 880 789 791 952 589 952 c 0
 387 952 298 789 298 542 c 0
 298 298 386 132 589 132 c 0
1084 624 m 1
 1628 624 l 1
 1623 845 1542 955 1382 955 c 0
 1224 955 1101 834 1084 624 c 1
EndSplineSet
EndChar

StartChar: ogonek
Encoding: 731 731 291
Width: 766
VWidth: 0
GlyphClass: 4
Flags: HW
PickledData: "(dp1
S'org.pippin.gimp.org.kernagic'
p2
(dp3
S'lstem'
p4
I0
sS'rstem'
p5
I0
ssS'com.typemytype.robofont.layerData'
p6
(dp7
sS'org.robofab.postScriptHintData'
p8
(dp9
s."
AnchorPoint: "ogonek" 490 0 mark 0
LayerCount: 2
Fore
SplineSet
444 -428 m 0
 323 -428 249 -369 249 -267 c 0
 249 -147 353 -39 449 4 c 1
 540 4 l 1
 475 -45 403 -151 403 -224 c 0
 403 -275 439 -303 483 -303 c 0
 529 -303 581 -284 598 -276 c 1
 602 -395 l 1
 561 -413 498 -428 444 -428 c 0
EndSplineSet
EndChar

StartChar: one
Encoding: 49 49 295
Width: 1284
VWidth: 0
GlyphClass: 2
Flags: HW
PickledData: "(dp1
S'org.pippin.gimp.org.kernagic'
p2
(dp3
S'lstem'
p4
I0
sS'rstem'
p5
I0
ssS'com.typemytype.robofont.layerData'
p6
(dp7
sS'org.robofab.postScriptHintData'
p8
(dp9
s."
LayerCount: 2
Fore
SplineSet
197 0 m 1
 197 158 l 1
 582 158 l 1
 582 1257 l 1
 471 1198 290 1139 206 1128 c 1
 206 1291 l 1
 304 1315 524 1396 607 1456 c 1
 809 1456 l 1
 809 158 l 1
 1152 158 l 1
 1152 0 l 1
 197 0 l 1
EndSplineSet
EndChar

StartChar: onehalf
Encoding: 189 189 296
Width: 1810
VWidth: 0
GlyphClass: 2
Flags: HW
PickledData: "(dp1
S'org.pippin.gimp.org.kernagic'
p2
(dp3
S'lstem'
p4
I0
sS'rstem'
p5
I0
ssS'com.typemytype.robofont.layerData'
p6
(dp7
sS'org.robofab.postScriptHintData'
p8
(dp9
s."
LayerCount: 2
Fore
SplineSet
1180 0 m 1
 1171 120 l 1
 1433 383 l 1
 1531 483 1562 543 1562 608 c 0
 1562 697 1497 742 1419 742 c 0
 1340 742 1267 704 1210 628 c 1
 1129 717 l 1
 1185 809 1296 875 1422 875 c 0
 1599 875 1715 771 1715 613 c 0
 1715 488 1658 406 1532 290 c 2
 1353 125 l 1
 1707 125 l 1
 1701 0 l 1
 1180 0 l 1
141 595 m 1
 141 716 l 1
 292 716 l 1
 292 1330 l 1
 255 1308 153 1264 132 1256 c 1
 132 1378 l 1
 168 1395 288 1453 326 1485 c 1
 449 1485 l 1
 449 716 l 1
 589 716 l 1
 589 595 l 1
 141 595 l 1
381 0 m 1
 1311 1485 l 1
 1463 1485 l 1
 534 0 l 1
 381 0 l 1
EndSplineSet
EndChar

StartChar: onequarter
Encoding: 188 188 297
Width: 1712
VWidth: 0
GlyphClass: 2
Flags: HW
PickledData: "(dp1
S'org.pippin.gimp.org.kernagic'
p2
(dp3
S'lstem'
p4
I0
sS'rstem'
p5
I0
ssS'com.typemytype.robofont.layerData'
p6
(dp7
sS'org.robofab.postScriptHintData'
p8
(dp9
s."
LayerCount: 2
Fore
SplineSet
130 595 m 1
 130 724 l 1
 280 724 l 1
 280 1322 l 1
 243 1300 139 1257 118 1248 c 1
 118 1378 l 1
 154 1395 271 1453 309 1485 c 1
 432 1485 l 1
 432 724 l 1
 570 724 l 1
 570 595 l 1
 130 595 l 1
1386 0 m 1
 1386 187 l 1
 992 187 l 1
 992 297 l 1
 1376 862 l 1
 1526 862 l 1
 1526 305 l 1
 1639 305 l 1
 1640 187 l 1
 1526 187 l 1
 1526 0 l 1
 1386 0 l 1
360 0 m 1
 1294 1485 l 1
 1449 1485 l 1
 518 0 l 1
 360 0 l 1
1145 305 m 1
 1385 305 l 1
 1385 677 l 1
 1145 305 l 1
EndSplineSet
EndChar

StartChar: ordmasculine
Encoding: 186 186 299
Width: 965
VWidth: 0
GlyphClass: 2
Flags: HW
PickledData: "(dp1
S'org.pippin.gimp.org.kernagic'
p2
(dp3
S'lstem'
p4
I0
sS'rstem'
p5
I0
ssS'com.typemytype.robofont.layerData'
p6
(dp7
S'b'
(dp8
S'name'
p9
S'ordmasculine'
p10
sS'lib'
p11
(dp12
sS'unicodes'
p13
(tsS'width'
p14
I965
sS'contours'
p15
(tsS'components'
p16
(tsS'anchors'
p17
(tsssS'org.robofab.postScriptHintData'
p18
(dp19
s."
LayerCount: 2
Fore
SplineSet
134 1104 m 0
 134 1329 255 1498 480 1498 c 0
 711 1498 827 1332 827 1104 c 0
 827 885 693 714 480 714 c 0
 255 714 134 882 134 1104 c 0
676 1101 m 0
 676 1272 608 1370 480 1370 c 0
 356 1370 292 1274 292 1104 c 0
 292 935 355 842 480 842 c 0
 613 842 676 934 676 1101 c 0
EndSplineSet
EndChar

StartChar: oslash
Encoding: 248 248 300
Width: 1215
VWidth: 0
GlyphClass: 2
Flags: HW
PickledData: "(dp1
S'org.pippin.gimp.org.kernagic'
p2
(dp3
S'lstem'
p4
I0
sS'rstem'
p5
I0
ssS'com.typemytype.robofont.layerData'
p6
(dp7
sS'org.robofab.postScriptHintData'
p8
(dp9
s."
LayerCount: 2
Fore
SplineSet
748.075527218 912.780631758 m 1
 395.661482798 245.484882365 l 1
 349.628904684 316.88954978 328 419.133320332 328 542 c 0
 328 790 415 951 608 951 c 0
 663.240633582 951 709.789578854 937.672744592 748.075527218 912.780631758 c 1
810.903318886 852.129648705 m 1
 862.52946934 780.582762982 887 673.526646821 887 542 c 0
 887 298 800 134 608 134 c 0
 545.571725528 134 494.327085369 150.879003638 453.532982451 181.937880789 c 1
 810.903318886 852.129648705 l 1
200 -125 m 1
 268 -166 l 1
 372.533391278 30.0359077527 l 1
 439.548566294 -3.10876927284 518.359831743 -21 608 -21 c 0
 927 -21 1109 207 1109 543 c 0
 1109 758.945687235 1036.3887788 927.290685019 901.158544291 1021.38910566 c 1
 998 1203 l 1
 923 1244 l 1
 827.216635736 1062.63426601 l 1
 763.933049179 1090.28659166 690.639025888 1105 608 1105 c 0
 286 1105 106 883 106 543 c 0
 106 335.367464925 175.499814618 168.976578086 304.116486655 72.1444954782 c 1
 200 -125 l 1
EndSplineSet
EndChar

StartChar: p
Encoding: 112 112 303
Width: 1224
VWidth: 0
GlyphClass: 2
Flags: HW
PickledData: "(dp1
S'org.pippin.gimp.org.kernagic'
p2
(dp3
S'lstem'
p4
I0
sS'rstem'
p5
I0
ssS'com.typemytype.robofont.layerData'
p6
(dp7
sS'com.fontlab.hintData'
p8
(dp9
S'vhints'
p10
((dp11
S'position'
p12
I193
sS'width'
p13
I122
s(dp14
g12
I193
sg13
I97
s(dp15
g12
I1009
sg13
I122
stp16
sS'hhints'
p17
((dp18
g12
I-19
sg13
I92
s(dp19
g12
I982
sg13
I92
stp20
ssS'org.robofab.postScriptHintData'
p21
(dp22
s."
HStem: -19 92 982 92
VStem: 193 122 193 97 1009 122
AnchorPoint: "top" 665 1082 basechar 0
LayerCount: 2
Fore
SplineSet
158 -462 m 1
 158 1082 l 1
 344 1082 l 1
 359 865 l 1
 410 1015 522 1105 688 1105 c 0
 980 1105 1117 874 1117 542 c 0
 1117 212 949 -20 663 -20 c 0
 530 -20 432 25 369 92 c 1
 374 -65 l 1
 374 -462 l 1
 158 -462 l 1
631 134 m 0
 807 134 896 273 896 543 c 0
 896 795 829 951 649 951 c 0
 460 951 377 813 369 610 c 1
 369 258 l 1
 429 176 520 134 631 134 c 0
EndSplineSet
EndChar

StartChar: paragraph
Encoding: 182 182 304
Width: 1166
VWidth: 0
GlyphClass: 2
Flags: HW
PickledData: "(dp1
S'org.pippin.gimp.org.kernagic'
p2
(dp3
S'lstem'
p4
I0
sS'rstem'
p5
I0
ssS'com.typemytype.robofont.layerData'
p6
(dp7
sS'org.robofab.postScriptHintData'
p8
(dp9
s."
LayerCount: 2
Fore
SplineSet
656 1326 m 1
 656 -215 l 1
 517 -215 l 1
 517 747 l 1
 235 747 125 919 125 1100 c 0
 125 1291 232 1456 578 1456 c 2
 946 1456 l 1
 946 -215 l 1
 807 -215 l 1
 807 1326 l 1
 656 1326 l 1
EndSplineSet
EndChar

StartChar: parenleft
Encoding: 40 40 305
Width: 796
VWidth: 0
GlyphClass: 2
Flags: HW
PickledData: "(dp1
S'org.pippin.gimp.org.kernagic'
p2
(dp3
S'lstem'
p4
I0
sS'rstem'
p5
I0
ssS'com.typemytype.robofont.layerData'
p6
(dp7
S'b'
(dp8
S'name'
p9
S'parenright'
p10
sS'lib'
p11
(dp12
sS'unicodes'
p13
(tsS'width'
p14
I766
sS'contours'
p15
(tsS'components'
p16
(tsS'anchors'
p17
(tsssS'org.robofab.postScriptHintData'
p18
(dp19
s."
LayerCount: 2
Fore
SplineSet
211 672 m 256
 211 1006 312 1343 475 1592 c 257
 642 1592 l 257
 642 1556 l 257
 478 1301 389 1018 389 672 c 256
 389 326 478 40 642 -216 c 257
 642 -248 l 257
 475 -248 l 257
 312 1 211 338 211 672 c 256
EndSplineSet
EndChar

StartChar: parenright
Encoding: 41 41 306
Width: 796
VWidth: 0
GlyphClass: 2
Flags: HW
PickledData: "(dp1
S'org.pippin.gimp.org.kernagic'
p2
(dp3
S'lstem'
p4
I0
sS'rstem'
p5
I0
ssS'com.typemytype.robofont.layerData'
p6
(dp7
S'b'
(dp8
S'name'
p9
S'parenright'
p10
sS'lib'
p11
(dp12
sS'unicodes'
p13
(tsS'width'
p14
I766
sS'contours'
p15
(tsS'components'
p16
(tsS'anchors'
p17
(tsssS'org.robofab.postScriptHintData'
p18
(dp19
s."
LayerCount: 2
Fore
SplineSet
590 672 m 0
 590 338 489 1 326 -248 c 1
 159 -248 l 1
 159 -216 l 1
 323 40 412 326 412 672 c 0
 412 1018 323 1301 159 1556 c 1
 159 1592 l 1
 326 1592 l 1
 489 1343 590 1006 590 672 c 0
EndSplineSet
EndChar

StartChar: partialdiff
Encoding: 8706 8706 307
Width: 1223
VWidth: 0
GlyphClass: 2
Flags: HW
PickledData: "(dp1
S'org.robofab.postScriptHintData'
p2
(dp3
s."
LayerCount: 2
Fore
SplineSet
488 -20 m 0
 273 -20 171 121 171 294 c 0
 171 568 425 924 881 931 c 1
 882 944 882 957 882 969 c 0
 882 1251 718 1421 505 1421 c 0
 436 1421 363 1403 288 1366 c 1
 245 1475 l 1
 348 1533 451 1560 548 1560 c 0
 839 1560 1075 1316 1075 913 c 0
 1075 385 840 -20 488 -20 c 0
502 98 m 0
 744 98 855 542 875 828 c 1
 559 808 391 475 391 266 c 0
 391 169 428 98 502 98 c 0
EndSplineSet
EndChar

StartChar: percent
Encoding: 37 37 308
Width: 1744
VWidth: 0
GlyphClass: 2
Flags: HW
PickledData: "(dp1
S'org.pippin.gimp.org.kernagic'
p2
(dp3
S'lstem'
p4
I0
sS'rstem'
p5
I0
ssS'com.typemytype.robofont.layerData'
p6
(dp7
S'b'
(dp8
S'name'
p9
S'percent'
p10
sS'lib'
p11
(dp12
sS'unicodes'
p13
(tsS'width'
p14
I1563
sS'contours'
p15
(tsS'components'
p16
(tsS'anchors'
p17
(tsssS'org.robofab.postScriptHintData'
p18
(dp19
s."
LayerCount: 2
Fore
SplineSet
403 838 m 0
 548 838 589 957 589 1109 c 0
 589 1265 547 1375 403 1375 c 0
 258 1375 216 1260 216 1109 c 0
 216 953 258 838 403 838 c 0
401 716 m 0
 168 716 77 887 77 1107 c 0
 77 1328 172 1496 401 1496 c 0
 635 1496 735 1331 735 1107 c 0
 735 887 632 716 401 716 c 0
340 0 m 1
 1177 1476 l 1
 1331 1476 l 1
 504 0 l 1
 340 0 l 1
1274 111 m 0
 1419 111 1460 231 1460 382 c 0
 1460 539 1418 649 1274 649 c 0
 1129 649 1087 533 1087 382 c 0
 1087 227 1129 111 1274 111 c 0
1272 -11 m 0
 1039 -11 940 160 940 381 c 0
 940 601 1043 770 1272 770 c 0
 1506 770 1606 605 1606 381 c 0
 1606 160 1503 -11 1272 -11 c 0
EndSplineSet
EndChar

StartChar: period
Encoding: 46 46 309
Width: 654
VWidth: 0
GlyphClass: 2
Flags: HW
PickledData: "(dp1
S'org.pippin.gimp.org.kernagic'
p2
(dp3
S'lstem'
p4
I0
sS'rstem'
p5
I0
ssS'com.typemytype.robofont.layerData'
p6
(dp7
S'b'
(dp8
S'name'
p9
S'period'
p10
sS'lib'
p11
(dp12
sS'unicodes'
p13
(tsS'width'
p14
I624
sS'contours'
p15
(tsS'components'
p16
(tsS'anchors'
p17
(tsssS'org.robofab.postScriptHintData'
p18
(dp19
s."
LayerCount: 2
Fore
SplineSet
328 -10 m 0
 249 -10 207 35 207 121 c 0
 207 205 249 250 328 250 c 0
 405 250 447 205 447 121 c 0
 447 36 405 -10 328 -10 c 0
EndSplineSet
EndChar

StartChar: periodcentered
Encoding: 183 183 310
Width: 638
VWidth: 0
GlyphClass: 2
Flags: HW
PickledData: "(dp1
S'org.pippin.gimp.org.kernagic'
p2
(dp3
S'lstem'
p4
I0
sS'rstem'
p5
I0
ssS'com.typemytype.robofont.layerData'
p6
(dp7
S'b'
(dp8
S'name'
p9
S'periodcentered'
p10
sS'lib'
p11
(dp12
sS'unicodes'
p13
(tsS'width'
p14
I653
sS'contours'
p15
(tsS'components'
p16
(tsS'anchors'
p17
(tsssS'org.robofab.postScriptHintData'
p18
(dp19
s."
LayerCount: 2
Fore
SplineSet
366 496 m 0
 290 496 238 548 238 625 c 0
 238 701 290 751 366 751 c 0
 440 751 493 701 493 625 c 0
 493 548 440 496 366 496 c 0
EndSplineSet
EndChar

StartChar: perthousand
Encoding: 8240 8240 311
Width: 2516
VWidth: 0
GlyphClass: 2
Flags: HW
PickledData: "(dp1
S'org.pippin.gimp.org.kernagic'
p2
(dp3
S'lstem'
p4
I0
sS'rstem'
p5
I0
ssS'com.typemytype.robofont.layerData'
p6
(dp7
S'b'
(dp8
S'name'
p9
S'perthousand'
p10
sS'lib'
p11
(dp12
sS'unicodes'
p13
(tsS'width'
p14
I2251
sS'contours'
p15
(tsS'components'
p16
(tsS'anchors'
p17
(tsssS'org.robofab.postScriptHintData'
p18
(dp19
s."
LayerCount: 2
Fore
SplineSet
2046 111 m 0
 2190 111 2231 231 2231 382 c 0
 2231 539 2189 649 2046 649 c 0
 1901 649 1858 533 1858 382 c 0
 1858 227 1901 111 2046 111 c 0
2044 -11 m 0
 1811 -11 1712 160 1712 381 c 0
 1712 601 1815 770 2044 770 c 0
 2278 770 2377 605 2377 381 c 0
 2377 160 2275 -11 2044 -11 c 0
EndSplineSet
Refer: 308 37 N 1 0 0 1 21 0 2
EndChar

StartChar: pi
Encoding: 960 960 312
Width: 1454
VWidth: 0
GlyphClass: 2
Flags: HW
PickledData: "(dp1
S'org.robofab.postScriptHintData'
p2
(dp3
sS'com.typemytype.robofont.layerData'
p4
(dp5
s."
LayerCount: 2
Fore
SplineSet
1144 -13 m 0
 977 -13 904 78 904 261 c 0
 904 414 942 671 976 893 c 1
 609 893 l 1
 583 329 l 2
 573 107 501 4 150 4 c 1
 150 114 l 1
 258 114 388 175 416 395 c 2
 481 893 l 1
 368 893 l 2
 287 893 247 837 235 759 c 1
 138 759 l 1
 138 979 212 1082 453 1082 c 2
 1357 1082 l 1
 1357 893 l 1
 1117 893 l 1
 1095 700 1086 490 1086 378 c 0
 1086 215 1133 146 1205 146 c 0
 1247 146 1296 165 1324 175 c 1
 1324 45 l 1
 1290 11 1223 -13 1144 -13 c 0
EndSplineSet
EndChar

StartChar: plus
Encoding: 43 43 313
Width: 1151
VWidth: 0
GlyphClass: 2
Flags: HW
PickledData: "(dp1
S'org.pippin.gimp.org.kernagic'
p2
(dp3
S'lstem'
p4
I0
sS'rstem'
p5
I0
ssS'com.typemytype.robofont.layerData'
p6
(dp7
S'b'
(dp8
S'name'
p9
S'plus'
p10
sS'lib'
p11
(dp12
sS'unicodes'
p13
(tsS'width'
p14
I1136
sS'contours'
p15
(tsS'components'
p16
(tsS'anchors'
p17
(tsssS'org.robofab.postScriptHintData'
p18
(dp19
s."
LayerCount: 2
Fore
SplineSet
475 1177 m 1
 667 1177 l 1
 667 800 l 1
 1024 800 l 1
 1024 613 l 1
 667 613 l 1
 667 230 l 1
 474 230 l 1
 474 613 l 1
 114 613 l 1
 114 800 l 1
 475 800 l 1
 475 1177 l 1
EndSplineSet
EndChar

StartChar: plusminus
Encoding: 177 177 314
Width: 1136
VWidth: 0
GlyphClass: 2
Flags: HW
PickledData: "(dp1
S'org.pippin.gimp.org.kernagic'
p2
(dp3
S'lstem'
p4
I0
sS'rstem'
p5
I0
ssS'com.typemytype.robofont.layerData'
p6
(dp7
sS'org.robofab.postScriptHintData'
p8
(dp9
s."
LayerCount: 2
Fore
SplineSet
487 1148 m 1
 642 1148 l 1
 642 772 l 1
 1005 772 l 1
 1005 623 l 1
 643 623 l 1
 643 243 l 1
 487 243 l 1
 487 623 l 1
 120 623 l 1
 120 772 l 1
 487 772 l 1
 487 1148 l 1
105 141 m 1
 1037 141 l 1
 1037 0 l 1
 105 0 l 1
 105 141 l 1
EndSplineSet
EndChar

StartChar: product
Encoding: 8719 8719 315
Width: 1548
VWidth: 0
GlyphClass: 2
Flags: HW
PickledData: "(dp1
S'org.pippin.gimp.org.kernagic'
p2
(dp3
S'lstem'
p4
I0
sS'rstem'
p5
I0
ssS'com.typemytype.robofont.layerData'
p6
(dp7
S'b'
(dp8
S'name'
p9
S'product'
p10
sS'lib'
p11
(dp12
sS'unicodes'
p13
(tsS'width'
p14
I1533
sS'contours'
p15
(tsS'components'
p16
(tsS'anchors'
p17
(tsssS'org.robofab.postScriptHintData'
p18
(dp19
s."
LayerCount: 2
Fore
SplineSet
201 1508 m 1
 1351 1508 l 1
 1351 0 l 1
 1177 0 l 1
 1177 1354 l 1
 375 1354 l 1
 375 0 l 1
 201 0 l 1
 201 1508 l 1
EndSplineSet
EndChar

StartChar: q
Encoding: 113 113 316
Width: 1217
VWidth: 0
GlyphClass: 2
Flags: HW
PickledData: "(dp1
S'org.pippin.gimp.org.kernagic'
p2
(dp3
S'lstem'
p4
I0
sS'rstem'
p5
I0
ssS'com.typemytype.robofont.layerData'
p6
(dp7
sS'org.robofab.postScriptHintData'
p8
(dp9
s."
LayerCount: 2
Fore
SplineSet
567 -20 m 0
 263 -20 104 210 104 546 c 0
 104 877 274 1105 567 1105 c 0
 712 1105 810 1038 868 951 c 1
 877 1082 l 1
 1062 1082 l 1
 1062 -462 l 1
 847 -462 l 1
 847 -28 l 1
 850 93 l 1
 775 14 668 -20 567 -20 c 0
599 134 m 0
 709 134 799 174 851 245 c 1
 851 822 l 1
 792 909 703 951 594 951 c 0
 418 951 325 809 325 546 c 0
 325 269 420 134 599 134 c 0
EndSplineSet
EndChar

StartChar: question
Encoding: 63 63 317
Width: 953
VWidth: 0
GlyphClass: 2
Flags: HW
PickledData: "(dp1
S'org.pippin.gimp.org.kernagic'
p2
(dp3
S'lstem'
p4
I0
sS'rstem'
p5
I0
ssS'com.typemytype.robofont.layerData'
p6
(dp7
sS'org.robofab.postScriptHintData'
p8
(dp9
s."
LayerCount: 2
Fore
SplineSet
330 446 m 1
 370 769 593 920 593 1119 c 0
 593 1246 529 1315 407 1315 c 0
 310 1315 215 1265 163 1232 c 1
 116 1390 l 1
 197 1458 314 1498 437 1498 c 0
 628 1498 798 1392 798 1152 c 0
 798 832 537 787 411 439 c 1
 330 446 l 1
370 -15 m 0
 285 -15 242 43 242 112 c 0
 242 180 285 238 370 238 c 0
 453 238 495 180 495 112 c 0
 495 42 453 -15 370 -15 c 0
EndSplineSet
EndChar

StartChar: quotedbl
Encoding: 34 34 319
Width: 736
VWidth: 0
GlyphClass: 2
Flags: HW
PickledData: "(dp1
S'org.robofab.postScriptHintData'
p2
(dp3
sS'com.typemytype.robofont.layerData'
p4
(dp5
s."
LayerCount: 2
Fore
SplineSet
172 979 m 1
 103 1534 l 1
 315 1534 l 1
 276 979 l 1
 172 979 l 1
493 979 m 1
 423 1534 l 1
 636 1534 l 1
 596 979 l 1
 493 979 l 1
EndSplineSet
EndChar

StartChar: quotedblbase
Encoding: 8222 8222 320
Width: 804
VWidth: 0
GlyphClass: 2
Flags: HW
PickledData: "(dp1
S'org.robofab.postScriptHintData'
p2
(dp3
s."
LayerCount: 2
Fore
SplineSet
108 -327 m 1
 156 157 l 1
 355 157 l 1
 246 -327 l 1
 108 -327 l 1
439 -327 m 1
 485 157 l 1
 688 157 l 1
 574 -327 l 1
 439 -327 l 1
EndSplineSet
EndChar

StartChar: quotedblleft
Encoding: 8220 8220 321
Width: 920
VWidth: 0
GlyphClass: 2
Flags: HW
PickledData: "(dp1
S'org.robofab.postScriptHintData'
p2
(dp3
sS'com.typemytype.robofont.layerData'
p4
(dp5
s."
LayerCount: 2
Fore
SplineSet
150 1022 m 1
 262 1513 l 1
 408 1513 l 1
 364 1022 l 1
 150 1022 l 1
517 1022 m 1
 630 1513 l 1
 776 1513 l 1
 732 1022 l 1
 517 1022 l 1
EndSplineSet
EndChar

StartChar: quotedblright
Encoding: 8221 8221 322
Width: 920
VWidth: 0
GlyphClass: 2
Flags: HW
PickledData: "(dp1
S'org.robofab.postScriptHintData'
p2
(dp3
sS'com.typemytype.robofont.layerData'
p4
(dp5
s."
LayerCount: 2
Fore
SplineSet
517 1022 m 1
 561 1513 l 1
 776 1513 l 1
 663 1022 l 1
 517 1022 l 1
150 1022 m 1
 194 1513 l 1
 408 1513 l 1
 295 1022 l 1
 150 1022 l 1
EndSplineSet
EndChar

StartChar: quoteleft
Encoding: 8216 8216 323
Width: 526
VWidth: 0
GlyphClass: 2
Flags: HW
PickledData: "(dp1
S'org.robofab.postScriptHintData'
p2
(dp3
sS'com.typemytype.robofont.layerData'
p4
(dp5
s."
LayerCount: 2
Fore
SplineSet
408 1513 m 1
 364 1022 l 1
 150 1022 l 1
 262 1513 l 1
 408 1513 l 1
EndSplineSet
EndChar

StartChar: quoteright
Encoding: 8217 8217 324
Width: 526
VWidth: 0
GlyphClass: 2
Flags: HW
PickledData: "(dp1
S'org.robofab.postScriptHintData'
p2
(dp3
sS'com.typemytype.robofont.layerData'
p4
(dp5
s."
LayerCount: 2
Fore
SplineSet
150 1022 m 1
 194 1513 l 1
 408 1513 l 1
 295 1022 l 1
 150 1022 l 1
EndSplineSet
EndChar

StartChar: quotesinglbase
Encoding: 8218 8218 325
Width: 472
VWidth: 0
GlyphClass: 2
Flags: HW
PickledData: "(dp1
S'org.robofab.postScriptHintData'
p2
(dp3
s."
LayerCount: 2
Fore
SplineSet
100 -327 m 1
 151 157 l 1
 354 157 l 1
 239 -327 l 1
 100 -327 l 1
EndSplineSet
EndChar

StartChar: quotesingle
Encoding: 39 39 326
Width: 459
VWidth: 0
GlyphClass: 2
Flags: HW
PickledData: "(dp1
S'org.robofab.postScriptHintData'
p2
(dp3
s."
LayerCount: 2
Fore
SplineSet
169 947 m 1
 111 1514 l 1
 316 1514 l 1
 283 947 l 1
 169 947 l 1
EndSplineSet
EndChar

StartChar: r
Encoding: 114 114 327
Width: 797
VWidth: 0
GlyphClass: 2
Flags: HW
PickledData: "(dp1
S'org.pippin.gimp.org.kernagic'
p2
(dp3
S'lstem'
p4
I0
sS'rstem'
p5
I352
ssS'com.typemytype.robofont.layerData'
p6
(dp7
sS'com.fontlab.hintData'
p8
(dp9
S'vhints'
p10
((dp11
S'position'
p12
I193
sS'width'
p13
I122
s(dp14
g12
I193
sg13
I92
stp15
sS'hhints'
p16
((dp17
g12
I974
sg13
I94
stp18
ssS'org.robofab.postScriptHintData'
p19
(dp20
s."
HStem: 974 94
VStem: 193 122 193 92
AnchorPoint: "bot" 305 0 basechar 0
AnchorPoint: "top" 452 1082 basechar 0
LayerCount: 2
Fore
SplineSet
157 0 m 1
 157 1082 l 1
 338 1082 l 1
 356 868 l 1
 428 1036 541 1094 658 1094 c 0
 687 1094 717 1093 749 1087 c 1
 733 920 l 1
 690 922 l 1
 681 922 l 2
 483 922 374 788 374 613 c 2
 374 0 l 1
 157 0 l 1
EndSplineSet
EndChar

StartChar: radical
Encoding: 8730 8730 329
Width: 1202
VWidth: 0
GlyphClass: 2
Flags: HW
PickledData: "(dp1
S'org.pippin.gimp.org.kernagic'
p2
(dp3
S'lstem'
p4
I0
sS'rstem'
p5
I0
ssS'com.typemytype.robofont.layerData'
p6
(dp7
S'b'
(dp8
S'name'
p9
S'radical'
p10
sS'lib'
p11
(dp12
sS'unicodes'
p13
(tsS'width'
p14
I1136
sS'contours'
p15
(tsS'components'
p16
(tsS'anchors'
p17
(tsssS'org.robofab.postScriptHintData'
p18
(dp19
s."
LayerCount: 2
Fore
SplineSet
1009 1679 m 1
 1170 1679 l 1
 717 -164 l 1
 538 -164 l 1
 207 754 l 1
 60 720 l 1
 42 842 l 1
 321 912 l 1
 416 636 519 368 606 84 c 1
 705 503 909 1260 1009 1679 c 1
EndSplineSet
EndChar

StartChar: registered
Encoding: 174 174 332
Width: 1861
VWidth: 0
GlyphClass: 2
Flags: HW
PickledData: "(dp1
S'org.pippin.gimp.org.kernagic'
p2
(dp3
S'lstem'
p4
I0
sS'rstem'
p5
I0
ssS'com.typemytype.robofont.layerData'
p6
(dp7
sS'org.robofab.postScriptHintData'
p8
(dp9
s."
LayerCount: 2
Fore
SplineSet
623 300 m 1
 623 1203 l 1
 927 1203 l 2
 1150 1203 1248 1139 1248 965 c 0
 1248 834 1191 752 1055 730 c 1
 1067 714 1285 300 1285 300 c 1
 1140 300 l 1
 1140 300 933 709 926 717 c 1
 750 717 l 1
 750 300 l 1
 623 300 l 1
751 819 m 1
 934 819 l 2
 1074 819 1123 856 1123 960 c 0
 1123 1085 1064 1096 906 1096 c 2
 751 1096 l 1
 751 819 l 1
915 75 m 0
 1245 75 1549 317 1549 728 c 0
 1549 1138 1245 1381 915 1381 c 0
 586 1381 285 1138 285 728 c 0
 285 317 586 75 915 75 c 0
915 -30 m 0
 528 -30 162 250 162 728 c 0
 162 1206 528 1486 915 1486 c 0
 1303 1486 1670 1206 1670 728 c 0
 1670 250 1303 -30 915 -30 c 0
EndSplineSet
EndChar

StartChar: ring
Encoding: 730 730 333
Width: 733
VWidth: 0
GlyphClass: 4
Flags: HW
PickledData: "(dp1
S'org.robofab.postScriptHintData'
p2
(dp3
sS'com.typemytype.robofont.layerData'
p4
(dp5
s."
AnchorPoint: "top" 352 1069 mark 0
LayerCount: 2
Fore
SplineSet
353 1286 m 0
 411 1286 451 1334 451 1389 c 0
 451 1443 411 1492 353 1492 c 0
 296 1492 259 1443 259 1389 c 0
 259 1333 294 1286 353 1286 c 0
353 1196 m 0
 235 1196 154 1285 154 1391 c 0
 154 1497 234 1583 353 1583 c 0
 473 1583 554 1496 554 1391 c 0
 554 1285 472 1196 353 1196 c 0
EndSplineSet
EndChar

StartChar: s
Encoding: 115 115 334
Width: 983
VWidth: 0
GlyphClass: 2
Flags: HW
PickledData: "(dp1
S'org.pippin.gimp.org.kernagic'
p2
(dp3
S'lstem'
p4
I168
sS'rstem'
p5
I620
ssS'com.typemytype.robofont.guides'
p6
((dp7
S'y'
I381
sS'x'
I77
sS'magnetic'
p8
I5
sS'angle'
p9
F90
sS'isGlobal'
p10
I00
stp11
sS'com.typemytype.robofont.layerData'
p12
(dp13
sS'com.fontlab.hintData'
p14
(dp15
S'vhints'
p16
((dp17
S'position'
p18
I142
sS'width'
p19
I107
s(dp20
g18
I738
sg19
I104
stp21
sS'hhints'
p22
((dp23
g18
I-19
sg19
I92
s(dp24
g18
I982
sg19
I92
stp25
ssS'org.robofab.postScriptHintData'
p26
(dp27
s."
HStem: -19 92 982 92
VStem: 142 107 738 104
AnchorPoint: "bot" 485 1 basechar 0
AnchorPoint: "top" 502 1083 basechar 0
LayerCount: 2
Fore
SplineSet
704 306 m 0
 704 369 680 414 527 463 c 2
 407 501 l 1
 160 582 112 671 112 806 c 0
 112 992 264 1105 510 1105 c 0
 686 1105 817 1042 885 940 c 1
 775 846 l 1
 764 846 l 1
 713 908 627 948 521 948 c 0
 388 948 330 895 330 810 c 0
 330 746 355 711 490 666 c 1
 616 623 l 2
 869 536 905 436 905 314 c 0
 905 81 728 -20 513 -20 c 0
 331 -20 173 40 79 160 c 1
 188 264 l 1
 205 264 l 1
 293 161 413 132 510 132 c 0
 636 132 704 191 704 306 c 0
EndSplineSet
EndChar

StartChar: section
Encoding: 167 167 340
Width: 1064
VWidth: 0
GlyphClass: 2
Flags: HW
PickledData: "(dp1
S'org.pippin.gimp.org.kernagic'
p2
(dp3
S'lstem'
p4
I0
sS'rstem'
p5
I0
ssS'com.typemytype.robofont.layerData'
p6
(dp7
S'b'
(dp8
S'name'
p9
S'section'
p10
sS'lib'
p11
(dp12
sS'unicodes'
p13
(tsS'width'
p14
I1079
sS'contours'
p15
(tsS'components'
p16
(tsS'anchors'
p17
(tsssS'org.robofab.postScriptHintData'
p18
(dp19
s."
LayerCount: 2
Fore
SplineSet
511 -20 m 0
 404 -20 284 11 185 60 c 1
 185 225 l 1
 287 174 402 134 512 134 c 0
 632 134 704 185 704 296 c 0
 704 367 664 414 419 498 c 0
 226 565 166 645 166 774 c 0
 166 857 205 930 267 983 c 1
 193 1040 163 1106 163 1193 c 0
 163 1391 309 1496 524 1496 c 0
 642 1496 754 1465 849 1414 c 1
 804 1275 l 1
 743 1306 646 1342 543 1342 c 0
 405 1342 352 1292 352 1206 c 0
 352 1131 378 1105 615 1024 c 0
 831 950 886 869 886 724 c 0
 886 631 855 565 805 513 c 1
 863 459 884 392 884 305 c 0
 884 70 716 -20 511 -20 c 0
683 588 m 1
 708 614 722 651 722 696 c 0
 722 763 682 813 544 860 c 0
 436 898 404 910 397 914 c 1
 356 891 336 852 336 799 c 0
 336 723 370 699 511 648 c 1
 619 615 661 598 683 588 c 1
EndSplineSet
EndChar

StartChar: semicolon
Encoding: 59 59 341
Width: 725
VWidth: 0
GlyphClass: 2
Flags: HW
PickledData: "(dp1
S'org.pippin.gimp.org.kernagic'
p2
(dp3
S'lstem'
p4
I0
sS'rstem'
p5
I0
ssS'com.typemytype.robofont.layerData'
p6
(dp7
sS'org.robofab.postScriptHintData'
p8
(dp9
s."
LayerCount: 2
Fore
SplineSet
239 -314 m 1
 239 -314 279 230 279 248 c 1
 485 248 l 1
 485 139 l 1
 367 -314 l 1
 239 -314 l 1
375 823 m 0
 291 823 240 881 240 956 c 0
 240 1030 289 1091 375 1091 c 0
 461 1091 508 1030 508 956 c 0
 508 882 461 823 375 823 c 0
EndSplineSet
EndChar

StartChar: seven
Encoding: 55 55 342
Width: 1284
VWidth: 0
GlyphClass: 2
Flags: HW
PickledData: "(dp1
S'org.pippin.gimp.org.kernagic'
p2
(dp3
S'lstem'
p4
I0
sS'rstem'
p5
I0
ssS'com.typemytype.robofont.layerData'
p6
(dp7
sS'org.robofab.postScriptHintData'
p8
(dp9
s."
LayerCount: 2
Fore
SplineSet
339 0 m 1
 868 1286 l 1
 190 1286 l 1
 173 1456 l 1
 1100 1456 l 1
 1102 1296 l 1
 567 0 l 1
 339 0 l 1
EndSplineSet
EndChar

StartChar: six
Encoding: 54 54 343
Width: 1284
VWidth: 0
GlyphClass: 2
Flags: HW
PickledData: "(dp1
S'org.pippin.gimp.org.kernagic'
p2
(dp3
S'lstem'
p4
I0
sS'rstem'
p5
I0
ssS'com.typemytype.robofont.layerData'
p6
(dp7
sS'org.robofab.postScriptHintData'
p8
(dp9
s."
LayerCount: 2
Fore
SplineSet
658 -20 m 0
 343 -20 162 198 162 453 c 0
 162 660 237 798 363 972 c 2
 713 1456 l 1
 948 1456 l 1
 948 1432 l 1
 794 1224 641 1016 487 809 c 1
 547 855 629 893 734 893 c 0
 959 893 1151 726 1151 446 c 0
 1151 183 962 -20 658 -20 c 0
656 145 m 0
 836 145 935 284 935 448 c 0
 935 620 835 743 660 743 c 0
 535 743 377 662 377 444 c 0
 377 281 476 145 656 145 c 0
EndSplineSet
EndChar

StartChar: slash
Encoding: 47 47 344
Width: 980
VWidth: 0
GlyphClass: 2
Flags: HW
PickledData: "(dp1
S'org.pippin.gimp.org.kernagic'
p2
(dp3
S'lstem'
p4
I0
sS'rstem'
p5
I0
ssS'com.typemytype.robofont.layerData'
p6
(dp7
S'b'
(dp8
S'name'
p9
S'slash'
p10
sS'lib'
p11
(dp12
sS'unicodes'
p13
(tsS'width'
p14
I965
sS'contours'
p15
(tsS'components'
p16
(tsS'anchors'
p17
(tsssS'org.robofab.postScriptHintData'
p18
(dp19
s."
LayerCount: 2
Fore
SplineSet
114 -153 m 1
 734 1560 l 1
 902 1560 l 1
 278 -153 l 1
 114 -153 l 1
EndSplineSet
EndChar

StartChar: slashbar
Encoding: 65543 -1 345
Width: 746
VWidth: 0
GlyphClass: 4
Flags: HW
PickledData: "(dp1
S'org.pippin.gimp.org.kernagic'
p2
(dp3
S'lstem'
p4
I0
sS'rstem'
p5
I0
ssS'com.typemytype.robofont.layerData'
p6
(dp7
S'b'
(dp8
S'name'
p9
S'slashbar'
p10
sS'lib'
p11
(dp12
sS'unicodes'
p13
(tsS'width'
p14
I908
sS'contours'
p15
(tsS'components'
p16
(tsS'anchors'
p17
(tsssS'org.robofab.postScriptHintData'
p18
(dp19
s."
AnchorPoint: "mid" 468 704 mark 0
LayerCount: 2
Fore
SplineSet
175 478 m 1
 175 633 l 1
 785 939 l 1
 785 784 l 1
 175 478 l 1
EndSplineSet
EndChar

StartChar: sterling
Encoding: 163 163 347
Width: 1159
VWidth: 0
GlyphClass: 2
Flags: HW
PickledData: "(dp1
S'org.pippin.gimp.org.kernagic'
p2
(dp3
S'lstem'
p4
I0
sS'rstem'
p5
I0
ssS'com.typemytype.robofont.layerData'
p6
(dp7
S'b'
(dp8
S'name'
p9
S'sterling'
p10
sS'lib'
p11
(dp12
sS'unicodes'
p13
(tsS'width'
p14
I1136
sS'contours'
p15
((dp16
S'points'
p17
((dp18
S'segmentType'
p19
S'line'
p20
sS'x'
I20
sS'smooth'
p21
I00
sS'y'
I0
s(dp22
g19
S'line'
p23
sS'x'
I8
sg21
I00
sS'y'
I115
s(dp24
g19
S'line'
p25
sS'x'
I180
sg21
I00
sS'y'
I132
s(dp26
g19
S'line'
p27
sS'x'
I180
sg21
I00
sS'y'
I683
s(dp28
g19
S'line'
p29
sS'x'
I8
sg21
I00
sS'y'
I683
s(dp30
g19
S'line'
p31
sS'x'
I8
sg21
I00
sS'y'
I806
s(dp32
g19
S'line'
p33
sS'x'
I180
sg21
I00
sS'y'
I806
s(dp34
g19
S'line'
p35
sS'x'
I180
sg21
I01
sS'y'
I920
s(dp36
S'y'
I1183
sS'x'
I180
sg21
I00
s(dp37
S'y'
I1476
sS'x'
I245
sg21
I00
s(dp38
g19
S'curve'
p39
sS'x'
I598
sg21
I01
sS'y'
I1476
s(dp40
S'y'
I1476
sS'x'
I742
sg21
I00
s(dp41
S'y'
I1421
sS'x'
I854
sg21
I00
s(dp42
g19
S'curve'
p43
sS'x'
I939
sg21
I00
sS'y'
I1347
s(dp44
g19
S'line'
p45
sS'x'
I871
sg21
I00
sS'y'
I1229
s(dp46
S'y'
I1297
sS'x'
I785
sg21
I00
s(dp47
S'y'
I1334
sS'x'
I700
sg21
I00
s(dp48
g19
S'curve'
p49
sS'x'
I598
sg21
I01
sS'y'
I1334
s(dp50
S'y'
I1334
sS'x'
I397
sg21
I00
s(dp51
S'y'
I1179
sS'x'
I356
sg21
I00
s(dp52
g19
S'curve'
p53
sS'x'
I356
sg21
I01
sS'y'
I949
s(dp54
g19
S'line'
p55
sS'x'
I356
sg21
I00
sS'y'
I806
s(dp56
g19
S'line'
p57
sS'x'
I739
sg21
I00
sS'y'
I806
s(dp58
g19
S'line'
p59
sS'x'
I739
sg21
I00
sS'y'
I683
s(dp60
g19
S'line'
p61
sS'x'
I356
sg21
I00
sS'y'
I683
s(dp62
g19
S'line'
p63
sS'x'
I356
sg21
I00
sS'y'
I134
s(dp64
g19
S'line'
p65
sS'x'
I953
sg21
I00
sS'y'
I134
s(dp66
g19
S'line'
p67
sS'x'
I940
sg21
I00
sS'y'
I0
stp68
stp69
sS'components'
p70
(tsS'anchors'
p71
(tsssS'org.robofab.postScriptHintData'
p72
(dp73
s."
LayerCount: 2
Fore
SplineSet
478 974 m 2
 478 824 l 1
 840 824 l 1
 840 678 l 1
 478 678 l 1
 478 166 l 1
 1048 166 l 1
 1038 0 l 1
 89 0 l 1
 78 146 l 1
 251 164 l 1
 251 678 l 1
 75 678 l 1
 75 824 l 1
 251 824 l 1
 251 961 l 2
 251 1248 348 1497 683 1497 c 0
 871 1497 986 1418 1045 1362 c 1
 968 1222 l 1
 950 1222 l 1
 880 1274 817 1316 718 1316 c 0
 561 1316 478 1206 478 974 c 2
EndSplineSet
EndChar

StartChar: summation
Encoding: 8721 8721 348
Width: 1091
VWidth: 0
GlyphClass: 2
Flags: HW
PickledData: "(dp1
S'org.pippin.gimp.org.kernagic'
p2
(dp3
S'lstem'
p4
I0
sS'rstem'
p5
I0
ssS'com.typemytype.robofont.layerData'
p6
(dp7
S'b'
(dp8
S'name'
p9
S'summation'
p10
sS'lib'
p11
(dp12
sS'unicodes'
p13
(tsS'width'
p14
I1050
sS'contours'
p15
(tsS'components'
p16
(tsS'anchors'
p17
(tsssS'org.robofab.postScriptHintData'
p18
(dp19
s."
LayerCount: 2
Fore
SplineSet
83 1456 m 1
 1014 1456 l 1
 1014 1280 l 1
 364 1280 l 1
 812 613 l 1
 334 -30 l 1
 1057 -30 l 1
 1057 -214 l 1
 66 -214 l 1
 66 -88 l 1
 569 613 l 1
 83 1325 l 1
 83 1456 l 1
EndSplineSet
EndChar

StartChar: t
Encoding: 116 116 349
Width: 818
VWidth: 0
GlyphClass: 2
Flags: HW
PickledData: "(dp1
S'org.pippin.gimp.org.kernagic'
p2
(dp3
S'lstem'
p4
I189
sS'rstem'
p5
I480
ssS'com.typemytype.robofont.layerData'
p6
(dp7
sS'com.fontlab.hintData'
p8
(dp9
S'vhints'
p10
((dp11
S'position'
p12
I244
sS'width'
p13
I122
s(dp14
g12
I286
sg13
I80
stp15
sS'hhints'
p16
((dp17
g12
I-11
sg13
I83
stp18
ssS'org.robofab.postScriptHintData'
p19
(dp20
s."
HStem: -11 83
VStem: 244 122 286 80
AnchorPoint: "mid" 369 647 basechar 0
AnchorPoint: "bot" 484 0 basechar 0
AnchorPoint: "top" 353 1367 basechar 0
LayerCount: 2
Fore
SplineSet
596 -9 m 1
 273 -9 224 88 224 351 c 2
 224 952 l 1
 55 952 l 1
 60 1071 l 1
 229 1082 l 1
 255 1378 l 1
 440 1392 l 1
 440 1082 l 1
 728 1082 l 1
 728 952 l 1
 440 952 l 1
 440 348 l 2
 440 188 456 152 609 147 c 1
 727 142 l 1
 719 -7 l 1
 596 -9 l 1
EndSplineSet
EndChar

StartChar: thorn
Encoding: 254 254 354
Width: 1191
VWidth: 0
GlyphClass: 2
Flags: HW
PickledData: "(dp1
S'org.pippin.gimp.org.kernagic'
p2
(dp3
S'lstem'
p4
I0
sS'rstem'
p5
I0
ssS'com.typemytype.robofont.layerData'
p6
(dp7
S'b'
(dp8
S'name'
p9
S'thorn'
p10
sS'lib'
p11
(dp12
sS'unicodes'
p13
(tsS'width'
p14
I1221
sS'contours'
p15
(tsS'components'
p16
(tsS'anchors'
p17
(tsssS'org.robofab.postScriptHintData'
p18
(dp19
s."
LayerCount: 2
Fore
SplineSet
658 1105 m 0
 523 1105 401 1047 334 888 c 1
 342 1117 l 1
 342 1560 l 1
 126 1540 l 1
 126 -454 l 1
 337 -454 l 1
 337 99.036655524 l 1
 399.408572896 31.8871406565 496.408572896 -20 628 -20 c 0
 923 -20 1085 207 1085 544 c 0
 1085 869 951 1105 658 1105 c 0
337 258 m 1
 337 358.666666667 337 459.333333333 337 560 c 0
 337 809 429 951 620 951 c 0
 800 951 864 795 864 543 c 0
 864 283 779 134 602 134 c 0
 487 134 397 176 337 258 c 1
EndSplineSet
EndChar

StartChar: three
Encoding: 51 51 355
Width: 1242
VWidth: 0
GlyphClass: 2
Flags: HW
PickledData: "(dp1
S'org.pippin.gimp.org.kernagic'
p2
(dp3
S'lstem'
p4
I0
sS'rstem'
p5
I0
ssS'com.typemytype.robofont.layerData'
p6
(dp7
sS'org.robofab.postScriptHintData'
p8
(dp9
s."
LayerCount: 2
Fore
SplineSet
607 -20 m 0
 422 -20 236 58 152 206 c 1
 266 312 l 1
 282 312 l 1
 357 198 490 157 599 157 c 0
 754 157 867 236 867 398 c 0
 867 616 730 675 482 675 c 2
 425 675 l 1
 401 837 l 1
 482 837 l 2
 653 837 834 868 834 1074 c 2
 834 1082 l 2
 834 1217 758 1299 603 1299 c 2
 595 1299 l 2
 473 1299 367 1253 287 1132 c 1
 267 1133 l 1
 150 1236 l 1
 244 1419 452 1476 609 1476 c 0
 881 1476 1048 1333 1048 1093 c 0
 1048 938 969 806 768 767 c 1
 987 734 1089 578 1089 391 c 0
 1089 150 901 -20 607 -20 c 0
EndSplineSet
EndChar

StartChar: threequarters
Encoding: 190 190 356
Width: 1743
VWidth: 0
GlyphClass: 2
Flags: HW
PickledData: "(dp1
S'org.pippin.gimp.org.kernagic'
p2
(dp3
S'lstem'
p4
I0
sS'rstem'
p5
I0
ssS'com.typemytype.robofont.layerData'
p6
(dp7
sS'org.robofab.postScriptHintData'
p8
(dp9
s."
LayerCount: 2
Fore
SplineSet
361 589 m 0
 276 589 187 614 116 663 c 1
 166 773 l 1
 224 736 296 713 359 713 c 0
 446 713 515 753 515 852 c 0
 515 944 460 993 342 993 c 1
 242 992 l 1
 242 1114 l 1
 341 1114 l 2
 445 1114 495 1161 495 1236 c 0
 495 1314 441 1353 362 1353 c 0
 306 1353 238 1333 170 1293 c 1
 117 1394 l 1
 189 1447 285 1476 375 1476 c 0
 514 1476 638 1409 638 1256 c 0
 638 1183 602 1085 497 1061 c 1
 600 1033 658 950 658 854 c 0
 658 673 516 589 361 589 c 0
1443 0 m 1
 1443 187 l 1
 1049 187 l 1
 1049 297 l 1
 1433 862 l 1
 1584 862 l 1
 1584 305 l 1
 1697 305 l 1
 1698 187 l 1
 1583 187 l 1
 1583 0 l 1
 1443 0 l 1
424 0 m 1
 1359 1485 l 1
 1513 1485 l 1
 582 0 l 1
 424 0 l 1
1203 305 m 1
 1443 305 l 1
 1443 677 l 1
 1203 305 l 1
EndSplineSet
EndChar

StartChar: tilde
Encoding: 732 732 357
Width: 986
VWidth: 0
GlyphClass: 4
Flags: HW
PickledData: "(dp1
S'org.robofab.postScriptHintData'
p2
(dp3
sS'com.typemytype.robofont.layerData'
p4
(dp5
sS'com.fontlab.hintData'
p6
(dp7
S'vhints'
p8
((dp9
S'position'
p10
I169
sS'width'
p11
I63
s(dp12
g10
I657
sg11
I67
stp13
sS'hhints'
p14
((dp15
g10
I1301
sg11
I88
s(dp16
g10
I1400
sg11
I79
stp17
ss."
HStem: 1301 88 1400 79
VStem: 169 63 657 67
AnchorPoint: "top" 493 1069 mark 0
LayerCount: 2
Fore
SplineSet
168 1286 m 1
 168 1421 226 1511 343 1511 c 0
 469 1511 567 1425 628 1425 c 0
 659 1425 679 1446 690 1510 c 1
 795 1510 l 1
 795 1378 739 1286 634 1286 c 0
 526 1286 412 1386 341 1386 c 0
 305 1386 281 1357 270 1286 c 1
 168 1286 l 1
EndSplineSet
EndChar

StartChar: trademark
Encoding: 8482 8482 358
Width: 2171
VWidth: 0
GlyphClass: 2
Flags: HW
PickledData: "(dp1
S'org.robofab.postScriptHintData'
p2
(dp3
sS'com.typemytype.robofont.layerData'
p4
(dp5
S'b'
(dp6
S'name'
p7
S'trademark'
p8
sS'lib'
p9
(dp10
sS'unicodes'
p11
(tsS'width'
p12
I2216
sS'contours'
p13
(tsS'components'
p14
(tsS'anchors'
p15
(tsss."
LayerCount: 2
Fore
SplineSet
961 522 m 1
 978 1456 l 1
 1142 1456 l 1
 1456 811 l 1
 1770 1456 l 1
 1931 1456 l 1
 1949 522 l 1
 1807 522 l 1
 1797 1225 l 1
 1506 626 l 1
 1403 626 l 1
 1113 1231 l 1
 1104 522 l 1
 961 522 l 1
381 522 m 1
 381 1330 l 1
 82 1330 l 1
 82 1456 l 1
 840 1456 l 1
 840 1330 l 1
 540 1330 l 1
 540 522 l 1
 381 522 l 1
EndSplineSet
EndChar

StartChar: two
Encoding: 50 50 359
Width: 1284
VWidth: 0
GlyphClass: 2
Flags: HW
PickledData: "(dp1
S'org.pippin.gimp.org.kernagic'
p2
(dp3
S'lstem'
p4
I0
sS'rstem'
p5
I0
ssS'com.typemytype.robofont.layerData'
p6
(dp7
sS'org.robofab.postScriptHintData'
p8
(dp9
s."
LayerCount: 2
Fore
SplineSet
276 1156 m 1
 255 1156 l 1
 150 1276 l 1
 253 1394 425 1476 612 1476 c 0
 893 1476 1092 1317 1092 1050 c 0
 1092 861 1021 755 823 567 c 2
 408 171 l 1
 1076 171 l 1
 1066 0 l 1
 188 0 l 1
 154 176 l 1
 694 707 l 2
 825 835 883 903 883 1047 c 0
 883 1220 754 1300 609 1300 c 0
 484 1300 353 1245 276 1156 c 1
EndSplineSet
EndChar

StartChar: u
Encoding: 117 117 360
Width: 1218
VWidth: 0
GlyphClass: 2
Flags: HW
PickledData: "(dp1
S'org.pippin.gimp.org.kernagic'
p2
(dp3
S'lstem'
p4
I0
sS'rstem'
p5
I0
ssS'com.typemytype.robofont.layerData'
p6
(dp7
sS'com.fontlab.hintData'
p8
(dp9
S'vhints'
p10
((dp11
S'position'
p12
I162
sS'width'
p13
I166
s(dp14
g12
I862
sg13
I166
stp15
sS'hhints'
p16
((dp17
g12
I-21
sg13
I126
stp18
ssS'org.robofab.postScriptHintData'
p19
(dp20
s."
HStem: -21 126
VStem: 162 166 862 166
AnchorPoint: "bot" 580 1 basechar 0
AnchorPoint: "ogonek" 965 1 basechar 0
AnchorPoint: "top" 620 1083 basechar 0
LayerCount: 2
Fore
SplineSet
844 266 m 1
 844 1082 l 1
 1061 1082 l 1
 1061 0 l 1
 873 0 l 1
 862 139 l 1
 793 47 689 -20 528 -20 c 0
 275 -20 143 125 143 405 c 2
 143 1082 l 1
 360 1082 l 1
 360 417 l 2
 360 230 419 132 573 132 c 0
 726 132 804 214 844 266 c 1
EndSplineSet
EndChar

StartChar: underscore
Encoding: 95 95 368
Width: 925
VWidth: 0
GlyphClass: 2
Flags: HW
PickledData: "(dp1
S'org.pippin.gimp.org.kernagic'
p2
(dp3
S'lstem'
p4
I0
sS'rstem'
p5
I0
ssS'com.typemytype.robofont.layerData'
p6
(dp7
sS'org.robofab.postScriptHintData'
p8
(dp9
s."
LayerCount: 2
Fore
SplineSet
0 -268 m 1
 0 -125 l 1
 925 -125 l 1
 925 -268 l 1
 0 -268 l 1
EndSplineSet
EndChar

StartChar: uni00AD
Encoding: 173 173 371
Width: 916
VWidth: 0
GlyphClass: 2
Flags: HW
PickledData: "(dp1
S'org.robofab.postScriptHintData'
p2
(dp3
s."
LayerCount: 2
Fore
SplineSet
124 413 m 1
 124 574 l 1
 789 574 l 1
 789 413 l 1
 124 413 l 1
EndSplineSet
EndChar

StartChar: uni00B2
Encoding: 178 178 372
Width: 797
VWidth: 0
GlyphClass: 2
Flags: HW
PickledData: "(dp1
S'org.robofab.postScriptHintData'
p2
(dp3
sS'com.typemytype.robofont.layerData'
p4
(dp5
s."
LayerCount: 2
Fore
SplineSet
153 637 m 1
 153 753 l 1
 255 856 299 873 442 1031 c 1
 498 1099 548 1172 548 1226 c 0
 548 1313 486 1371 407 1371 c 0
 314 1371 241 1334 189 1268 c 1
 123 1364 l 1
 189 1452 288 1496 417 1496 c 0
 557 1496 688 1402 688 1229 c 0
 688 1115 637 1021 550 932 c 0
 467 849 471 861 358 753 c 1
 687 753 l 1
 676 637 l 1
 153 637 l 1
EndSplineSet
EndChar

StartChar: uni00B3
Encoding: 179 179 373
Width: 878
VWidth: 0
GlyphClass: 2
Flags: HW
PickledData: "(dp1
S'org.robofab.postScriptHintData'
p2
(dp3
sS'com.typemytype.robofont.layerData'
p4
(dp5
s."
LayerCount: 2
Fore
SplineSet
435 618 m 0
 334 618 234 647 164 702 c 1
 217 805 l 1
 266 760 342 730 432 730 c 0
 530 730 611 778 611 875 c 0
 611 962 550 1023 431 1023 c 2
 428 1023 l 1
 313 1022 l 1
 313 1129 l 1
 429 1129 l 2
 557 1129 598 1181 598 1259 c 0
 598 1345 529 1383 438 1383 c 0
 353 1383 280 1355 221 1311 c 1
 170 1402 l 1
 241 1460 349 1493 458 1493 c 0
 601 1493 727 1430 727 1271 c 0
 726 1177 676 1100 579 1079 c 1
 674 1058 739 976 739 870 c 0
 739 700 596 618 435 618 c 0
EndSplineSet
EndChar

StartChar: uni00B5
Encoding: 181 181 374
Width: 1206
VWidth: 0
GlyphClass: 2
Flags: HW
PickledData: "(dp1
S'org.robofab.postScriptHintData'
p2
(dp3
sS'com.typemytype.robofont.layerData'
p4
(dp5
s."
LayerCount: 2
Fore
SplineSet
844 266 m 1
 844 1082 l 1
 1061 1082 l 1
 1061 0 l 1
 873 0 l 1
 862 139 l 1
 793 47 689 -20 528 -20 c 0
 464.261637903 -20 408.203008892 -10.7970140698 360 7.44906048946 c 1
 360 -296 l 1
 143 -296 l 1
 143 1082 l 1
 360 1082 l 1
 360 417 l 2
 360 230 419 132 573 132 c 0
 726 132 804 214 844 266 c 1
EndSplineSet
EndChar

StartChar: uni00B9
Encoding: 185 185 375
Width: 878
VWidth: 0
GlyphClass: 2
Flags: HW
PickledData: "(dp1
S'org.robofab.postScriptHintData'
p2
(dp3
sS'com.typemytype.robofont.layerData'
p4
(dp5
s."
LayerCount: 2
Fore
SplineSet
257 614 m 1
 257 739 l 1
 420 739 l 1
 420 1322 l 1
 383 1301 275 1252 248 1247 c 1
 248 1373 l 1
 301 1394 419 1454 454 1481 c 1
 575 1481 l 1
 575 739 l 1
 735 739 l 1
 735 614 l 1
 257 614 l 1
EndSplineSet
EndChar

StartChar: uni02C9
Encoding: 713 713 444
Width: 600
VWidth: 0
GlyphClass: 4
Flags: HW
PickledData: "(dp1
S'org.robofab.postScriptHintData'
p2
(dp3
s."
AnchorPoint: "top" 303 1069 mark 0
LayerCount: 2
Fore
SplineSet
-21 1322 m 1
 -21 1464 l 1
 612 1464 l 1
 612 1322 l 1
 -21 1322 l 1
EndSplineSet
EndChar

StartChar: uni0307
Encoding: 775 775 445
Width: 477
VWidth: 0
GlyphClass: 2
Flags: HW
PickledData: "(dp1
S'org.robofab.postScriptHintData'
p2
(dp3
sS'com.typemytype.robofont.layerData'
p4
(dp5
s."
LayerCount: 2
Fore
SplineSet
383 1453 m 0
 383 1369 332 1319 244 1319 c 0
 155 1319 103 1369 103 1453 c 0
 103 1534 155 1583 244 1583 c 0
 332 1583 383 1534 383 1453 c 0
EndSplineSet
EndChar

StartChar: uni2074
Encoding: 8308 8308 464
Width: 699
VWidth: 0
GlyphClass: 2
Flags: HW
PickledData: "(dp1
S'org.robofab.postScriptHintData'
p2
(dp3
sS'com.typemytype.robofont.layerData'
p4
(dp5
s."
LayerCount: 2
Fore
SplineSet
396 614 m 1
 396 815 l 1
 35 815 l 1
 35 931 l 1
 388 1483 l 1
 532 1483 l 1
 532 924 l 1
 650 924 l 1
 641 815 l 1
 530 815 l 1
 531 614 l 1
 396 614 l 1
179 924 m 1
 397 924 l 1
 398 1306 l 1
 179 924 l 1
EndSplineSet
EndChar

StartChar: uni2113
Encoding: 8467 8467 465
Width: 1246
VWidth: 0
GlyphClass: 2
Flags: HW
PickledData: "(dp1
S'org.robofab.postScriptHintData'
p2
(dp3
s."
LayerCount: 2
Fore
SplineSet
660 828 m 1
 854 993 l 1
 1011 1124 1086 1273 1086 1378 c 0
 1086 1459 1041 1513 954 1513 c 0
 859 1513 809 1452 777 1312 c 1
 660 828 l 1
301 272 m 0
 301 332 310 403 331 484 c 1
 125 334 l 1
 77 421 l 1
 377 646 l 1
 580 1396 l 2
 641 1621 788 1692 931 1692 c 0
 1134 1692 1236 1571 1236 1409 c 0
 1236 1248 1135 1047 931 886 c 2
 613 635 l 1
 560 417 l 2
 547 365 540 321 540 285 c 0
 540 195 581 153 667 153 c 0
 746 153 836 186 937 237 c 1
 963 98 l 1
 963 98 807 -20 569 -20 c 0
 408 -20 301 67 301 272 c 0
EndSplineSet
EndChar

StartChar: uni2206
Encoding: 8710 8710 467
Width: 1293
VWidth: 0
GlyphClass: 2
Flags: HW
PickledData: "(dp1
S'org.pippin.gimp.org.kernagic'
p2
(dp3
S'lstem'
p4
I0
sS'rstem'
p5
I0
ssS'com.typemytype.robofont.layerData'
p6
(dp7
S'b'
(dp8
S'name'
p9
S'uni2206'
p10
sS'lib'
p11
(dp12
sS'unicodes'
p13
(tsS'width'
p14
I1278
sS'contours'
p15
(tsS'components'
p16
(tsS'anchors'
p17
(tsssS'org.robofab.postScriptHintData'
p18
(dp19
s."
LayerCount: 2
Fore
SplineSet
554 1551 m 1
 742 1551 l 1
 1228 86 l 1
 1228 0 l 1
 67 0 l 1
 67 86 l 1
 554 1551 l 1
678 1203 m 1
 644 1322 l 1
 611 1203 l 1
 265 175 l 1
 1030 175 l 1
 678 1203 l 1
EndSplineSet
EndChar

StartChar: v
Encoding: 118 118 478
Width: 1085
VWidth: 0
GlyphClass: 2
Flags: HW
PickledData: "(dp1
S'org.pippin.gimp.org.kernagic'
p2
(dp3
S'lstem'
p4
I0
sS'rstem'
p5
I0
ssS'com.typemytype.robofont.guides'
p6
((dp7
S'y'
I552
sS'x'
I438
sS'magnetic'
p8
I5
sS'angle'
p9
I0
sS'isGlobal'
p10
I00
stp11
sS'com.typemytype.robofont.layerData'
p12
(dp13
sS'org.robofab.postScriptHintData'
p14
(dp15
s."
LayerCount: 2
Fore
SplineSet
438 0 m 1
 50 1082 l 1
 273 1082 l 1
 366 802 458 521 553 243 c 1
 641 523 731 803 820 1082 c 1
 1039 1082 l 1
 657 0 l 1
 438 0 l 1
EndSplineSet
EndChar

StartChar: w
Encoding: 119 119 479
Width: 1513
VWidth: 0
GlyphClass: 2
Flags: HW
PickledData: "(dp1
S'org.pippin.gimp.org.kernagic'
p2
(dp3
S'lstem'
p4
I0
sS'rstem'
p5
I0
ssS'com.typemytype.robofont.layerData'
p6
(dp7
sS'org.robofab.postScriptHintData'
p8
(dp9
s."
AnchorPoint: "top" 764 1082 basechar 0
LayerCount: 2
Fore
SplineSet
766 875 m 1
 502 -2 l 1
 308 -2 l 1
 20 1082 l 1
 223 1082 l 1
 417 253 l 1
 654 1082 l 1
 870 1082 l 1
 1113 253 l 1
 1299 1082 l 1
 1493 1082 l 1
 1215 -2 l 1
 1017 -2 l 1
 766 875 l 1
EndSplineSet
EndChar

StartChar: x
Encoding: 120 120 484
Width: 1066
VWidth: 0
GlyphClass: 2
Flags: HW
PickledData: "(dp1
S'org.pippin.gimp.org.kernagic'
p2
(dp3
S'lstem'
p4
I0
sS'rstem'
p5
I0
ssS'com.typemytype.robofont.layerData'
p6
(dp7
sS'com.fontlab.hintData'
p8
(dp9
S'hhints'
p10
((dp11
S'position'
p12
I0
sS'width'
p13
I22
s(dp14
g12
I1034
sg13
I21
stp15
ssS'org.robofab.postScriptHintData'
p16
(dp17
s."
HStem: 0 22 1034 21
LayerCount: 2
Fore
SplineSet
655 549 m 1
 1023 -2 l 1
 785 -2 l 1
 523 391 l 1
 255 -2 l 1
 41 -2 l 1
 419 547 l 1
 62 1082 l 1
 299 1082 l 1
 551 705 l 1
 802 1082 l 1
 1015 1082 l 1
 655 549 l 1
EndSplineSet
EndChar

StartChar: y
Encoding: 121 121 485
Width: 1132
VWidth: 0
GlyphClass: 2
Flags: HW
PickledData: "(dp1
S'org.pippin.gimp.org.kernagic'
p2
(dp3
S'lstem'
p4
I0
sS'rstem'
p5
I0
ssS'com.typemytype.robofont.layerData'
p6
(dp7
sS'org.robofab.postScriptHintData'
p8
(dp9
s."
AnchorPoint: "top" 576 1082 basechar 0
LayerCount: 2
Fore
SplineSet
1097 1082 m 1
 481 -422 l 1
 300 -367 l 1
 471 66 l 1
 26 1082 l 1
 247 1082 l 1
 579 291 l 1
 890 1082 l 1
 1097 1082 l 1
EndSplineSet
EndChar

StartChar: yen
Encoding: 165 165 489
Width: 1361
VWidth: 0
GlyphClass: 2
Flags: HW
PickledData: "(dp1
S'org.pippin.gimp.org.kernagic'
p2
(dp3
S'lstem'
p4
I0
sS'rstem'
p5
I0
ssS'com.typemytype.robofont.layerData'
p6
(dp7
S'b'
(dp8
S'name'
p9
S'yen'
p10
sS'lib'
p11
(dp12
sS'unicodes'
p13
(tsS'width'
p14
I1366
sS'contours'
p15
(tsS'components'
p16
(tsS'anchors'
p17
(tsssS'org.robofab.postScriptHintData'
p18
(dp19
s."
LayerCount: 2
Fore
SplineSet
244 514 m 1
 244 631 l 1
 509.949353448 631 l 1
 61 1456 l 1
 288 1456 l 1
 681 733 l 1
 1065 1456 l 1
 1300 1456 l 1
 854.677419355 631 l 1
 1092 631 l 1
 1092 514 l 1
 798 514 l 1
 798 369 l 1
 1092 369 l 1
 1092 253 l 1
 798 253 l 1
 798 0 l 1
 566 0 l 1
 566 253 l 1
 244 253 l 1
 244 369 l 1
 566 369 l 1
 566 514 l 1
 244 514 l 1
EndSplineSet
EndChar

StartChar: z
Encoding: 122 122 491
Width: 1001
VWidth: 0
GlyphClass: 2
Flags: HW
PickledData: "(dp1
S'org.pippin.gimp.org.kernagic'
p2
(dp3
S'lstem'
p4
I0
sS'rstem'
p5
I0
ssS'com.typemytype.robofont.layerData'
p6
(dp7
sS'org.robofab.postScriptHintData'
p8
(dp9
s."
AnchorPoint: "bot" 487 0 basechar 0
AnchorPoint: "top" 504 1082 basechar 0
LayerCount: 2
Fore
SplineSet
111 1082 m 1
 891 1082 l 1
 891 945 l 1
 337 153 l 1
 899 153 l 1
 903 0 l 1
 94 0 l 1
 94 127 l 1
 661 936 l 1
 114 936 l 1
 111 1082 l 1
EndSplineSet
EndChar

StartChar: zero
Encoding: 48 48 495
Width: 1284
VWidth: 0
GlyphClass: 2
Flags: HW
PickledData: "(dp1
S'org.pippin.gimp.org.kernagic'
p2
(dp3
S'lstem'
p4
I0
sS'rstem'
p5
I0
ssS'com.typemytype.robofont.layerData'
p6
(dp7
S'b'
(dp8
S'name'
p9
S'zero'
p10
sS'lib'
p11
(dp12
sS'unicodes'
p13
(tsS'width'
p14
I1248
sS'contours'
p15
(tsS'components'
p16
(tsS'anchors'
p17
(tsssS'org.robofab.postScriptHintData'
p18
(dp19
s."
LayerCount: 2
Fore
SplineSet
646 158 m 0
 828 158 934 323 934 715 c 0
 934 1111 828 1299 646 1299 c 0
 464 1299 350 1089 350 714 c 0
 350 323 463 158 646 158 c 0
646 -20 m 0
 293 -20 121 262 121 710 c 0
 121 1174 305 1476 646 1476 c 0
 986 1476 1163 1175 1163 710 c 0
 1163 262 998 -20 646 -20 c 0
EndSplineSet
EndChar
